G75*
%MOIN*%
%OFA0B0*%
%FSLAX25Y25*%
%IPPOS*%
%LPD*%
%AMOC8*
5,1,8,0,0,1.08239X$1,22.5*
%
%ADD10C,0.07050*%
%ADD11C,0.05937*%
%ADD12OC8,0.06300*%
%ADD13C,0.06300*%
%ADD14OC8,0.05200*%
%ADD15C,0.05200*%
%ADD16C,0.06600*%
%ADD17C,0.07087*%
%ADD18C,0.06000*%
%ADD19C,0.01000*%
%ADD20C,0.04000*%
D10*
X0147875Y0281200D02*
X0154925Y0281200D01*
X0154925Y0300800D02*
X0147875Y0300800D01*
X0197075Y0300800D02*
X0204125Y0300800D01*
X0204125Y0281200D02*
X0197075Y0281200D01*
X0352475Y0150843D02*
X0359525Y0150843D01*
X0359525Y0131157D02*
X0352475Y0131157D01*
X0352475Y0090843D02*
X0359525Y0090843D01*
X0359525Y0071157D02*
X0352475Y0071157D01*
D11*
X0033969Y0066000D02*
X0028031Y0066000D01*
X0028031Y0076000D02*
X0033969Y0076000D01*
X0033969Y0086000D02*
X0028031Y0086000D01*
X0028031Y0096000D02*
X0033969Y0096000D01*
X0033969Y0126000D02*
X0028031Y0126000D01*
X0028031Y0136000D02*
X0033969Y0136000D01*
X0033969Y0146000D02*
X0028031Y0146000D01*
X0028031Y0156000D02*
X0033969Y0156000D01*
X0033969Y0236000D02*
X0028031Y0236000D01*
X0028031Y0246000D02*
X0033969Y0246000D01*
X0033969Y0256000D02*
X0028031Y0256000D01*
X0028031Y0266000D02*
X0033969Y0266000D01*
X0033969Y0276000D02*
X0028031Y0276000D01*
X0028031Y0286000D02*
X0033969Y0286000D01*
X0111000Y0028969D02*
X0111000Y0023031D01*
X0121000Y0023031D02*
X0121000Y0028969D01*
X0131000Y0028969D02*
X0131000Y0023031D01*
X0141000Y0023031D02*
X0141000Y0028969D01*
X0171000Y0028969D02*
X0171000Y0023031D01*
X0181000Y0023031D02*
X0181000Y0028969D01*
X0191000Y0028969D02*
X0191000Y0023031D01*
X0201000Y0023031D02*
X0201000Y0028969D01*
X0358031Y0186000D02*
X0363969Y0186000D01*
X0363969Y0196000D02*
X0358031Y0196000D01*
X0358031Y0206000D02*
X0363969Y0206000D01*
X0363969Y0236000D02*
X0358031Y0236000D01*
X0358031Y0246000D02*
X0363969Y0246000D01*
X0363969Y0256000D02*
X0358031Y0256000D01*
X0358031Y0266000D02*
X0363969Y0266000D01*
D12*
X0251000Y0086000D03*
D13*
X0241000Y0086000D03*
D14*
X0241000Y0056000D03*
X0251000Y0056000D03*
X0111000Y0071000D03*
X0111000Y0101000D03*
X0111000Y0131000D03*
X0111000Y0161000D03*
X0111000Y0191000D03*
X0111000Y0221000D03*
X0111000Y0251000D03*
X0111000Y0281000D03*
X0071000Y0281000D03*
X0071000Y0251000D03*
X0071000Y0221000D03*
X0071000Y0191000D03*
X0041000Y0196000D03*
X0031000Y0206000D03*
X0021000Y0196000D03*
X0071000Y0161000D03*
X0071000Y0131000D03*
X0071000Y0101000D03*
X0071000Y0071000D03*
X0171000Y0236000D03*
X0181000Y0236000D03*
D15*
X0188400Y0206000D02*
X0193600Y0206000D01*
X0193600Y0196000D02*
X0188400Y0196000D01*
X0188400Y0186000D02*
X0193600Y0186000D01*
X0193600Y0176000D02*
X0188400Y0176000D01*
X0188400Y0166000D02*
X0193600Y0166000D01*
X0193600Y0156000D02*
X0188400Y0156000D01*
X0188400Y0146000D02*
X0193600Y0146000D01*
X0193600Y0136000D02*
X0188400Y0136000D01*
X0188400Y0126000D02*
X0193600Y0126000D01*
X0193600Y0116000D02*
X0188400Y0116000D01*
X0188400Y0106000D02*
X0193600Y0106000D01*
X0193600Y0096000D02*
X0188400Y0096000D01*
X0188400Y0086000D02*
X0193600Y0086000D01*
X0193600Y0076000D02*
X0188400Y0076000D01*
X0163600Y0076000D02*
X0158400Y0076000D01*
X0158400Y0086000D02*
X0163600Y0086000D01*
X0163600Y0096000D02*
X0158400Y0096000D01*
X0158400Y0106000D02*
X0163600Y0106000D01*
X0163600Y0116000D02*
X0158400Y0116000D01*
X0158400Y0126000D02*
X0163600Y0126000D01*
X0163600Y0136000D02*
X0158400Y0136000D01*
X0158400Y0146000D02*
X0163600Y0146000D01*
X0163600Y0156000D02*
X0158400Y0156000D01*
X0158400Y0166000D02*
X0163600Y0166000D01*
X0163600Y0176000D02*
X0158400Y0176000D01*
X0158400Y0186000D02*
X0163600Y0186000D01*
X0163600Y0196000D02*
X0158400Y0196000D01*
X0158400Y0206000D02*
X0163600Y0206000D01*
X0228400Y0186000D02*
X0233600Y0186000D01*
X0258400Y0186000D02*
X0263600Y0186000D01*
X0288400Y0186000D02*
X0293600Y0186000D01*
X0318400Y0186000D02*
X0323600Y0186000D01*
X0323600Y0161000D02*
X0318400Y0161000D01*
X0293600Y0161000D02*
X0288400Y0161000D01*
X0263600Y0161000D02*
X0258400Y0161000D01*
X0233600Y0161000D02*
X0228400Y0161000D01*
X0228400Y0136000D02*
X0233600Y0136000D01*
X0258400Y0136000D02*
X0263600Y0136000D01*
X0288400Y0136000D02*
X0293600Y0136000D01*
X0318400Y0136000D02*
X0323600Y0136000D01*
X0323600Y0111000D02*
X0318400Y0111000D01*
X0293600Y0111000D02*
X0288400Y0111000D01*
X0263600Y0111000D02*
X0258400Y0111000D01*
X0233600Y0111000D02*
X0228400Y0111000D01*
D16*
X0286000Y0029300D02*
X0286000Y0022700D01*
X0296000Y0022700D02*
X0296000Y0029300D01*
X0306000Y0029300D02*
X0306000Y0022700D01*
D17*
X0301000Y0222457D02*
X0301000Y0229543D01*
X0311000Y0229543D02*
X0311000Y0222457D01*
X0291000Y0222457D02*
X0291000Y0229543D01*
X0281000Y0229543D02*
X0281000Y0222457D01*
X0271000Y0222457D02*
X0271000Y0229543D01*
X0261000Y0229543D02*
X0261000Y0222457D01*
X0251000Y0222457D02*
X0251000Y0229543D01*
X0241000Y0229543D02*
X0241000Y0222457D01*
X0246000Y0242457D02*
X0246000Y0249543D01*
X0256000Y0249543D02*
X0256000Y0242457D01*
X0266000Y0242457D02*
X0266000Y0249543D01*
X0276000Y0249543D02*
X0276000Y0242457D01*
X0286000Y0242457D02*
X0286000Y0249543D01*
X0296000Y0249543D02*
X0296000Y0242457D01*
X0306000Y0242457D02*
X0306000Y0249543D01*
D18*
X0301000Y0288000D02*
X0301000Y0294000D01*
X0291000Y0294000D02*
X0291000Y0288000D01*
X0281000Y0288000D02*
X0281000Y0294000D01*
X0271000Y0294000D02*
X0271000Y0288000D01*
X0261000Y0288000D02*
X0261000Y0294000D01*
X0251000Y0294000D02*
X0251000Y0288000D01*
D19*
X0261000Y0291000D02*
X0271000Y0281000D01*
X0271000Y0236625D01*
X0281000Y0226625D01*
X0281000Y0226000D01*
X0276000Y0221000D01*
X0276000Y0117875D01*
X0241000Y0082875D01*
X0241000Y0086000D01*
X0237875Y0086000D01*
X0197875Y0126000D01*
X0191000Y0126000D01*
X0191000Y0136000D02*
X0220375Y0106625D01*
X0254125Y0106625D01*
X0254125Y0146000D01*
X0267875Y0159750D01*
X0267875Y0218500D01*
X0261000Y0225375D01*
X0261000Y0226000D01*
X0252250Y0224750D02*
X0252250Y0169750D01*
X0261000Y0161000D01*
X0267875Y0154750D02*
X0271000Y0157875D01*
X0271000Y0226000D01*
X0284125Y0218500D02*
X0286000Y0220375D01*
X0286000Y0246000D01*
X0296000Y0246000D02*
X0296000Y0220375D01*
X0297875Y0218500D01*
X0297875Y0184750D01*
X0291000Y0177875D01*
X0284125Y0179125D02*
X0284125Y0218500D01*
X0291000Y0226000D02*
X0291000Y0271625D01*
X0275375Y0287250D01*
X0275375Y0296000D01*
X0272875Y0298500D01*
X0256625Y0298500D01*
X0256625Y0266000D01*
X0242875Y0266000D01*
X0180375Y0203500D01*
X0180375Y0105375D01*
X0161000Y0086000D01*
X0161000Y0096000D02*
X0167875Y0102875D01*
X0167875Y0107250D01*
X0164750Y0110375D01*
X0115375Y0110375D01*
X0115375Y0069750D01*
X0106625Y0061000D01*
X0106625Y0095375D01*
X0071000Y0131000D01*
X0071000Y0161000D02*
X0040375Y0130375D01*
X0040375Y0085375D01*
X0031000Y0076000D01*
X0023812Y0078813D02*
X0023500Y0079125D01*
X0023500Y0178500D01*
X0041000Y0196000D01*
X0066625Y0221625D01*
X0066625Y0246625D01*
X0071000Y0251000D01*
X0106625Y0225375D02*
X0111000Y0221000D01*
X0111000Y0191000D01*
X0111000Y0161000D01*
X0111000Y0136000D01*
X0161000Y0136000D01*
X0184125Y0151000D02*
X0184125Y0089750D01*
X0184437Y0089437D01*
X0191000Y0096000D01*
X0197875Y0099125D02*
X0191000Y0106000D01*
X0197875Y0099125D02*
X0197875Y0074750D01*
X0196625Y0073500D01*
X0196625Y0018500D01*
X0178500Y0018500D01*
X0171000Y0026000D01*
X0184125Y0032875D02*
X0191000Y0026000D01*
X0184125Y0032875D02*
X0184125Y0089125D01*
X0184437Y0089437D01*
X0161000Y0106000D02*
X0131000Y0076000D01*
X0131000Y0026000D01*
X0131000Y0018500D01*
X0109125Y0018500D01*
X0104750Y0022875D01*
X0104750Y0037250D01*
X0071000Y0071000D01*
X0106625Y0061000D02*
X0106625Y0030375D01*
X0111000Y0026000D01*
X0111000Y0071000D02*
X0111000Y0101000D01*
X0111000Y0131000D01*
X0111000Y0136000D01*
X0071000Y0191000D02*
X0038500Y0158500D01*
X0038500Y0103500D01*
X0031000Y0096000D01*
X0031000Y0086000D02*
X0023812Y0078813D01*
X0023500Y0078500D01*
X0023500Y0073500D01*
X0031000Y0066000D01*
X0031000Y0206000D02*
X0023500Y0213500D01*
X0023500Y0258500D01*
X0031000Y0266000D01*
X0031000Y0286000D02*
X0110375Y0286000D01*
X0110375Y0281000D01*
X0111000Y0281000D01*
X0106625Y0276625D01*
X0106625Y0225375D01*
X0111000Y0251000D02*
X0142875Y0282875D01*
X0142875Y0292250D01*
X0151000Y0300375D01*
X0151400Y0300800D01*
X0192250Y0292250D02*
X0200375Y0300375D01*
X0200600Y0300800D01*
X0192250Y0292250D02*
X0192250Y0237250D01*
X0161000Y0206000D01*
X0191000Y0196000D02*
X0241000Y0246000D01*
X0241000Y0259125D01*
X0249750Y0255375D02*
X0256000Y0249125D01*
X0256000Y0246000D01*
X0256000Y0217875D01*
X0252250Y0224750D02*
X0251000Y0226000D01*
X0246000Y0246000D02*
X0246000Y0201000D01*
X0231000Y0186000D02*
X0231000Y0161000D01*
X0231000Y0136000D01*
X0231000Y0111000D01*
X0260375Y0099125D02*
X0260375Y0095375D01*
X0251000Y0086000D01*
X0251000Y0056000D01*
X0251000Y0017875D01*
X0287875Y0017875D01*
X0296000Y0026000D01*
X0286000Y0026000D02*
X0331000Y0071000D01*
X0356000Y0071000D01*
X0356000Y0071157D01*
X0356000Y0090843D02*
X0356000Y0091000D01*
X0347562Y0099437D01*
X0347250Y0099125D01*
X0260375Y0099125D01*
X0241000Y0082875D02*
X0241000Y0056000D01*
X0291000Y0111000D02*
X0306000Y0126000D01*
X0306000Y0246000D01*
X0341000Y0246000D01*
X0361000Y0266000D01*
X0301000Y0226000D02*
X0301000Y0146000D01*
X0291000Y0136000D01*
X0321000Y0136000D02*
X0321000Y0111000D01*
X0347250Y0099750D02*
X0347250Y0141625D01*
X0356000Y0150375D01*
X0356000Y0150843D01*
X0321000Y0161000D02*
X0321000Y0136000D01*
X0321000Y0161000D02*
X0321000Y0186000D01*
X0284125Y0179125D02*
X0279750Y0174750D01*
X0276000Y0246000D02*
X0273500Y0248500D01*
X0273500Y0288500D01*
X0271000Y0291000D01*
X0266000Y0266000D02*
X0256625Y0266000D01*
X0266000Y0266000D02*
X0266000Y0246000D01*
X0361000Y0206000D02*
X0361000Y0196000D01*
X0347250Y0099750D02*
X0347562Y0099437D01*
D20*
X0267875Y0154750D03*
X0279750Y0174750D03*
X0291000Y0177875D03*
X0256000Y0217875D03*
X0246000Y0201000D03*
X0249750Y0255375D03*
X0241000Y0259125D03*
X0184125Y0151000D03*
M02*
