G75*
%MOIN*%
%OFA0B0*%
%FSLAX25Y25*%
%IPPOS*%
%LPD*%
%AMOC8*
5,1,8,0,0,1.08239X$1,22.5*
%
%ADD10C,0.07850*%
%ADD11C,0.06737*%
%ADD12OC8,0.07100*%
%ADD13C,0.07100*%
%ADD14OC8,0.06000*%
%ADD15C,0.06000*%
%ADD16C,0.07400*%
%ADD17C,0.13800*%
%ADD18C,0.07900*%
%ADD19C,0.07887*%
%ADD20C,0.06800*%
%ADD21C,0.13398*%
%ADD22C,0.04800*%
D10*
X0147875Y0281200D02*
X0154925Y0281200D01*
X0154925Y0300800D02*
X0147875Y0300800D01*
X0197075Y0300800D02*
X0204125Y0300800D01*
X0204125Y0281200D02*
X0197075Y0281200D01*
X0352475Y0150843D02*
X0359525Y0150843D01*
X0359525Y0131157D02*
X0352475Y0131157D01*
X0352475Y0090843D02*
X0359525Y0090843D01*
X0359525Y0071157D02*
X0352475Y0071157D01*
D11*
X0358031Y0186000D02*
X0363969Y0186000D01*
X0363969Y0196000D02*
X0358031Y0196000D01*
X0358031Y0206000D02*
X0363969Y0206000D01*
X0363969Y0236000D02*
X0358031Y0236000D01*
X0358031Y0246000D02*
X0363969Y0246000D01*
X0363969Y0256000D02*
X0358031Y0256000D01*
X0358031Y0266000D02*
X0363969Y0266000D01*
X0201000Y0028969D02*
X0201000Y0023031D01*
X0191000Y0023031D02*
X0191000Y0028969D01*
X0181000Y0028969D02*
X0181000Y0023031D01*
X0171000Y0023031D02*
X0171000Y0028969D01*
X0141000Y0028969D02*
X0141000Y0023031D01*
X0131000Y0023031D02*
X0131000Y0028969D01*
X0121000Y0028969D02*
X0121000Y0023031D01*
X0111000Y0023031D02*
X0111000Y0028969D01*
X0033969Y0066000D02*
X0028031Y0066000D01*
X0028031Y0076000D02*
X0033969Y0076000D01*
X0033969Y0086000D02*
X0028031Y0086000D01*
X0028031Y0096000D02*
X0033969Y0096000D01*
X0033969Y0126000D02*
X0028031Y0126000D01*
X0028031Y0136000D02*
X0033969Y0136000D01*
X0033969Y0146000D02*
X0028031Y0146000D01*
X0028031Y0156000D02*
X0033969Y0156000D01*
X0033969Y0236000D02*
X0028031Y0236000D01*
X0028031Y0246000D02*
X0033969Y0246000D01*
X0033969Y0256000D02*
X0028031Y0256000D01*
X0028031Y0266000D02*
X0033969Y0266000D01*
X0033969Y0276000D02*
X0028031Y0276000D01*
X0028031Y0286000D02*
X0033969Y0286000D01*
D12*
X0251000Y0086000D03*
D13*
X0241000Y0086000D03*
D14*
X0241000Y0056000D03*
X0251000Y0056000D03*
X0111000Y0071000D03*
X0111000Y0101000D03*
X0111000Y0131000D03*
X0111000Y0161000D03*
X0111000Y0191000D03*
X0111000Y0221000D03*
X0111000Y0251000D03*
X0111000Y0281000D03*
X0071000Y0281000D03*
X0071000Y0251000D03*
X0071000Y0221000D03*
X0071000Y0191000D03*
X0041000Y0196000D03*
X0031000Y0206000D03*
X0021000Y0196000D03*
X0071000Y0161000D03*
X0071000Y0131000D03*
X0071000Y0101000D03*
X0071000Y0071000D03*
X0171000Y0236000D03*
X0181000Y0236000D03*
D15*
X0188400Y0206000D02*
X0193600Y0206000D01*
X0193600Y0196000D02*
X0188400Y0196000D01*
X0188400Y0186000D02*
X0193600Y0186000D01*
X0193600Y0176000D02*
X0188400Y0176000D01*
X0188400Y0166000D02*
X0193600Y0166000D01*
X0193600Y0156000D02*
X0188400Y0156000D01*
X0188400Y0146000D02*
X0193600Y0146000D01*
X0193600Y0136000D02*
X0188400Y0136000D01*
X0188400Y0126000D02*
X0193600Y0126000D01*
X0193600Y0116000D02*
X0188400Y0116000D01*
X0188400Y0106000D02*
X0193600Y0106000D01*
X0193600Y0096000D02*
X0188400Y0096000D01*
X0188400Y0086000D02*
X0193600Y0086000D01*
X0193600Y0076000D02*
X0188400Y0076000D01*
X0163600Y0076000D02*
X0158400Y0076000D01*
X0158400Y0086000D02*
X0163600Y0086000D01*
X0163600Y0096000D02*
X0158400Y0096000D01*
X0158400Y0106000D02*
X0163600Y0106000D01*
X0163600Y0116000D02*
X0158400Y0116000D01*
X0158400Y0126000D02*
X0163600Y0126000D01*
X0163600Y0136000D02*
X0158400Y0136000D01*
X0158400Y0146000D02*
X0163600Y0146000D01*
X0163600Y0156000D02*
X0158400Y0156000D01*
X0158400Y0166000D02*
X0163600Y0166000D01*
X0163600Y0176000D02*
X0158400Y0176000D01*
X0158400Y0186000D02*
X0163600Y0186000D01*
X0163600Y0196000D02*
X0158400Y0196000D01*
X0158400Y0206000D02*
X0163600Y0206000D01*
X0228400Y0186000D02*
X0233600Y0186000D01*
X0258400Y0186000D02*
X0263600Y0186000D01*
X0288400Y0186000D02*
X0293600Y0186000D01*
X0318400Y0186000D02*
X0323600Y0186000D01*
X0323600Y0161000D02*
X0318400Y0161000D01*
X0293600Y0161000D02*
X0288400Y0161000D01*
X0263600Y0161000D02*
X0258400Y0161000D01*
X0233600Y0161000D02*
X0228400Y0161000D01*
X0228400Y0136000D02*
X0233600Y0136000D01*
X0258400Y0136000D02*
X0263600Y0136000D01*
X0288400Y0136000D02*
X0293600Y0136000D01*
X0318400Y0136000D02*
X0323600Y0136000D01*
X0323600Y0111000D02*
X0318400Y0111000D01*
X0293600Y0111000D02*
X0288400Y0111000D01*
X0263600Y0111000D02*
X0258400Y0111000D01*
X0233600Y0111000D02*
X0228400Y0111000D01*
D16*
X0286000Y0029300D02*
X0286000Y0022700D01*
X0296000Y0022700D02*
X0296000Y0029300D01*
X0306000Y0029300D02*
X0306000Y0022700D01*
D17*
X0296000Y0085000D03*
D18*
X0176000Y0273300D03*
X0176000Y0308700D03*
D19*
X0246000Y0249543D02*
X0246000Y0242457D01*
X0256000Y0242457D02*
X0256000Y0249543D01*
X0266000Y0249543D02*
X0266000Y0242457D01*
X0276000Y0242457D02*
X0276000Y0249543D01*
X0286000Y0249543D02*
X0286000Y0242457D01*
X0296000Y0242457D02*
X0296000Y0249543D01*
X0306000Y0249543D02*
X0306000Y0242457D01*
X0301000Y0229543D02*
X0301000Y0222457D01*
X0311000Y0222457D02*
X0311000Y0229543D01*
X0291000Y0229543D02*
X0291000Y0222457D01*
X0281000Y0222457D02*
X0281000Y0229543D01*
X0271000Y0229543D02*
X0271000Y0222457D01*
X0261000Y0222457D02*
X0261000Y0229543D01*
X0251000Y0229543D02*
X0251000Y0222457D01*
X0241000Y0222457D02*
X0241000Y0229543D01*
D20*
X0251000Y0288000D02*
X0251000Y0294000D01*
X0261000Y0294000D02*
X0261000Y0288000D01*
X0271000Y0288000D02*
X0271000Y0294000D01*
X0281000Y0294000D02*
X0281000Y0288000D01*
X0291000Y0288000D02*
X0291000Y0294000D01*
X0301000Y0294000D02*
X0301000Y0288000D01*
D21*
X0031000Y0031000D03*
X0031000Y0321000D03*
X0361000Y0321000D03*
X0361000Y0031000D03*
D22*
X0267875Y0154750D03*
X0279750Y0174750D03*
X0291000Y0177875D03*
X0256000Y0217875D03*
X0246000Y0201000D03*
X0249750Y0255375D03*
X0241000Y0259125D03*
X0184125Y0151000D03*
M02*
