G75*
%MOIN*%
%OFA0B0*%
%FSLAX25Y25*%
%IPPOS*%
%LPD*%
%AMOC8*
5,1,8,0,0,1.08239X$1,22.5*
%
%ADD10C,0.07050*%
%ADD11C,0.05937*%
%ADD12OC8,0.06300*%
%ADD13C,0.06300*%
%ADD14OC8,0.05200*%
%ADD15C,0.05200*%
%ADD16C,0.06600*%
%ADD17C,0.06000*%
%ADD18C,0.07087*%
%ADD19C,0.00600*%
%ADD20C,0.02400*%
%ADD21C,0.01600*%
%ADD22C,0.03200*%
%ADD23C,0.02400*%
D10*
X0203157Y0024475D02*
X0203157Y0031525D01*
X0222843Y0031525D02*
X0222843Y0024475D01*
X0313157Y0024475D02*
X0313157Y0031525D01*
X0332843Y0031525D02*
X0332843Y0024475D01*
D11*
X0053000Y0025969D02*
X0053000Y0020031D01*
X0063000Y0020031D02*
X0063000Y0025969D01*
X0073000Y0025969D02*
X0073000Y0020031D01*
X0083000Y0020031D02*
X0083000Y0025969D01*
X0103000Y0025969D02*
X0103000Y0020031D01*
X0113000Y0020031D02*
X0113000Y0025969D01*
X0123000Y0025969D02*
X0123000Y0020031D01*
X0143000Y0020031D02*
X0143000Y0025969D01*
X0153000Y0025969D02*
X0153000Y0020031D01*
X0163000Y0020031D02*
X0163000Y0025969D01*
X0173000Y0025969D02*
X0173000Y0020031D01*
X0025969Y0078000D02*
X0020031Y0078000D01*
X0020031Y0088000D02*
X0025969Y0088000D01*
X0025969Y0098000D02*
X0020031Y0098000D01*
X0020031Y0108000D02*
X0025969Y0108000D01*
X0025969Y0128000D02*
X0020031Y0128000D01*
X0020031Y0138000D02*
X0025969Y0138000D01*
X0025969Y0148000D02*
X0020031Y0148000D01*
X0020031Y0158000D02*
X0025969Y0158000D01*
X0380031Y0153000D02*
X0385969Y0153000D01*
X0385969Y0143000D02*
X0380031Y0143000D01*
X0380031Y0133000D02*
X0385969Y0133000D01*
X0385969Y0123000D02*
X0380031Y0123000D01*
X0380031Y0113000D02*
X0385969Y0113000D01*
X0385969Y0103000D02*
X0380031Y0103000D01*
X0380031Y0083000D02*
X0385969Y0083000D01*
X0385969Y0073000D02*
X0380031Y0073000D01*
X0380031Y0063000D02*
X0385969Y0063000D01*
X0385969Y0053000D02*
X0380031Y0053000D01*
D12*
X0318000Y0073000D03*
D13*
X0308000Y0073000D03*
D14*
X0298000Y0103000D03*
X0288000Y0103000D03*
X0263000Y0103000D03*
X0253000Y0103000D03*
X0278000Y0138000D03*
X0288000Y0148000D03*
X0298000Y0138000D03*
X0303000Y0168000D03*
X0273000Y0168000D03*
X0273000Y0188000D03*
X0303000Y0188000D03*
X0083000Y0188000D03*
X0053000Y0188000D03*
X0053000Y0168000D03*
X0083000Y0168000D03*
X0083000Y0148000D03*
X0053000Y0148000D03*
X0053000Y0128000D03*
X0083000Y0128000D03*
X0083000Y0108000D03*
X0053000Y0108000D03*
X0053000Y0088000D03*
X0083000Y0088000D03*
X0083000Y0068000D03*
X0053000Y0068000D03*
X0023000Y0063000D03*
X0023000Y0053000D03*
X0053000Y0048000D03*
X0083000Y0048000D03*
D15*
X0105400Y0053000D02*
X0110600Y0053000D01*
X0110600Y0063000D02*
X0105400Y0063000D01*
X0105400Y0073000D02*
X0110600Y0073000D01*
X0110600Y0083000D02*
X0105400Y0083000D01*
X0105400Y0093000D02*
X0110600Y0093000D01*
X0110600Y0103000D02*
X0105400Y0103000D01*
X0105400Y0113000D02*
X0110600Y0113000D01*
X0110600Y0123000D02*
X0105400Y0123000D01*
X0105400Y0133000D02*
X0110600Y0133000D01*
X0110600Y0143000D02*
X0105400Y0143000D01*
X0105400Y0153000D02*
X0110600Y0153000D01*
X0110600Y0163000D02*
X0105400Y0163000D01*
X0105400Y0173000D02*
X0110600Y0173000D01*
X0110600Y0183000D02*
X0105400Y0183000D01*
X0135400Y0183000D02*
X0140600Y0183000D01*
X0140600Y0173000D02*
X0135400Y0173000D01*
X0135400Y0163000D02*
X0140600Y0163000D01*
X0140600Y0153000D02*
X0135400Y0153000D01*
X0135400Y0143000D02*
X0140600Y0143000D01*
X0140600Y0133000D02*
X0135400Y0133000D01*
X0135400Y0123000D02*
X0140600Y0123000D01*
X0140600Y0113000D02*
X0135400Y0113000D01*
X0135400Y0103000D02*
X0140600Y0103000D01*
X0140600Y0093000D02*
X0135400Y0093000D01*
X0135400Y0083000D02*
X0140600Y0083000D01*
X0140600Y0073000D02*
X0135400Y0073000D01*
X0135400Y0063000D02*
X0140600Y0063000D01*
X0140600Y0053000D02*
X0135400Y0053000D01*
X0165400Y0123000D02*
X0170600Y0123000D01*
X0195400Y0123000D02*
X0200600Y0123000D01*
X0220400Y0123000D02*
X0225600Y0123000D01*
X0250400Y0123000D02*
X0255600Y0123000D01*
X0255600Y0143000D02*
X0250400Y0143000D01*
X0225600Y0143000D02*
X0220400Y0143000D01*
X0200600Y0143000D02*
X0195400Y0143000D01*
X0170600Y0143000D02*
X0165400Y0143000D01*
X0165400Y0163000D02*
X0170600Y0163000D01*
X0195400Y0163000D02*
X0200600Y0163000D01*
X0220400Y0163000D02*
X0225600Y0163000D01*
X0250400Y0163000D02*
X0255600Y0163000D01*
X0255600Y0183000D02*
X0250400Y0183000D01*
X0225600Y0183000D02*
X0220400Y0183000D01*
X0200600Y0183000D02*
X0195400Y0183000D01*
X0170600Y0183000D02*
X0165400Y0183000D01*
D16*
X0253000Y0021300D02*
X0253000Y0014700D01*
X0263000Y0014700D02*
X0263000Y0021300D01*
X0273000Y0021300D02*
X0273000Y0014700D01*
D17*
X0320000Y0103000D02*
X0326000Y0103000D01*
X0326000Y0113000D02*
X0320000Y0113000D01*
X0320000Y0123000D02*
X0326000Y0123000D01*
X0326000Y0133000D02*
X0320000Y0133000D01*
X0320000Y0143000D02*
X0326000Y0143000D01*
X0326000Y0153000D02*
X0320000Y0153000D01*
X0317200Y0174100D02*
X0323200Y0174100D01*
X0342800Y0174100D02*
X0348800Y0174100D01*
X0348800Y0191900D02*
X0342800Y0191900D01*
X0323200Y0191900D02*
X0317200Y0191900D01*
D18*
X0233000Y0096543D02*
X0233000Y0089457D01*
X0223000Y0089457D02*
X0223000Y0096543D01*
X0213000Y0096543D02*
X0213000Y0089457D01*
X0203000Y0089457D02*
X0203000Y0096543D01*
X0193000Y0096543D02*
X0193000Y0089457D01*
X0183000Y0089457D02*
X0183000Y0096543D01*
X0173000Y0096543D02*
X0173000Y0089457D01*
X0163000Y0089457D02*
X0163000Y0096543D01*
X0168000Y0076543D02*
X0168000Y0069457D01*
X0178000Y0069457D02*
X0178000Y0076543D01*
X0188000Y0076543D02*
X0188000Y0069457D01*
X0198000Y0069457D02*
X0198000Y0076543D01*
X0208000Y0076543D02*
X0208000Y0069457D01*
X0218000Y0069457D02*
X0218000Y0076543D01*
X0228000Y0076543D02*
X0228000Y0069457D01*
D19*
X0224250Y0084250D02*
X0233000Y0093000D01*
X0224250Y0084250D02*
X0171750Y0084250D01*
X0163000Y0093000D01*
X0146750Y0101750D02*
X0194250Y0101750D01*
X0203000Y0093000D01*
X0213000Y0093000D02*
X0203000Y0103000D01*
X0138000Y0103000D01*
X0146750Y0101750D02*
X0138000Y0093000D01*
X0138000Y0083000D02*
X0178000Y0083000D01*
X0188000Y0073000D01*
X0178000Y0073000D02*
X0169250Y0081750D01*
X0146750Y0081750D01*
X0138000Y0073000D01*
X0108000Y0073000D02*
X0058000Y0073000D01*
X0053000Y0068000D01*
X0058000Y0083000D02*
X0108000Y0083000D01*
X0083000Y0088000D02*
X0083000Y0108000D01*
X0103000Y0108000D01*
X0108000Y0113000D01*
X0108000Y0123000D02*
X0038000Y0123000D01*
X0023000Y0108000D01*
X0023000Y0098000D02*
X0030500Y0093000D01*
X0030500Y0085500D01*
X0023000Y0078000D01*
X0023000Y0088000D02*
X0015500Y0095500D01*
X0015500Y0123000D01*
X0028000Y0123000D01*
X0053000Y0148000D01*
X0068000Y0133000D01*
X0108000Y0133000D01*
X0108000Y0143000D02*
X0129250Y0116750D01*
X0319250Y0116750D01*
X0323000Y0113000D01*
X0318000Y0118000D02*
X0323000Y0123000D01*
X0319250Y0128000D02*
X0369250Y0128000D01*
X0379250Y0118000D01*
X0386750Y0118000D01*
X0390500Y0114250D01*
X0390500Y0053000D01*
X0383000Y0053000D01*
X0379250Y0048000D02*
X0375500Y0051750D01*
X0375500Y0073000D01*
X0383000Y0073000D01*
X0379250Y0048000D02*
X0391750Y0048000D01*
X0391750Y0153000D01*
X0385500Y0159250D01*
X0144250Y0159250D01*
X0138000Y0153000D01*
X0148000Y0153000D02*
X0260500Y0153000D01*
X0285500Y0150500D02*
X0293000Y0158000D01*
X0378000Y0158000D01*
X0383000Y0153000D01*
X0358000Y0148000D02*
X0383000Y0123000D01*
X0383000Y0113000D02*
X0368000Y0098000D01*
X0338000Y0098000D01*
X0338000Y0023000D01*
X0334250Y0019250D01*
X0274250Y0019250D01*
X0273000Y0018000D01*
X0223000Y0028000D02*
X0222843Y0028000D01*
X0288000Y0093000D02*
X0308000Y0073000D01*
X0288000Y0093000D02*
X0288000Y0098000D01*
X0338000Y0098000D01*
X0358000Y0108000D02*
X0308000Y0108000D01*
X0303000Y0113000D01*
X0138000Y0113000D01*
X0130500Y0118000D02*
X0318000Y0118000D01*
X0310500Y0119250D02*
X0319250Y0128000D01*
X0323000Y0133000D02*
X0283000Y0133000D01*
X0278000Y0138000D01*
X0168000Y0138000D01*
X0165500Y0150500D02*
X0285500Y0150500D01*
X0288000Y0148000D02*
X0358000Y0148000D01*
X0323000Y0143000D02*
X0303000Y0143000D01*
X0298000Y0138000D01*
X0310500Y0119250D02*
X0131750Y0119250D01*
X0131750Y0126750D01*
X0138000Y0133000D01*
X0138000Y0123000D02*
X0165500Y0150500D01*
X0148000Y0153000D02*
X0138000Y0143000D01*
X0115500Y0145500D02*
X0130500Y0118000D01*
X0115500Y0145500D02*
X0108000Y0153000D01*
X0083000Y0148000D02*
X0083000Y0168000D01*
X0083000Y0176750D01*
X0134250Y0176750D01*
X0138000Y0173000D01*
X0168000Y0173000D01*
X0143000Y0188000D02*
X0273000Y0188000D01*
X0303000Y0188000D02*
X0306750Y0191750D01*
X0319250Y0191750D01*
X0320200Y0191900D01*
X0341750Y0196750D02*
X0345500Y0193000D01*
X0345800Y0191900D01*
X0341750Y0196750D02*
X0121750Y0196750D01*
X0108000Y0183000D01*
X0083000Y0188000D02*
X0083000Y0176750D01*
X0053000Y0181750D02*
X0046750Y0171750D01*
X0030500Y0150500D01*
X0030500Y0143000D01*
X0023000Y0138000D01*
X0015500Y0135500D02*
X0015500Y0143000D01*
X0023000Y0148000D01*
X0015500Y0135500D02*
X0023000Y0128000D01*
X0053000Y0108000D02*
X0053000Y0093000D01*
X0023000Y0063000D01*
X0023000Y0053000D02*
X0028000Y0048000D01*
X0053000Y0048000D01*
X0078000Y0048000D01*
X0103000Y0023000D01*
X0113000Y0023000D02*
X0123000Y0023000D01*
X0083000Y0023000D02*
X0075500Y0030500D01*
X0070500Y0030500D01*
X0063000Y0023000D01*
X0083000Y0048000D02*
X0088000Y0053000D01*
X0108000Y0053000D01*
X0058000Y0083000D02*
X0053000Y0088000D01*
X0218000Y0106750D02*
X0239250Y0106750D01*
X0251750Y0099250D01*
X0288000Y0099250D01*
X0288000Y0103000D01*
X0288000Y0099250D02*
X0288000Y0098000D01*
X0294250Y0106750D02*
X0298000Y0103000D01*
X0294250Y0106750D02*
X0266750Y0106750D01*
X0263000Y0103000D01*
X0273000Y0168000D02*
X0278000Y0173000D01*
X0319250Y0173000D01*
X0320200Y0174100D01*
X0143000Y0188000D02*
X0138000Y0183000D01*
X0053000Y0181750D02*
X0053000Y0188000D01*
X0331750Y0028000D02*
X0332843Y0028000D01*
D20*
X0239250Y0095500D03*
X0218000Y0106750D03*
X0260500Y0153000D03*
X0358000Y0108000D03*
D21*
X0318000Y0073000D02*
X0331750Y0058000D01*
X0331750Y0036750D01*
X0281750Y0036750D01*
X0263000Y0018000D01*
X0253000Y0028000D01*
X0223000Y0028000D01*
X0198000Y0073000D01*
X0173000Y0063000D02*
X0168000Y0073000D01*
X0173000Y0063000D02*
X0173000Y0023000D01*
X0163000Y0023000D02*
X0153000Y0044250D01*
X0133000Y0044250D01*
X0128000Y0048000D01*
X0121750Y0055500D01*
X0121750Y0096750D01*
X0128000Y0106750D01*
X0133000Y0108000D01*
X0188000Y0108000D01*
X0193000Y0106750D01*
X0214250Y0106750D01*
X0223000Y0093000D01*
X0239250Y0095500D02*
X0239250Y0083000D01*
X0228000Y0073000D01*
X0168000Y0123000D02*
X0168000Y0138000D01*
X0168000Y0143000D01*
X0168000Y0163000D02*
X0168000Y0173000D01*
X0168000Y0183000D01*
X0331750Y0036750D02*
X0331750Y0028000D01*
D22*
X0253000Y0163000D02*
X0253000Y0183000D01*
D23*
X0223000Y0183000D02*
X0198000Y0183000D01*
X0198000Y0163000D02*
X0223000Y0163000D01*
X0223000Y0143000D02*
X0198000Y0143000D01*
X0198000Y0123000D02*
X0223000Y0123000D01*
M02*
