%
M48
M72
T01C0.01200
T02C0.03200
T03C0.03937
T04C0.04000
T05C0.04400
T06C0.04700
T07C0.04724
T08C0.12598
%
T01
X21800Y10675
X23925Y9550
X26050Y15300
X35800Y10800
T02
X29800Y10300
X28800Y10300
X26300Y10300
X25300Y10300
X25300Y12300
X27800Y13800
X28800Y14800
X29800Y13800
X25300Y14300
X22300Y14300
X19800Y14300
X16800Y14300
X13800Y14300
X13800Y13300
X13800Y12300
X13800Y11300
X13800Y10300
X13800Y9300
X13800Y8300
X13800Y7300
X13800Y6300
X13800Y5300
X10800Y5300
X10800Y6300
X10800Y7300
X10800Y8300
X10800Y9300
X10800Y10300
X10800Y11300
X10800Y12300
X10800Y13300
X10800Y14300
X10800Y15300
X10800Y16300
X10800Y17300
X10800Y18300
X8300Y18800
X5300Y18800
X5300Y16800
X8300Y16800
X8300Y14800
X5300Y14800
X5300Y12800
X8300Y12800
X8300Y10800
X5300Y10800
X5300Y8800
X8300Y8800
X8300Y6800
X5300Y6800
X2300Y6300
X2300Y5300
X5300Y4800
X8300Y4800
X16800Y12300
X19800Y12300
X22300Y12300
X22300Y16300
X19800Y16300
X16800Y16300
X13800Y16300
X13800Y15300
X13800Y17300
X13800Y18300
X16800Y18300
X19800Y18300
X22300Y18300
X25300Y18300
X27300Y18800
X30300Y18800
X30300Y16800
X27300Y16800
X25300Y16300
X30800Y7300
X31800Y7300
T03
X38300Y7300
X38300Y6300
X38300Y5300
X38300Y8300
X38300Y10300
X38300Y11300
X38300Y12300
X38300Y13300
X38300Y14300
X38300Y15300
X17300Y2300
X16300Y2300
X15300Y2300
X14300Y2300
X12300Y2300
X11300Y2300
X10300Y2300
X8300Y2300
X7300Y2300
X6300Y2300
X5300Y2300
X2300Y7800
X2300Y8800
X2300Y9800
X2300Y10800
X2300Y12800
X2300Y13800
X2300Y14800
X2300Y15800
T04
X32020Y17410
X34580Y17410
X34580Y19190
X32020Y19190
X32300Y15300
X32300Y14300
X32300Y13300
X32300Y12300
X32300Y11300
X32300Y10300
T05
X27300Y1800
X26300Y1800
X25300Y1800
T06
X22284Y2800
X20316Y2800
X31316Y2800
X33284Y2800
T07
X22800Y7300
X21800Y7300
X20800Y7300
X19800Y7300
X18800Y7300
X17800Y7300
X16800Y7300
X16300Y9300
X17300Y9300
X18300Y9300
X19300Y9300
X20300Y9300
X21300Y9300
X22300Y9300
X23300Y9300
T08
X2800Y2800
X2800Y18300
X37800Y18300
X37800Y2800
M30
