G75*
%MOIN*%
%OFA0B0*%
%FSLAX25Y25*%
%IPPOS*%
%LPD*%
%AMOC8*
5,1,8,0,0,1.08239X$1,22.5*
%
%ADD10C,0.00000*%
%ADD11C,0.00600*%
%ADD12C,0.00500*%
%ADD13C,0.01000*%
%ADD14C,0.00400*%
%ADD15R,0.01500X0.07000*%
%ADD16R,0.05500X0.02000*%
%ADD17C,0.00200*%
%ADD18C,0.00700*%
%ADD19R,0.03000X0.02500*%
%ADD20R,0.05000X0.11000*%
%ADD21R,0.74606X0.06594*%
%ADD22C,0.01200*%
%ADD23C,0.00800*%
D10*
X0008000Y0008000D02*
X0008000Y0202961D01*
X0396701Y0202961D01*
X0396701Y0008000D01*
X0008000Y0008000D01*
X0021701Y0028000D02*
X0021703Y0028158D01*
X0021709Y0028316D01*
X0021719Y0028474D01*
X0021733Y0028632D01*
X0021751Y0028789D01*
X0021772Y0028946D01*
X0021798Y0029102D01*
X0021828Y0029258D01*
X0021861Y0029413D01*
X0021899Y0029566D01*
X0021940Y0029719D01*
X0021985Y0029871D01*
X0022034Y0030022D01*
X0022087Y0030171D01*
X0022143Y0030319D01*
X0022203Y0030465D01*
X0022267Y0030610D01*
X0022335Y0030753D01*
X0022406Y0030895D01*
X0022480Y0031035D01*
X0022558Y0031172D01*
X0022640Y0031308D01*
X0022724Y0031442D01*
X0022813Y0031573D01*
X0022904Y0031702D01*
X0022999Y0031829D01*
X0023096Y0031954D01*
X0023197Y0032076D01*
X0023301Y0032195D01*
X0023408Y0032312D01*
X0023518Y0032426D01*
X0023631Y0032537D01*
X0023746Y0032646D01*
X0023864Y0032751D01*
X0023985Y0032853D01*
X0024108Y0032953D01*
X0024234Y0033049D01*
X0024362Y0033142D01*
X0024492Y0033232D01*
X0024625Y0033318D01*
X0024760Y0033402D01*
X0024896Y0033481D01*
X0025035Y0033558D01*
X0025176Y0033630D01*
X0025318Y0033700D01*
X0025462Y0033765D01*
X0025608Y0033827D01*
X0025755Y0033885D01*
X0025904Y0033940D01*
X0026054Y0033991D01*
X0026205Y0034038D01*
X0026357Y0034081D01*
X0026510Y0034120D01*
X0026665Y0034156D01*
X0026820Y0034187D01*
X0026976Y0034215D01*
X0027132Y0034239D01*
X0027289Y0034259D01*
X0027447Y0034275D01*
X0027604Y0034287D01*
X0027763Y0034295D01*
X0027921Y0034299D01*
X0028079Y0034299D01*
X0028237Y0034295D01*
X0028396Y0034287D01*
X0028553Y0034275D01*
X0028711Y0034259D01*
X0028868Y0034239D01*
X0029024Y0034215D01*
X0029180Y0034187D01*
X0029335Y0034156D01*
X0029490Y0034120D01*
X0029643Y0034081D01*
X0029795Y0034038D01*
X0029946Y0033991D01*
X0030096Y0033940D01*
X0030245Y0033885D01*
X0030392Y0033827D01*
X0030538Y0033765D01*
X0030682Y0033700D01*
X0030824Y0033630D01*
X0030965Y0033558D01*
X0031104Y0033481D01*
X0031240Y0033402D01*
X0031375Y0033318D01*
X0031508Y0033232D01*
X0031638Y0033142D01*
X0031766Y0033049D01*
X0031892Y0032953D01*
X0032015Y0032853D01*
X0032136Y0032751D01*
X0032254Y0032646D01*
X0032369Y0032537D01*
X0032482Y0032426D01*
X0032592Y0032312D01*
X0032699Y0032195D01*
X0032803Y0032076D01*
X0032904Y0031954D01*
X0033001Y0031829D01*
X0033096Y0031702D01*
X0033187Y0031573D01*
X0033276Y0031442D01*
X0033360Y0031308D01*
X0033442Y0031172D01*
X0033520Y0031035D01*
X0033594Y0030895D01*
X0033665Y0030753D01*
X0033733Y0030610D01*
X0033797Y0030465D01*
X0033857Y0030319D01*
X0033913Y0030171D01*
X0033966Y0030022D01*
X0034015Y0029871D01*
X0034060Y0029719D01*
X0034101Y0029566D01*
X0034139Y0029413D01*
X0034172Y0029258D01*
X0034202Y0029102D01*
X0034228Y0028946D01*
X0034249Y0028789D01*
X0034267Y0028632D01*
X0034281Y0028474D01*
X0034291Y0028316D01*
X0034297Y0028158D01*
X0034299Y0028000D01*
X0034297Y0027842D01*
X0034291Y0027684D01*
X0034281Y0027526D01*
X0034267Y0027368D01*
X0034249Y0027211D01*
X0034228Y0027054D01*
X0034202Y0026898D01*
X0034172Y0026742D01*
X0034139Y0026587D01*
X0034101Y0026434D01*
X0034060Y0026281D01*
X0034015Y0026129D01*
X0033966Y0025978D01*
X0033913Y0025829D01*
X0033857Y0025681D01*
X0033797Y0025535D01*
X0033733Y0025390D01*
X0033665Y0025247D01*
X0033594Y0025105D01*
X0033520Y0024965D01*
X0033442Y0024828D01*
X0033360Y0024692D01*
X0033276Y0024558D01*
X0033187Y0024427D01*
X0033096Y0024298D01*
X0033001Y0024171D01*
X0032904Y0024046D01*
X0032803Y0023924D01*
X0032699Y0023805D01*
X0032592Y0023688D01*
X0032482Y0023574D01*
X0032369Y0023463D01*
X0032254Y0023354D01*
X0032136Y0023249D01*
X0032015Y0023147D01*
X0031892Y0023047D01*
X0031766Y0022951D01*
X0031638Y0022858D01*
X0031508Y0022768D01*
X0031375Y0022682D01*
X0031240Y0022598D01*
X0031104Y0022519D01*
X0030965Y0022442D01*
X0030824Y0022370D01*
X0030682Y0022300D01*
X0030538Y0022235D01*
X0030392Y0022173D01*
X0030245Y0022115D01*
X0030096Y0022060D01*
X0029946Y0022009D01*
X0029795Y0021962D01*
X0029643Y0021919D01*
X0029490Y0021880D01*
X0029335Y0021844D01*
X0029180Y0021813D01*
X0029024Y0021785D01*
X0028868Y0021761D01*
X0028711Y0021741D01*
X0028553Y0021725D01*
X0028396Y0021713D01*
X0028237Y0021705D01*
X0028079Y0021701D01*
X0027921Y0021701D01*
X0027763Y0021705D01*
X0027604Y0021713D01*
X0027447Y0021725D01*
X0027289Y0021741D01*
X0027132Y0021761D01*
X0026976Y0021785D01*
X0026820Y0021813D01*
X0026665Y0021844D01*
X0026510Y0021880D01*
X0026357Y0021919D01*
X0026205Y0021962D01*
X0026054Y0022009D01*
X0025904Y0022060D01*
X0025755Y0022115D01*
X0025608Y0022173D01*
X0025462Y0022235D01*
X0025318Y0022300D01*
X0025176Y0022370D01*
X0025035Y0022442D01*
X0024896Y0022519D01*
X0024760Y0022598D01*
X0024625Y0022682D01*
X0024492Y0022768D01*
X0024362Y0022858D01*
X0024234Y0022951D01*
X0024108Y0023047D01*
X0023985Y0023147D01*
X0023864Y0023249D01*
X0023746Y0023354D01*
X0023631Y0023463D01*
X0023518Y0023574D01*
X0023408Y0023688D01*
X0023301Y0023805D01*
X0023197Y0023924D01*
X0023096Y0024046D01*
X0022999Y0024171D01*
X0022904Y0024298D01*
X0022813Y0024427D01*
X0022724Y0024558D01*
X0022640Y0024692D01*
X0022558Y0024828D01*
X0022480Y0024965D01*
X0022406Y0025105D01*
X0022335Y0025247D01*
X0022267Y0025390D01*
X0022203Y0025535D01*
X0022143Y0025681D01*
X0022087Y0025829D01*
X0022034Y0025978D01*
X0021985Y0026129D01*
X0021940Y0026281D01*
X0021899Y0026434D01*
X0021861Y0026587D01*
X0021828Y0026742D01*
X0021798Y0026898D01*
X0021772Y0027054D01*
X0021751Y0027211D01*
X0021733Y0027368D01*
X0021719Y0027526D01*
X0021709Y0027684D01*
X0021703Y0027842D01*
X0021701Y0028000D01*
X0256500Y0077000D02*
X0256502Y0077161D01*
X0256508Y0077321D01*
X0256518Y0077482D01*
X0256532Y0077642D01*
X0256550Y0077802D01*
X0256571Y0077961D01*
X0256597Y0078120D01*
X0256627Y0078278D01*
X0256660Y0078435D01*
X0256698Y0078592D01*
X0256739Y0078747D01*
X0256784Y0078901D01*
X0256833Y0079054D01*
X0256886Y0079206D01*
X0256942Y0079357D01*
X0257003Y0079506D01*
X0257066Y0079654D01*
X0257134Y0079800D01*
X0257205Y0079944D01*
X0257279Y0080086D01*
X0257357Y0080227D01*
X0257439Y0080365D01*
X0257524Y0080502D01*
X0257612Y0080636D01*
X0257704Y0080768D01*
X0257799Y0080898D01*
X0257897Y0081026D01*
X0257998Y0081151D01*
X0258102Y0081273D01*
X0258209Y0081393D01*
X0258319Y0081510D01*
X0258432Y0081625D01*
X0258548Y0081736D01*
X0258667Y0081845D01*
X0258788Y0081950D01*
X0258912Y0082053D01*
X0259038Y0082153D01*
X0259166Y0082249D01*
X0259297Y0082342D01*
X0259431Y0082432D01*
X0259566Y0082519D01*
X0259704Y0082602D01*
X0259843Y0082682D01*
X0259985Y0082758D01*
X0260128Y0082831D01*
X0260273Y0082900D01*
X0260420Y0082966D01*
X0260568Y0083028D01*
X0260718Y0083086D01*
X0260869Y0083141D01*
X0261022Y0083192D01*
X0261176Y0083239D01*
X0261331Y0083282D01*
X0261487Y0083321D01*
X0261643Y0083357D01*
X0261801Y0083388D01*
X0261959Y0083416D01*
X0262118Y0083440D01*
X0262278Y0083460D01*
X0262438Y0083476D01*
X0262598Y0083488D01*
X0262759Y0083496D01*
X0262920Y0083500D01*
X0263080Y0083500D01*
X0263241Y0083496D01*
X0263402Y0083488D01*
X0263562Y0083476D01*
X0263722Y0083460D01*
X0263882Y0083440D01*
X0264041Y0083416D01*
X0264199Y0083388D01*
X0264357Y0083357D01*
X0264513Y0083321D01*
X0264669Y0083282D01*
X0264824Y0083239D01*
X0264978Y0083192D01*
X0265131Y0083141D01*
X0265282Y0083086D01*
X0265432Y0083028D01*
X0265580Y0082966D01*
X0265727Y0082900D01*
X0265872Y0082831D01*
X0266015Y0082758D01*
X0266157Y0082682D01*
X0266296Y0082602D01*
X0266434Y0082519D01*
X0266569Y0082432D01*
X0266703Y0082342D01*
X0266834Y0082249D01*
X0266962Y0082153D01*
X0267088Y0082053D01*
X0267212Y0081950D01*
X0267333Y0081845D01*
X0267452Y0081736D01*
X0267568Y0081625D01*
X0267681Y0081510D01*
X0267791Y0081393D01*
X0267898Y0081273D01*
X0268002Y0081151D01*
X0268103Y0081026D01*
X0268201Y0080898D01*
X0268296Y0080768D01*
X0268388Y0080636D01*
X0268476Y0080502D01*
X0268561Y0080365D01*
X0268643Y0080227D01*
X0268721Y0080086D01*
X0268795Y0079944D01*
X0268866Y0079800D01*
X0268934Y0079654D01*
X0268997Y0079506D01*
X0269058Y0079357D01*
X0269114Y0079206D01*
X0269167Y0079054D01*
X0269216Y0078901D01*
X0269261Y0078747D01*
X0269302Y0078592D01*
X0269340Y0078435D01*
X0269373Y0078278D01*
X0269403Y0078120D01*
X0269429Y0077961D01*
X0269450Y0077802D01*
X0269468Y0077642D01*
X0269482Y0077482D01*
X0269492Y0077321D01*
X0269498Y0077161D01*
X0269500Y0077000D01*
X0269498Y0076839D01*
X0269492Y0076679D01*
X0269482Y0076518D01*
X0269468Y0076358D01*
X0269450Y0076198D01*
X0269429Y0076039D01*
X0269403Y0075880D01*
X0269373Y0075722D01*
X0269340Y0075565D01*
X0269302Y0075408D01*
X0269261Y0075253D01*
X0269216Y0075099D01*
X0269167Y0074946D01*
X0269114Y0074794D01*
X0269058Y0074643D01*
X0268997Y0074494D01*
X0268934Y0074346D01*
X0268866Y0074200D01*
X0268795Y0074056D01*
X0268721Y0073914D01*
X0268643Y0073773D01*
X0268561Y0073635D01*
X0268476Y0073498D01*
X0268388Y0073364D01*
X0268296Y0073232D01*
X0268201Y0073102D01*
X0268103Y0072974D01*
X0268002Y0072849D01*
X0267898Y0072727D01*
X0267791Y0072607D01*
X0267681Y0072490D01*
X0267568Y0072375D01*
X0267452Y0072264D01*
X0267333Y0072155D01*
X0267212Y0072050D01*
X0267088Y0071947D01*
X0266962Y0071847D01*
X0266834Y0071751D01*
X0266703Y0071658D01*
X0266569Y0071568D01*
X0266434Y0071481D01*
X0266296Y0071398D01*
X0266157Y0071318D01*
X0266015Y0071242D01*
X0265872Y0071169D01*
X0265727Y0071100D01*
X0265580Y0071034D01*
X0265432Y0070972D01*
X0265282Y0070914D01*
X0265131Y0070859D01*
X0264978Y0070808D01*
X0264824Y0070761D01*
X0264669Y0070718D01*
X0264513Y0070679D01*
X0264357Y0070643D01*
X0264199Y0070612D01*
X0264041Y0070584D01*
X0263882Y0070560D01*
X0263722Y0070540D01*
X0263562Y0070524D01*
X0263402Y0070512D01*
X0263241Y0070504D01*
X0263080Y0070500D01*
X0262920Y0070500D01*
X0262759Y0070504D01*
X0262598Y0070512D01*
X0262438Y0070524D01*
X0262278Y0070540D01*
X0262118Y0070560D01*
X0261959Y0070584D01*
X0261801Y0070612D01*
X0261643Y0070643D01*
X0261487Y0070679D01*
X0261331Y0070718D01*
X0261176Y0070761D01*
X0261022Y0070808D01*
X0260869Y0070859D01*
X0260718Y0070914D01*
X0260568Y0070972D01*
X0260420Y0071034D01*
X0260273Y0071100D01*
X0260128Y0071169D01*
X0259985Y0071242D01*
X0259843Y0071318D01*
X0259704Y0071398D01*
X0259566Y0071481D01*
X0259431Y0071568D01*
X0259297Y0071658D01*
X0259166Y0071751D01*
X0259038Y0071847D01*
X0258912Y0071947D01*
X0258788Y0072050D01*
X0258667Y0072155D01*
X0258548Y0072264D01*
X0258432Y0072375D01*
X0258319Y0072490D01*
X0258209Y0072607D01*
X0258102Y0072727D01*
X0257998Y0072849D01*
X0257897Y0072974D01*
X0257799Y0073102D01*
X0257704Y0073232D01*
X0257612Y0073364D01*
X0257524Y0073498D01*
X0257439Y0073635D01*
X0257357Y0073773D01*
X0257279Y0073914D01*
X0257205Y0074056D01*
X0257134Y0074200D01*
X0257066Y0074346D01*
X0257003Y0074494D01*
X0256942Y0074643D01*
X0256886Y0074794D01*
X0256833Y0074946D01*
X0256784Y0075099D01*
X0256739Y0075253D01*
X0256698Y0075408D01*
X0256660Y0075565D01*
X0256627Y0075722D01*
X0256597Y0075880D01*
X0256571Y0076039D01*
X0256550Y0076198D01*
X0256532Y0076358D01*
X0256518Y0076518D01*
X0256508Y0076679D01*
X0256502Y0076839D01*
X0256500Y0077000D01*
X0371701Y0028000D02*
X0371703Y0028158D01*
X0371709Y0028316D01*
X0371719Y0028474D01*
X0371733Y0028632D01*
X0371751Y0028789D01*
X0371772Y0028946D01*
X0371798Y0029102D01*
X0371828Y0029258D01*
X0371861Y0029413D01*
X0371899Y0029566D01*
X0371940Y0029719D01*
X0371985Y0029871D01*
X0372034Y0030022D01*
X0372087Y0030171D01*
X0372143Y0030319D01*
X0372203Y0030465D01*
X0372267Y0030610D01*
X0372335Y0030753D01*
X0372406Y0030895D01*
X0372480Y0031035D01*
X0372558Y0031172D01*
X0372640Y0031308D01*
X0372724Y0031442D01*
X0372813Y0031573D01*
X0372904Y0031702D01*
X0372999Y0031829D01*
X0373096Y0031954D01*
X0373197Y0032076D01*
X0373301Y0032195D01*
X0373408Y0032312D01*
X0373518Y0032426D01*
X0373631Y0032537D01*
X0373746Y0032646D01*
X0373864Y0032751D01*
X0373985Y0032853D01*
X0374108Y0032953D01*
X0374234Y0033049D01*
X0374362Y0033142D01*
X0374492Y0033232D01*
X0374625Y0033318D01*
X0374760Y0033402D01*
X0374896Y0033481D01*
X0375035Y0033558D01*
X0375176Y0033630D01*
X0375318Y0033700D01*
X0375462Y0033765D01*
X0375608Y0033827D01*
X0375755Y0033885D01*
X0375904Y0033940D01*
X0376054Y0033991D01*
X0376205Y0034038D01*
X0376357Y0034081D01*
X0376510Y0034120D01*
X0376665Y0034156D01*
X0376820Y0034187D01*
X0376976Y0034215D01*
X0377132Y0034239D01*
X0377289Y0034259D01*
X0377447Y0034275D01*
X0377604Y0034287D01*
X0377763Y0034295D01*
X0377921Y0034299D01*
X0378079Y0034299D01*
X0378237Y0034295D01*
X0378396Y0034287D01*
X0378553Y0034275D01*
X0378711Y0034259D01*
X0378868Y0034239D01*
X0379024Y0034215D01*
X0379180Y0034187D01*
X0379335Y0034156D01*
X0379490Y0034120D01*
X0379643Y0034081D01*
X0379795Y0034038D01*
X0379946Y0033991D01*
X0380096Y0033940D01*
X0380245Y0033885D01*
X0380392Y0033827D01*
X0380538Y0033765D01*
X0380682Y0033700D01*
X0380824Y0033630D01*
X0380965Y0033558D01*
X0381104Y0033481D01*
X0381240Y0033402D01*
X0381375Y0033318D01*
X0381508Y0033232D01*
X0381638Y0033142D01*
X0381766Y0033049D01*
X0381892Y0032953D01*
X0382015Y0032853D01*
X0382136Y0032751D01*
X0382254Y0032646D01*
X0382369Y0032537D01*
X0382482Y0032426D01*
X0382592Y0032312D01*
X0382699Y0032195D01*
X0382803Y0032076D01*
X0382904Y0031954D01*
X0383001Y0031829D01*
X0383096Y0031702D01*
X0383187Y0031573D01*
X0383276Y0031442D01*
X0383360Y0031308D01*
X0383442Y0031172D01*
X0383520Y0031035D01*
X0383594Y0030895D01*
X0383665Y0030753D01*
X0383733Y0030610D01*
X0383797Y0030465D01*
X0383857Y0030319D01*
X0383913Y0030171D01*
X0383966Y0030022D01*
X0384015Y0029871D01*
X0384060Y0029719D01*
X0384101Y0029566D01*
X0384139Y0029413D01*
X0384172Y0029258D01*
X0384202Y0029102D01*
X0384228Y0028946D01*
X0384249Y0028789D01*
X0384267Y0028632D01*
X0384281Y0028474D01*
X0384291Y0028316D01*
X0384297Y0028158D01*
X0384299Y0028000D01*
X0384297Y0027842D01*
X0384291Y0027684D01*
X0384281Y0027526D01*
X0384267Y0027368D01*
X0384249Y0027211D01*
X0384228Y0027054D01*
X0384202Y0026898D01*
X0384172Y0026742D01*
X0384139Y0026587D01*
X0384101Y0026434D01*
X0384060Y0026281D01*
X0384015Y0026129D01*
X0383966Y0025978D01*
X0383913Y0025829D01*
X0383857Y0025681D01*
X0383797Y0025535D01*
X0383733Y0025390D01*
X0383665Y0025247D01*
X0383594Y0025105D01*
X0383520Y0024965D01*
X0383442Y0024828D01*
X0383360Y0024692D01*
X0383276Y0024558D01*
X0383187Y0024427D01*
X0383096Y0024298D01*
X0383001Y0024171D01*
X0382904Y0024046D01*
X0382803Y0023924D01*
X0382699Y0023805D01*
X0382592Y0023688D01*
X0382482Y0023574D01*
X0382369Y0023463D01*
X0382254Y0023354D01*
X0382136Y0023249D01*
X0382015Y0023147D01*
X0381892Y0023047D01*
X0381766Y0022951D01*
X0381638Y0022858D01*
X0381508Y0022768D01*
X0381375Y0022682D01*
X0381240Y0022598D01*
X0381104Y0022519D01*
X0380965Y0022442D01*
X0380824Y0022370D01*
X0380682Y0022300D01*
X0380538Y0022235D01*
X0380392Y0022173D01*
X0380245Y0022115D01*
X0380096Y0022060D01*
X0379946Y0022009D01*
X0379795Y0021962D01*
X0379643Y0021919D01*
X0379490Y0021880D01*
X0379335Y0021844D01*
X0379180Y0021813D01*
X0379024Y0021785D01*
X0378868Y0021761D01*
X0378711Y0021741D01*
X0378553Y0021725D01*
X0378396Y0021713D01*
X0378237Y0021705D01*
X0378079Y0021701D01*
X0377921Y0021701D01*
X0377763Y0021705D01*
X0377604Y0021713D01*
X0377447Y0021725D01*
X0377289Y0021741D01*
X0377132Y0021761D01*
X0376976Y0021785D01*
X0376820Y0021813D01*
X0376665Y0021844D01*
X0376510Y0021880D01*
X0376357Y0021919D01*
X0376205Y0021962D01*
X0376054Y0022009D01*
X0375904Y0022060D01*
X0375755Y0022115D01*
X0375608Y0022173D01*
X0375462Y0022235D01*
X0375318Y0022300D01*
X0375176Y0022370D01*
X0375035Y0022442D01*
X0374896Y0022519D01*
X0374760Y0022598D01*
X0374625Y0022682D01*
X0374492Y0022768D01*
X0374362Y0022858D01*
X0374234Y0022951D01*
X0374108Y0023047D01*
X0373985Y0023147D01*
X0373864Y0023249D01*
X0373746Y0023354D01*
X0373631Y0023463D01*
X0373518Y0023574D01*
X0373408Y0023688D01*
X0373301Y0023805D01*
X0373197Y0023924D01*
X0373096Y0024046D01*
X0372999Y0024171D01*
X0372904Y0024298D01*
X0372813Y0024427D01*
X0372724Y0024558D01*
X0372640Y0024692D01*
X0372558Y0024828D01*
X0372480Y0024965D01*
X0372406Y0025105D01*
X0372335Y0025247D01*
X0372267Y0025390D01*
X0372203Y0025535D01*
X0372143Y0025681D01*
X0372087Y0025829D01*
X0372034Y0025978D01*
X0371985Y0026129D01*
X0371940Y0026281D01*
X0371899Y0026434D01*
X0371861Y0026587D01*
X0371828Y0026742D01*
X0371798Y0026898D01*
X0371772Y0027054D01*
X0371751Y0027211D01*
X0371733Y0027368D01*
X0371719Y0027526D01*
X0371709Y0027684D01*
X0371703Y0027842D01*
X0371701Y0028000D01*
X0371701Y0183000D02*
X0371703Y0183158D01*
X0371709Y0183316D01*
X0371719Y0183474D01*
X0371733Y0183632D01*
X0371751Y0183789D01*
X0371772Y0183946D01*
X0371798Y0184102D01*
X0371828Y0184258D01*
X0371861Y0184413D01*
X0371899Y0184566D01*
X0371940Y0184719D01*
X0371985Y0184871D01*
X0372034Y0185022D01*
X0372087Y0185171D01*
X0372143Y0185319D01*
X0372203Y0185465D01*
X0372267Y0185610D01*
X0372335Y0185753D01*
X0372406Y0185895D01*
X0372480Y0186035D01*
X0372558Y0186172D01*
X0372640Y0186308D01*
X0372724Y0186442D01*
X0372813Y0186573D01*
X0372904Y0186702D01*
X0372999Y0186829D01*
X0373096Y0186954D01*
X0373197Y0187076D01*
X0373301Y0187195D01*
X0373408Y0187312D01*
X0373518Y0187426D01*
X0373631Y0187537D01*
X0373746Y0187646D01*
X0373864Y0187751D01*
X0373985Y0187853D01*
X0374108Y0187953D01*
X0374234Y0188049D01*
X0374362Y0188142D01*
X0374492Y0188232D01*
X0374625Y0188318D01*
X0374760Y0188402D01*
X0374896Y0188481D01*
X0375035Y0188558D01*
X0375176Y0188630D01*
X0375318Y0188700D01*
X0375462Y0188765D01*
X0375608Y0188827D01*
X0375755Y0188885D01*
X0375904Y0188940D01*
X0376054Y0188991D01*
X0376205Y0189038D01*
X0376357Y0189081D01*
X0376510Y0189120D01*
X0376665Y0189156D01*
X0376820Y0189187D01*
X0376976Y0189215D01*
X0377132Y0189239D01*
X0377289Y0189259D01*
X0377447Y0189275D01*
X0377604Y0189287D01*
X0377763Y0189295D01*
X0377921Y0189299D01*
X0378079Y0189299D01*
X0378237Y0189295D01*
X0378396Y0189287D01*
X0378553Y0189275D01*
X0378711Y0189259D01*
X0378868Y0189239D01*
X0379024Y0189215D01*
X0379180Y0189187D01*
X0379335Y0189156D01*
X0379490Y0189120D01*
X0379643Y0189081D01*
X0379795Y0189038D01*
X0379946Y0188991D01*
X0380096Y0188940D01*
X0380245Y0188885D01*
X0380392Y0188827D01*
X0380538Y0188765D01*
X0380682Y0188700D01*
X0380824Y0188630D01*
X0380965Y0188558D01*
X0381104Y0188481D01*
X0381240Y0188402D01*
X0381375Y0188318D01*
X0381508Y0188232D01*
X0381638Y0188142D01*
X0381766Y0188049D01*
X0381892Y0187953D01*
X0382015Y0187853D01*
X0382136Y0187751D01*
X0382254Y0187646D01*
X0382369Y0187537D01*
X0382482Y0187426D01*
X0382592Y0187312D01*
X0382699Y0187195D01*
X0382803Y0187076D01*
X0382904Y0186954D01*
X0383001Y0186829D01*
X0383096Y0186702D01*
X0383187Y0186573D01*
X0383276Y0186442D01*
X0383360Y0186308D01*
X0383442Y0186172D01*
X0383520Y0186035D01*
X0383594Y0185895D01*
X0383665Y0185753D01*
X0383733Y0185610D01*
X0383797Y0185465D01*
X0383857Y0185319D01*
X0383913Y0185171D01*
X0383966Y0185022D01*
X0384015Y0184871D01*
X0384060Y0184719D01*
X0384101Y0184566D01*
X0384139Y0184413D01*
X0384172Y0184258D01*
X0384202Y0184102D01*
X0384228Y0183946D01*
X0384249Y0183789D01*
X0384267Y0183632D01*
X0384281Y0183474D01*
X0384291Y0183316D01*
X0384297Y0183158D01*
X0384299Y0183000D01*
X0384297Y0182842D01*
X0384291Y0182684D01*
X0384281Y0182526D01*
X0384267Y0182368D01*
X0384249Y0182211D01*
X0384228Y0182054D01*
X0384202Y0181898D01*
X0384172Y0181742D01*
X0384139Y0181587D01*
X0384101Y0181434D01*
X0384060Y0181281D01*
X0384015Y0181129D01*
X0383966Y0180978D01*
X0383913Y0180829D01*
X0383857Y0180681D01*
X0383797Y0180535D01*
X0383733Y0180390D01*
X0383665Y0180247D01*
X0383594Y0180105D01*
X0383520Y0179965D01*
X0383442Y0179828D01*
X0383360Y0179692D01*
X0383276Y0179558D01*
X0383187Y0179427D01*
X0383096Y0179298D01*
X0383001Y0179171D01*
X0382904Y0179046D01*
X0382803Y0178924D01*
X0382699Y0178805D01*
X0382592Y0178688D01*
X0382482Y0178574D01*
X0382369Y0178463D01*
X0382254Y0178354D01*
X0382136Y0178249D01*
X0382015Y0178147D01*
X0381892Y0178047D01*
X0381766Y0177951D01*
X0381638Y0177858D01*
X0381508Y0177768D01*
X0381375Y0177682D01*
X0381240Y0177598D01*
X0381104Y0177519D01*
X0380965Y0177442D01*
X0380824Y0177370D01*
X0380682Y0177300D01*
X0380538Y0177235D01*
X0380392Y0177173D01*
X0380245Y0177115D01*
X0380096Y0177060D01*
X0379946Y0177009D01*
X0379795Y0176962D01*
X0379643Y0176919D01*
X0379490Y0176880D01*
X0379335Y0176844D01*
X0379180Y0176813D01*
X0379024Y0176785D01*
X0378868Y0176761D01*
X0378711Y0176741D01*
X0378553Y0176725D01*
X0378396Y0176713D01*
X0378237Y0176705D01*
X0378079Y0176701D01*
X0377921Y0176701D01*
X0377763Y0176705D01*
X0377604Y0176713D01*
X0377447Y0176725D01*
X0377289Y0176741D01*
X0377132Y0176761D01*
X0376976Y0176785D01*
X0376820Y0176813D01*
X0376665Y0176844D01*
X0376510Y0176880D01*
X0376357Y0176919D01*
X0376205Y0176962D01*
X0376054Y0177009D01*
X0375904Y0177060D01*
X0375755Y0177115D01*
X0375608Y0177173D01*
X0375462Y0177235D01*
X0375318Y0177300D01*
X0375176Y0177370D01*
X0375035Y0177442D01*
X0374896Y0177519D01*
X0374760Y0177598D01*
X0374625Y0177682D01*
X0374492Y0177768D01*
X0374362Y0177858D01*
X0374234Y0177951D01*
X0374108Y0178047D01*
X0373985Y0178147D01*
X0373864Y0178249D01*
X0373746Y0178354D01*
X0373631Y0178463D01*
X0373518Y0178574D01*
X0373408Y0178688D01*
X0373301Y0178805D01*
X0373197Y0178924D01*
X0373096Y0179046D01*
X0372999Y0179171D01*
X0372904Y0179298D01*
X0372813Y0179427D01*
X0372724Y0179558D01*
X0372640Y0179692D01*
X0372558Y0179828D01*
X0372480Y0179965D01*
X0372406Y0180105D01*
X0372335Y0180247D01*
X0372267Y0180390D01*
X0372203Y0180535D01*
X0372143Y0180681D01*
X0372087Y0180829D01*
X0372034Y0180978D01*
X0371985Y0181129D01*
X0371940Y0181281D01*
X0371899Y0181434D01*
X0371861Y0181587D01*
X0371828Y0181742D01*
X0371798Y0181898D01*
X0371772Y0182054D01*
X0371751Y0182211D01*
X0371733Y0182368D01*
X0371719Y0182526D01*
X0371709Y0182684D01*
X0371703Y0182842D01*
X0371701Y0183000D01*
X0021701Y0183000D02*
X0021703Y0183158D01*
X0021709Y0183316D01*
X0021719Y0183474D01*
X0021733Y0183632D01*
X0021751Y0183789D01*
X0021772Y0183946D01*
X0021798Y0184102D01*
X0021828Y0184258D01*
X0021861Y0184413D01*
X0021899Y0184566D01*
X0021940Y0184719D01*
X0021985Y0184871D01*
X0022034Y0185022D01*
X0022087Y0185171D01*
X0022143Y0185319D01*
X0022203Y0185465D01*
X0022267Y0185610D01*
X0022335Y0185753D01*
X0022406Y0185895D01*
X0022480Y0186035D01*
X0022558Y0186172D01*
X0022640Y0186308D01*
X0022724Y0186442D01*
X0022813Y0186573D01*
X0022904Y0186702D01*
X0022999Y0186829D01*
X0023096Y0186954D01*
X0023197Y0187076D01*
X0023301Y0187195D01*
X0023408Y0187312D01*
X0023518Y0187426D01*
X0023631Y0187537D01*
X0023746Y0187646D01*
X0023864Y0187751D01*
X0023985Y0187853D01*
X0024108Y0187953D01*
X0024234Y0188049D01*
X0024362Y0188142D01*
X0024492Y0188232D01*
X0024625Y0188318D01*
X0024760Y0188402D01*
X0024896Y0188481D01*
X0025035Y0188558D01*
X0025176Y0188630D01*
X0025318Y0188700D01*
X0025462Y0188765D01*
X0025608Y0188827D01*
X0025755Y0188885D01*
X0025904Y0188940D01*
X0026054Y0188991D01*
X0026205Y0189038D01*
X0026357Y0189081D01*
X0026510Y0189120D01*
X0026665Y0189156D01*
X0026820Y0189187D01*
X0026976Y0189215D01*
X0027132Y0189239D01*
X0027289Y0189259D01*
X0027447Y0189275D01*
X0027604Y0189287D01*
X0027763Y0189295D01*
X0027921Y0189299D01*
X0028079Y0189299D01*
X0028237Y0189295D01*
X0028396Y0189287D01*
X0028553Y0189275D01*
X0028711Y0189259D01*
X0028868Y0189239D01*
X0029024Y0189215D01*
X0029180Y0189187D01*
X0029335Y0189156D01*
X0029490Y0189120D01*
X0029643Y0189081D01*
X0029795Y0189038D01*
X0029946Y0188991D01*
X0030096Y0188940D01*
X0030245Y0188885D01*
X0030392Y0188827D01*
X0030538Y0188765D01*
X0030682Y0188700D01*
X0030824Y0188630D01*
X0030965Y0188558D01*
X0031104Y0188481D01*
X0031240Y0188402D01*
X0031375Y0188318D01*
X0031508Y0188232D01*
X0031638Y0188142D01*
X0031766Y0188049D01*
X0031892Y0187953D01*
X0032015Y0187853D01*
X0032136Y0187751D01*
X0032254Y0187646D01*
X0032369Y0187537D01*
X0032482Y0187426D01*
X0032592Y0187312D01*
X0032699Y0187195D01*
X0032803Y0187076D01*
X0032904Y0186954D01*
X0033001Y0186829D01*
X0033096Y0186702D01*
X0033187Y0186573D01*
X0033276Y0186442D01*
X0033360Y0186308D01*
X0033442Y0186172D01*
X0033520Y0186035D01*
X0033594Y0185895D01*
X0033665Y0185753D01*
X0033733Y0185610D01*
X0033797Y0185465D01*
X0033857Y0185319D01*
X0033913Y0185171D01*
X0033966Y0185022D01*
X0034015Y0184871D01*
X0034060Y0184719D01*
X0034101Y0184566D01*
X0034139Y0184413D01*
X0034172Y0184258D01*
X0034202Y0184102D01*
X0034228Y0183946D01*
X0034249Y0183789D01*
X0034267Y0183632D01*
X0034281Y0183474D01*
X0034291Y0183316D01*
X0034297Y0183158D01*
X0034299Y0183000D01*
X0034297Y0182842D01*
X0034291Y0182684D01*
X0034281Y0182526D01*
X0034267Y0182368D01*
X0034249Y0182211D01*
X0034228Y0182054D01*
X0034202Y0181898D01*
X0034172Y0181742D01*
X0034139Y0181587D01*
X0034101Y0181434D01*
X0034060Y0181281D01*
X0034015Y0181129D01*
X0033966Y0180978D01*
X0033913Y0180829D01*
X0033857Y0180681D01*
X0033797Y0180535D01*
X0033733Y0180390D01*
X0033665Y0180247D01*
X0033594Y0180105D01*
X0033520Y0179965D01*
X0033442Y0179828D01*
X0033360Y0179692D01*
X0033276Y0179558D01*
X0033187Y0179427D01*
X0033096Y0179298D01*
X0033001Y0179171D01*
X0032904Y0179046D01*
X0032803Y0178924D01*
X0032699Y0178805D01*
X0032592Y0178688D01*
X0032482Y0178574D01*
X0032369Y0178463D01*
X0032254Y0178354D01*
X0032136Y0178249D01*
X0032015Y0178147D01*
X0031892Y0178047D01*
X0031766Y0177951D01*
X0031638Y0177858D01*
X0031508Y0177768D01*
X0031375Y0177682D01*
X0031240Y0177598D01*
X0031104Y0177519D01*
X0030965Y0177442D01*
X0030824Y0177370D01*
X0030682Y0177300D01*
X0030538Y0177235D01*
X0030392Y0177173D01*
X0030245Y0177115D01*
X0030096Y0177060D01*
X0029946Y0177009D01*
X0029795Y0176962D01*
X0029643Y0176919D01*
X0029490Y0176880D01*
X0029335Y0176844D01*
X0029180Y0176813D01*
X0029024Y0176785D01*
X0028868Y0176761D01*
X0028711Y0176741D01*
X0028553Y0176725D01*
X0028396Y0176713D01*
X0028237Y0176705D01*
X0028079Y0176701D01*
X0027921Y0176701D01*
X0027763Y0176705D01*
X0027604Y0176713D01*
X0027447Y0176725D01*
X0027289Y0176741D01*
X0027132Y0176761D01*
X0026976Y0176785D01*
X0026820Y0176813D01*
X0026665Y0176844D01*
X0026510Y0176880D01*
X0026357Y0176919D01*
X0026205Y0176962D01*
X0026054Y0177009D01*
X0025904Y0177060D01*
X0025755Y0177115D01*
X0025608Y0177173D01*
X0025462Y0177235D01*
X0025318Y0177300D01*
X0025176Y0177370D01*
X0025035Y0177442D01*
X0024896Y0177519D01*
X0024760Y0177598D01*
X0024625Y0177682D01*
X0024492Y0177768D01*
X0024362Y0177858D01*
X0024234Y0177951D01*
X0024108Y0178047D01*
X0023985Y0178147D01*
X0023864Y0178249D01*
X0023746Y0178354D01*
X0023631Y0178463D01*
X0023518Y0178574D01*
X0023408Y0178688D01*
X0023301Y0178805D01*
X0023197Y0178924D01*
X0023096Y0179046D01*
X0022999Y0179171D01*
X0022904Y0179298D01*
X0022813Y0179427D01*
X0022724Y0179558D01*
X0022640Y0179692D01*
X0022558Y0179828D01*
X0022480Y0179965D01*
X0022406Y0180105D01*
X0022335Y0180247D01*
X0022267Y0180390D01*
X0022203Y0180535D01*
X0022143Y0180681D01*
X0022087Y0180829D01*
X0022034Y0180978D01*
X0021985Y0181129D01*
X0021940Y0181281D01*
X0021899Y0181434D01*
X0021861Y0181587D01*
X0021828Y0181742D01*
X0021798Y0181898D01*
X0021772Y0182054D01*
X0021751Y0182211D01*
X0021733Y0182368D01*
X0021719Y0182526D01*
X0021709Y0182684D01*
X0021703Y0182842D01*
X0021701Y0183000D01*
D11*
X0014500Y0183000D02*
X0014504Y0183331D01*
X0014516Y0183662D01*
X0014537Y0183993D01*
X0014565Y0184323D01*
X0014602Y0184653D01*
X0014646Y0184981D01*
X0014699Y0185308D01*
X0014759Y0185634D01*
X0014828Y0185958D01*
X0014905Y0186280D01*
X0014989Y0186601D01*
X0015081Y0186919D01*
X0015181Y0187235D01*
X0015289Y0187548D01*
X0015405Y0187859D01*
X0015528Y0188166D01*
X0015658Y0188471D01*
X0015796Y0188772D01*
X0015941Y0189070D01*
X0016094Y0189364D01*
X0016254Y0189654D01*
X0016421Y0189940D01*
X0016594Y0190222D01*
X0016775Y0190500D01*
X0016963Y0190773D01*
X0017157Y0191042D01*
X0017357Y0191306D01*
X0017564Y0191564D01*
X0017778Y0191818D01*
X0017997Y0192066D01*
X0018223Y0192309D01*
X0018454Y0192546D01*
X0018691Y0192777D01*
X0018934Y0193003D01*
X0019182Y0193222D01*
X0019436Y0193436D01*
X0019694Y0193643D01*
X0019958Y0193843D01*
X0020227Y0194037D01*
X0020500Y0194225D01*
X0020778Y0194406D01*
X0021060Y0194579D01*
X0021346Y0194746D01*
X0021636Y0194906D01*
X0021930Y0195059D01*
X0022228Y0195204D01*
X0022529Y0195342D01*
X0022834Y0195472D01*
X0023141Y0195595D01*
X0023452Y0195711D01*
X0023765Y0195819D01*
X0024081Y0195919D01*
X0024399Y0196011D01*
X0024720Y0196095D01*
X0025042Y0196172D01*
X0025366Y0196241D01*
X0025692Y0196301D01*
X0026019Y0196354D01*
X0026347Y0196398D01*
X0026677Y0196435D01*
X0027007Y0196463D01*
X0027338Y0196484D01*
X0027669Y0196496D01*
X0028000Y0196500D01*
X0028331Y0196496D01*
X0028662Y0196484D01*
X0028993Y0196463D01*
X0029323Y0196435D01*
X0029653Y0196398D01*
X0029981Y0196354D01*
X0030308Y0196301D01*
X0030634Y0196241D01*
X0030958Y0196172D01*
X0031280Y0196095D01*
X0031601Y0196011D01*
X0031919Y0195919D01*
X0032235Y0195819D01*
X0032548Y0195711D01*
X0032859Y0195595D01*
X0033166Y0195472D01*
X0033471Y0195342D01*
X0033772Y0195204D01*
X0034070Y0195059D01*
X0034364Y0194906D01*
X0034654Y0194746D01*
X0034940Y0194579D01*
X0035222Y0194406D01*
X0035500Y0194225D01*
X0035773Y0194037D01*
X0036042Y0193843D01*
X0036306Y0193643D01*
X0036564Y0193436D01*
X0036818Y0193222D01*
X0037066Y0193003D01*
X0037309Y0192777D01*
X0037546Y0192546D01*
X0037777Y0192309D01*
X0038003Y0192066D01*
X0038222Y0191818D01*
X0038436Y0191564D01*
X0038643Y0191306D01*
X0038843Y0191042D01*
X0039037Y0190773D01*
X0039225Y0190500D01*
X0039406Y0190222D01*
X0039579Y0189940D01*
X0039746Y0189654D01*
X0039906Y0189364D01*
X0040059Y0189070D01*
X0040204Y0188772D01*
X0040342Y0188471D01*
X0040472Y0188166D01*
X0040595Y0187859D01*
X0040711Y0187548D01*
X0040819Y0187235D01*
X0040919Y0186919D01*
X0041011Y0186601D01*
X0041095Y0186280D01*
X0041172Y0185958D01*
X0041241Y0185634D01*
X0041301Y0185308D01*
X0041354Y0184981D01*
X0041398Y0184653D01*
X0041435Y0184323D01*
X0041463Y0183993D01*
X0041484Y0183662D01*
X0041496Y0183331D01*
X0041500Y0183000D01*
X0041496Y0182669D01*
X0041484Y0182338D01*
X0041463Y0182007D01*
X0041435Y0181677D01*
X0041398Y0181347D01*
X0041354Y0181019D01*
X0041301Y0180692D01*
X0041241Y0180366D01*
X0041172Y0180042D01*
X0041095Y0179720D01*
X0041011Y0179399D01*
X0040919Y0179081D01*
X0040819Y0178765D01*
X0040711Y0178452D01*
X0040595Y0178141D01*
X0040472Y0177834D01*
X0040342Y0177529D01*
X0040204Y0177228D01*
X0040059Y0176930D01*
X0039906Y0176636D01*
X0039746Y0176346D01*
X0039579Y0176060D01*
X0039406Y0175778D01*
X0039225Y0175500D01*
X0039037Y0175227D01*
X0038843Y0174958D01*
X0038643Y0174694D01*
X0038436Y0174436D01*
X0038222Y0174182D01*
X0038003Y0173934D01*
X0037777Y0173691D01*
X0037546Y0173454D01*
X0037309Y0173223D01*
X0037066Y0172997D01*
X0036818Y0172778D01*
X0036564Y0172564D01*
X0036306Y0172357D01*
X0036042Y0172157D01*
X0035773Y0171963D01*
X0035500Y0171775D01*
X0035222Y0171594D01*
X0034940Y0171421D01*
X0034654Y0171254D01*
X0034364Y0171094D01*
X0034070Y0170941D01*
X0033772Y0170796D01*
X0033471Y0170658D01*
X0033166Y0170528D01*
X0032859Y0170405D01*
X0032548Y0170289D01*
X0032235Y0170181D01*
X0031919Y0170081D01*
X0031601Y0169989D01*
X0031280Y0169905D01*
X0030958Y0169828D01*
X0030634Y0169759D01*
X0030308Y0169699D01*
X0029981Y0169646D01*
X0029653Y0169602D01*
X0029323Y0169565D01*
X0028993Y0169537D01*
X0028662Y0169516D01*
X0028331Y0169504D01*
X0028000Y0169500D01*
X0027669Y0169504D01*
X0027338Y0169516D01*
X0027007Y0169537D01*
X0026677Y0169565D01*
X0026347Y0169602D01*
X0026019Y0169646D01*
X0025692Y0169699D01*
X0025366Y0169759D01*
X0025042Y0169828D01*
X0024720Y0169905D01*
X0024399Y0169989D01*
X0024081Y0170081D01*
X0023765Y0170181D01*
X0023452Y0170289D01*
X0023141Y0170405D01*
X0022834Y0170528D01*
X0022529Y0170658D01*
X0022228Y0170796D01*
X0021930Y0170941D01*
X0021636Y0171094D01*
X0021346Y0171254D01*
X0021060Y0171421D01*
X0020778Y0171594D01*
X0020500Y0171775D01*
X0020227Y0171963D01*
X0019958Y0172157D01*
X0019694Y0172357D01*
X0019436Y0172564D01*
X0019182Y0172778D01*
X0018934Y0172997D01*
X0018691Y0173223D01*
X0018454Y0173454D01*
X0018223Y0173691D01*
X0017997Y0173934D01*
X0017778Y0174182D01*
X0017564Y0174436D01*
X0017357Y0174694D01*
X0017157Y0174958D01*
X0016963Y0175227D01*
X0016775Y0175500D01*
X0016594Y0175778D01*
X0016421Y0176060D01*
X0016254Y0176346D01*
X0016094Y0176636D01*
X0015941Y0176930D01*
X0015796Y0177228D01*
X0015658Y0177529D01*
X0015528Y0177834D01*
X0015405Y0178141D01*
X0015289Y0178452D01*
X0015181Y0178765D01*
X0015081Y0179081D01*
X0014989Y0179399D01*
X0014905Y0179720D01*
X0014828Y0180042D01*
X0014759Y0180366D01*
X0014699Y0180692D01*
X0014646Y0181019D01*
X0014602Y0181347D01*
X0014565Y0181677D01*
X0014537Y0182007D01*
X0014516Y0182338D01*
X0014504Y0182669D01*
X0014500Y0183000D01*
X0056500Y0183500D02*
X0058000Y0183500D01*
X0058500Y0184000D01*
X0077500Y0184000D01*
X0078000Y0183500D01*
X0079500Y0183500D01*
X0079560Y0183502D01*
X0079621Y0183507D01*
X0079680Y0183516D01*
X0079739Y0183529D01*
X0079798Y0183545D01*
X0079855Y0183565D01*
X0079910Y0183588D01*
X0079965Y0183615D01*
X0080017Y0183644D01*
X0080068Y0183677D01*
X0080117Y0183713D01*
X0080163Y0183751D01*
X0080207Y0183793D01*
X0080249Y0183837D01*
X0080287Y0183883D01*
X0080323Y0183932D01*
X0080356Y0183983D01*
X0080385Y0184035D01*
X0080412Y0184090D01*
X0080435Y0184145D01*
X0080455Y0184202D01*
X0080471Y0184261D01*
X0080484Y0184320D01*
X0080493Y0184379D01*
X0080498Y0184440D01*
X0080500Y0184500D01*
X0080500Y0191500D02*
X0080498Y0191560D01*
X0080493Y0191621D01*
X0080484Y0191680D01*
X0080471Y0191739D01*
X0080455Y0191798D01*
X0080435Y0191855D01*
X0080412Y0191910D01*
X0080385Y0191965D01*
X0080356Y0192017D01*
X0080323Y0192068D01*
X0080287Y0192117D01*
X0080249Y0192163D01*
X0080207Y0192207D01*
X0080163Y0192249D01*
X0080117Y0192287D01*
X0080068Y0192323D01*
X0080017Y0192356D01*
X0079965Y0192385D01*
X0079910Y0192412D01*
X0079855Y0192435D01*
X0079798Y0192455D01*
X0079739Y0192471D01*
X0079680Y0192484D01*
X0079621Y0192493D01*
X0079560Y0192498D01*
X0079500Y0192500D01*
X0078000Y0192500D01*
X0077500Y0192000D01*
X0058500Y0192000D01*
X0058000Y0192500D01*
X0056500Y0192500D01*
X0056440Y0192498D01*
X0056379Y0192493D01*
X0056320Y0192484D01*
X0056261Y0192471D01*
X0056202Y0192455D01*
X0056145Y0192435D01*
X0056090Y0192412D01*
X0056035Y0192385D01*
X0055983Y0192356D01*
X0055932Y0192323D01*
X0055883Y0192287D01*
X0055837Y0192249D01*
X0055793Y0192207D01*
X0055751Y0192163D01*
X0055713Y0192117D01*
X0055677Y0192068D01*
X0055644Y0192017D01*
X0055615Y0191965D01*
X0055588Y0191910D01*
X0055565Y0191855D01*
X0055545Y0191798D01*
X0055529Y0191739D01*
X0055516Y0191680D01*
X0055507Y0191621D01*
X0055502Y0191560D01*
X0055500Y0191500D01*
X0055500Y0184500D02*
X0055502Y0184440D01*
X0055507Y0184379D01*
X0055516Y0184320D01*
X0055529Y0184261D01*
X0055545Y0184202D01*
X0055565Y0184145D01*
X0055588Y0184090D01*
X0055615Y0184035D01*
X0055644Y0183983D01*
X0055677Y0183932D01*
X0055713Y0183883D01*
X0055751Y0183837D01*
X0055793Y0183793D01*
X0055837Y0183751D01*
X0055883Y0183713D01*
X0055932Y0183677D01*
X0055983Y0183644D01*
X0056035Y0183615D01*
X0056090Y0183588D01*
X0056145Y0183565D01*
X0056202Y0183545D01*
X0056261Y0183529D01*
X0056320Y0183516D01*
X0056379Y0183507D01*
X0056440Y0183502D01*
X0056500Y0183500D01*
X0056500Y0172500D02*
X0058000Y0172500D01*
X0058500Y0172000D01*
X0077500Y0172000D01*
X0078000Y0172500D01*
X0079500Y0172500D01*
X0079560Y0172498D01*
X0079621Y0172493D01*
X0079680Y0172484D01*
X0079739Y0172471D01*
X0079798Y0172455D01*
X0079855Y0172435D01*
X0079910Y0172412D01*
X0079965Y0172385D01*
X0080017Y0172356D01*
X0080068Y0172323D01*
X0080117Y0172287D01*
X0080163Y0172249D01*
X0080207Y0172207D01*
X0080249Y0172163D01*
X0080287Y0172117D01*
X0080323Y0172068D01*
X0080356Y0172017D01*
X0080385Y0171965D01*
X0080412Y0171910D01*
X0080435Y0171855D01*
X0080455Y0171798D01*
X0080471Y0171739D01*
X0080484Y0171680D01*
X0080493Y0171621D01*
X0080498Y0171560D01*
X0080500Y0171500D01*
X0080500Y0164500D02*
X0080498Y0164440D01*
X0080493Y0164379D01*
X0080484Y0164320D01*
X0080471Y0164261D01*
X0080455Y0164202D01*
X0080435Y0164145D01*
X0080412Y0164090D01*
X0080385Y0164035D01*
X0080356Y0163983D01*
X0080323Y0163932D01*
X0080287Y0163883D01*
X0080249Y0163837D01*
X0080207Y0163793D01*
X0080163Y0163751D01*
X0080117Y0163713D01*
X0080068Y0163677D01*
X0080017Y0163644D01*
X0079965Y0163615D01*
X0079910Y0163588D01*
X0079855Y0163565D01*
X0079798Y0163545D01*
X0079739Y0163529D01*
X0079680Y0163516D01*
X0079621Y0163507D01*
X0079560Y0163502D01*
X0079500Y0163500D01*
X0078000Y0163500D01*
X0077500Y0164000D01*
X0058500Y0164000D01*
X0058000Y0163500D01*
X0056500Y0163500D01*
X0056440Y0163502D01*
X0056379Y0163507D01*
X0056320Y0163516D01*
X0056261Y0163529D01*
X0056202Y0163545D01*
X0056145Y0163565D01*
X0056090Y0163588D01*
X0056035Y0163615D01*
X0055983Y0163644D01*
X0055932Y0163677D01*
X0055883Y0163713D01*
X0055837Y0163751D01*
X0055793Y0163793D01*
X0055751Y0163837D01*
X0055713Y0163883D01*
X0055677Y0163932D01*
X0055644Y0163983D01*
X0055615Y0164035D01*
X0055588Y0164090D01*
X0055565Y0164145D01*
X0055545Y0164202D01*
X0055529Y0164261D01*
X0055516Y0164320D01*
X0055507Y0164379D01*
X0055502Y0164440D01*
X0055500Y0164500D01*
X0055500Y0171500D02*
X0055502Y0171560D01*
X0055507Y0171621D01*
X0055516Y0171680D01*
X0055529Y0171739D01*
X0055545Y0171798D01*
X0055565Y0171855D01*
X0055588Y0171910D01*
X0055615Y0171965D01*
X0055644Y0172017D01*
X0055677Y0172068D01*
X0055713Y0172117D01*
X0055751Y0172163D01*
X0055793Y0172207D01*
X0055837Y0172249D01*
X0055883Y0172287D01*
X0055932Y0172323D01*
X0055983Y0172356D01*
X0056035Y0172385D01*
X0056090Y0172412D01*
X0056145Y0172435D01*
X0056202Y0172455D01*
X0056261Y0172471D01*
X0056320Y0172484D01*
X0056379Y0172493D01*
X0056440Y0172498D01*
X0056500Y0172500D01*
X0056500Y0152500D02*
X0058000Y0152500D01*
X0058500Y0152000D01*
X0077500Y0152000D01*
X0078000Y0152500D01*
X0079500Y0152500D01*
X0079560Y0152498D01*
X0079621Y0152493D01*
X0079680Y0152484D01*
X0079739Y0152471D01*
X0079798Y0152455D01*
X0079855Y0152435D01*
X0079910Y0152412D01*
X0079965Y0152385D01*
X0080017Y0152356D01*
X0080068Y0152323D01*
X0080117Y0152287D01*
X0080163Y0152249D01*
X0080207Y0152207D01*
X0080249Y0152163D01*
X0080287Y0152117D01*
X0080323Y0152068D01*
X0080356Y0152017D01*
X0080385Y0151965D01*
X0080412Y0151910D01*
X0080435Y0151855D01*
X0080455Y0151798D01*
X0080471Y0151739D01*
X0080484Y0151680D01*
X0080493Y0151621D01*
X0080498Y0151560D01*
X0080500Y0151500D01*
X0080500Y0144500D02*
X0080498Y0144440D01*
X0080493Y0144379D01*
X0080484Y0144320D01*
X0080471Y0144261D01*
X0080455Y0144202D01*
X0080435Y0144145D01*
X0080412Y0144090D01*
X0080385Y0144035D01*
X0080356Y0143983D01*
X0080323Y0143932D01*
X0080287Y0143883D01*
X0080249Y0143837D01*
X0080207Y0143793D01*
X0080163Y0143751D01*
X0080117Y0143713D01*
X0080068Y0143677D01*
X0080017Y0143644D01*
X0079965Y0143615D01*
X0079910Y0143588D01*
X0079855Y0143565D01*
X0079798Y0143545D01*
X0079739Y0143529D01*
X0079680Y0143516D01*
X0079621Y0143507D01*
X0079560Y0143502D01*
X0079500Y0143500D01*
X0078000Y0143500D01*
X0077500Y0144000D01*
X0058500Y0144000D01*
X0058000Y0143500D01*
X0056500Y0143500D01*
X0056440Y0143502D01*
X0056379Y0143507D01*
X0056320Y0143516D01*
X0056261Y0143529D01*
X0056202Y0143545D01*
X0056145Y0143565D01*
X0056090Y0143588D01*
X0056035Y0143615D01*
X0055983Y0143644D01*
X0055932Y0143677D01*
X0055883Y0143713D01*
X0055837Y0143751D01*
X0055793Y0143793D01*
X0055751Y0143837D01*
X0055713Y0143883D01*
X0055677Y0143932D01*
X0055644Y0143983D01*
X0055615Y0144035D01*
X0055588Y0144090D01*
X0055565Y0144145D01*
X0055545Y0144202D01*
X0055529Y0144261D01*
X0055516Y0144320D01*
X0055507Y0144379D01*
X0055502Y0144440D01*
X0055500Y0144500D01*
X0055500Y0151500D02*
X0055502Y0151560D01*
X0055507Y0151621D01*
X0055516Y0151680D01*
X0055529Y0151739D01*
X0055545Y0151798D01*
X0055565Y0151855D01*
X0055588Y0151910D01*
X0055615Y0151965D01*
X0055644Y0152017D01*
X0055677Y0152068D01*
X0055713Y0152117D01*
X0055751Y0152163D01*
X0055793Y0152207D01*
X0055837Y0152249D01*
X0055883Y0152287D01*
X0055932Y0152323D01*
X0055983Y0152356D01*
X0056035Y0152385D01*
X0056090Y0152412D01*
X0056145Y0152435D01*
X0056202Y0152455D01*
X0056261Y0152471D01*
X0056320Y0152484D01*
X0056379Y0152493D01*
X0056440Y0152498D01*
X0056500Y0152500D01*
X0056500Y0132500D02*
X0058000Y0132500D01*
X0058500Y0132000D01*
X0077500Y0132000D01*
X0078000Y0132500D01*
X0079500Y0132500D01*
X0079560Y0132498D01*
X0079621Y0132493D01*
X0079680Y0132484D01*
X0079739Y0132471D01*
X0079798Y0132455D01*
X0079855Y0132435D01*
X0079910Y0132412D01*
X0079965Y0132385D01*
X0080017Y0132356D01*
X0080068Y0132323D01*
X0080117Y0132287D01*
X0080163Y0132249D01*
X0080207Y0132207D01*
X0080249Y0132163D01*
X0080287Y0132117D01*
X0080323Y0132068D01*
X0080356Y0132017D01*
X0080385Y0131965D01*
X0080412Y0131910D01*
X0080435Y0131855D01*
X0080455Y0131798D01*
X0080471Y0131739D01*
X0080484Y0131680D01*
X0080493Y0131621D01*
X0080498Y0131560D01*
X0080500Y0131500D01*
X0080500Y0124500D02*
X0080498Y0124440D01*
X0080493Y0124379D01*
X0080484Y0124320D01*
X0080471Y0124261D01*
X0080455Y0124202D01*
X0080435Y0124145D01*
X0080412Y0124090D01*
X0080385Y0124035D01*
X0080356Y0123983D01*
X0080323Y0123932D01*
X0080287Y0123883D01*
X0080249Y0123837D01*
X0080207Y0123793D01*
X0080163Y0123751D01*
X0080117Y0123713D01*
X0080068Y0123677D01*
X0080017Y0123644D01*
X0079965Y0123615D01*
X0079910Y0123588D01*
X0079855Y0123565D01*
X0079798Y0123545D01*
X0079739Y0123529D01*
X0079680Y0123516D01*
X0079621Y0123507D01*
X0079560Y0123502D01*
X0079500Y0123500D01*
X0078000Y0123500D01*
X0077500Y0124000D01*
X0058500Y0124000D01*
X0058000Y0123500D01*
X0056500Y0123500D01*
X0056440Y0123502D01*
X0056379Y0123507D01*
X0056320Y0123516D01*
X0056261Y0123529D01*
X0056202Y0123545D01*
X0056145Y0123565D01*
X0056090Y0123588D01*
X0056035Y0123615D01*
X0055983Y0123644D01*
X0055932Y0123677D01*
X0055883Y0123713D01*
X0055837Y0123751D01*
X0055793Y0123793D01*
X0055751Y0123837D01*
X0055713Y0123883D01*
X0055677Y0123932D01*
X0055644Y0123983D01*
X0055615Y0124035D01*
X0055588Y0124090D01*
X0055565Y0124145D01*
X0055545Y0124202D01*
X0055529Y0124261D01*
X0055516Y0124320D01*
X0055507Y0124379D01*
X0055502Y0124440D01*
X0055500Y0124500D01*
X0055500Y0131500D02*
X0055502Y0131560D01*
X0055507Y0131621D01*
X0055516Y0131680D01*
X0055529Y0131739D01*
X0055545Y0131798D01*
X0055565Y0131855D01*
X0055588Y0131910D01*
X0055615Y0131965D01*
X0055644Y0132017D01*
X0055677Y0132068D01*
X0055713Y0132117D01*
X0055751Y0132163D01*
X0055793Y0132207D01*
X0055837Y0132249D01*
X0055883Y0132287D01*
X0055932Y0132323D01*
X0055983Y0132356D01*
X0056035Y0132385D01*
X0056090Y0132412D01*
X0056145Y0132435D01*
X0056202Y0132455D01*
X0056261Y0132471D01*
X0056320Y0132484D01*
X0056379Y0132493D01*
X0056440Y0132498D01*
X0056500Y0132500D01*
X0056500Y0112500D02*
X0058000Y0112500D01*
X0058500Y0112000D01*
X0077500Y0112000D01*
X0078000Y0112500D01*
X0079500Y0112500D01*
X0079560Y0112498D01*
X0079621Y0112493D01*
X0079680Y0112484D01*
X0079739Y0112471D01*
X0079798Y0112455D01*
X0079855Y0112435D01*
X0079910Y0112412D01*
X0079965Y0112385D01*
X0080017Y0112356D01*
X0080068Y0112323D01*
X0080117Y0112287D01*
X0080163Y0112249D01*
X0080207Y0112207D01*
X0080249Y0112163D01*
X0080287Y0112117D01*
X0080323Y0112068D01*
X0080356Y0112017D01*
X0080385Y0111965D01*
X0080412Y0111910D01*
X0080435Y0111855D01*
X0080455Y0111798D01*
X0080471Y0111739D01*
X0080484Y0111680D01*
X0080493Y0111621D01*
X0080498Y0111560D01*
X0080500Y0111500D01*
X0080500Y0104500D02*
X0080498Y0104440D01*
X0080493Y0104379D01*
X0080484Y0104320D01*
X0080471Y0104261D01*
X0080455Y0104202D01*
X0080435Y0104145D01*
X0080412Y0104090D01*
X0080385Y0104035D01*
X0080356Y0103983D01*
X0080323Y0103932D01*
X0080287Y0103883D01*
X0080249Y0103837D01*
X0080207Y0103793D01*
X0080163Y0103751D01*
X0080117Y0103713D01*
X0080068Y0103677D01*
X0080017Y0103644D01*
X0079965Y0103615D01*
X0079910Y0103588D01*
X0079855Y0103565D01*
X0079798Y0103545D01*
X0079739Y0103529D01*
X0079680Y0103516D01*
X0079621Y0103507D01*
X0079560Y0103502D01*
X0079500Y0103500D01*
X0078000Y0103500D01*
X0077500Y0104000D01*
X0058500Y0104000D01*
X0058000Y0103500D01*
X0056500Y0103500D01*
X0056440Y0103502D01*
X0056379Y0103507D01*
X0056320Y0103516D01*
X0056261Y0103529D01*
X0056202Y0103545D01*
X0056145Y0103565D01*
X0056090Y0103588D01*
X0056035Y0103615D01*
X0055983Y0103644D01*
X0055932Y0103677D01*
X0055883Y0103713D01*
X0055837Y0103751D01*
X0055793Y0103793D01*
X0055751Y0103837D01*
X0055713Y0103883D01*
X0055677Y0103932D01*
X0055644Y0103983D01*
X0055615Y0104035D01*
X0055588Y0104090D01*
X0055565Y0104145D01*
X0055545Y0104202D01*
X0055529Y0104261D01*
X0055516Y0104320D01*
X0055507Y0104379D01*
X0055502Y0104440D01*
X0055500Y0104500D01*
X0055500Y0111500D02*
X0055502Y0111560D01*
X0055507Y0111621D01*
X0055516Y0111680D01*
X0055529Y0111739D01*
X0055545Y0111798D01*
X0055565Y0111855D01*
X0055588Y0111910D01*
X0055615Y0111965D01*
X0055644Y0112017D01*
X0055677Y0112068D01*
X0055713Y0112117D01*
X0055751Y0112163D01*
X0055793Y0112207D01*
X0055837Y0112249D01*
X0055883Y0112287D01*
X0055932Y0112323D01*
X0055983Y0112356D01*
X0056035Y0112385D01*
X0056090Y0112412D01*
X0056145Y0112435D01*
X0056202Y0112455D01*
X0056261Y0112471D01*
X0056320Y0112484D01*
X0056379Y0112493D01*
X0056440Y0112498D01*
X0056500Y0112500D01*
X0056500Y0092500D02*
X0058000Y0092500D01*
X0058500Y0092000D01*
X0077500Y0092000D01*
X0078000Y0092500D01*
X0079500Y0092500D01*
X0079560Y0092498D01*
X0079621Y0092493D01*
X0079680Y0092484D01*
X0079739Y0092471D01*
X0079798Y0092455D01*
X0079855Y0092435D01*
X0079910Y0092412D01*
X0079965Y0092385D01*
X0080017Y0092356D01*
X0080068Y0092323D01*
X0080117Y0092287D01*
X0080163Y0092249D01*
X0080207Y0092207D01*
X0080249Y0092163D01*
X0080287Y0092117D01*
X0080323Y0092068D01*
X0080356Y0092017D01*
X0080385Y0091965D01*
X0080412Y0091910D01*
X0080435Y0091855D01*
X0080455Y0091798D01*
X0080471Y0091739D01*
X0080484Y0091680D01*
X0080493Y0091621D01*
X0080498Y0091560D01*
X0080500Y0091500D01*
X0080500Y0084500D02*
X0080498Y0084440D01*
X0080493Y0084379D01*
X0080484Y0084320D01*
X0080471Y0084261D01*
X0080455Y0084202D01*
X0080435Y0084145D01*
X0080412Y0084090D01*
X0080385Y0084035D01*
X0080356Y0083983D01*
X0080323Y0083932D01*
X0080287Y0083883D01*
X0080249Y0083837D01*
X0080207Y0083793D01*
X0080163Y0083751D01*
X0080117Y0083713D01*
X0080068Y0083677D01*
X0080017Y0083644D01*
X0079965Y0083615D01*
X0079910Y0083588D01*
X0079855Y0083565D01*
X0079798Y0083545D01*
X0079739Y0083529D01*
X0079680Y0083516D01*
X0079621Y0083507D01*
X0079560Y0083502D01*
X0079500Y0083500D01*
X0078000Y0083500D01*
X0077500Y0084000D01*
X0058500Y0084000D01*
X0058000Y0083500D01*
X0056500Y0083500D01*
X0056440Y0083502D01*
X0056379Y0083507D01*
X0056320Y0083516D01*
X0056261Y0083529D01*
X0056202Y0083545D01*
X0056145Y0083565D01*
X0056090Y0083588D01*
X0056035Y0083615D01*
X0055983Y0083644D01*
X0055932Y0083677D01*
X0055883Y0083713D01*
X0055837Y0083751D01*
X0055793Y0083793D01*
X0055751Y0083837D01*
X0055713Y0083883D01*
X0055677Y0083932D01*
X0055644Y0083983D01*
X0055615Y0084035D01*
X0055588Y0084090D01*
X0055565Y0084145D01*
X0055545Y0084202D01*
X0055529Y0084261D01*
X0055516Y0084320D01*
X0055507Y0084379D01*
X0055502Y0084440D01*
X0055500Y0084500D01*
X0055500Y0091500D02*
X0055502Y0091560D01*
X0055507Y0091621D01*
X0055516Y0091680D01*
X0055529Y0091739D01*
X0055545Y0091798D01*
X0055565Y0091855D01*
X0055588Y0091910D01*
X0055615Y0091965D01*
X0055644Y0092017D01*
X0055677Y0092068D01*
X0055713Y0092117D01*
X0055751Y0092163D01*
X0055793Y0092207D01*
X0055837Y0092249D01*
X0055883Y0092287D01*
X0055932Y0092323D01*
X0055983Y0092356D01*
X0056035Y0092385D01*
X0056090Y0092412D01*
X0056145Y0092435D01*
X0056202Y0092455D01*
X0056261Y0092471D01*
X0056320Y0092484D01*
X0056379Y0092493D01*
X0056440Y0092498D01*
X0056500Y0092500D01*
X0056500Y0072500D02*
X0058000Y0072500D01*
X0058500Y0072000D01*
X0077500Y0072000D01*
X0078000Y0072500D01*
X0079500Y0072500D01*
X0079560Y0072498D01*
X0079621Y0072493D01*
X0079680Y0072484D01*
X0079739Y0072471D01*
X0079798Y0072455D01*
X0079855Y0072435D01*
X0079910Y0072412D01*
X0079965Y0072385D01*
X0080017Y0072356D01*
X0080068Y0072323D01*
X0080117Y0072287D01*
X0080163Y0072249D01*
X0080207Y0072207D01*
X0080249Y0072163D01*
X0080287Y0072117D01*
X0080323Y0072068D01*
X0080356Y0072017D01*
X0080385Y0071965D01*
X0080412Y0071910D01*
X0080435Y0071855D01*
X0080455Y0071798D01*
X0080471Y0071739D01*
X0080484Y0071680D01*
X0080493Y0071621D01*
X0080498Y0071560D01*
X0080500Y0071500D01*
X0080500Y0064500D02*
X0080498Y0064440D01*
X0080493Y0064379D01*
X0080484Y0064320D01*
X0080471Y0064261D01*
X0080455Y0064202D01*
X0080435Y0064145D01*
X0080412Y0064090D01*
X0080385Y0064035D01*
X0080356Y0063983D01*
X0080323Y0063932D01*
X0080287Y0063883D01*
X0080249Y0063837D01*
X0080207Y0063793D01*
X0080163Y0063751D01*
X0080117Y0063713D01*
X0080068Y0063677D01*
X0080017Y0063644D01*
X0079965Y0063615D01*
X0079910Y0063588D01*
X0079855Y0063565D01*
X0079798Y0063545D01*
X0079739Y0063529D01*
X0079680Y0063516D01*
X0079621Y0063507D01*
X0079560Y0063502D01*
X0079500Y0063500D01*
X0078000Y0063500D01*
X0077500Y0064000D01*
X0058500Y0064000D01*
X0058000Y0063500D01*
X0056500Y0063500D01*
X0056440Y0063502D01*
X0056379Y0063507D01*
X0056320Y0063516D01*
X0056261Y0063529D01*
X0056202Y0063545D01*
X0056145Y0063565D01*
X0056090Y0063588D01*
X0056035Y0063615D01*
X0055983Y0063644D01*
X0055932Y0063677D01*
X0055883Y0063713D01*
X0055837Y0063751D01*
X0055793Y0063793D01*
X0055751Y0063837D01*
X0055713Y0063883D01*
X0055677Y0063932D01*
X0055644Y0063983D01*
X0055615Y0064035D01*
X0055588Y0064090D01*
X0055565Y0064145D01*
X0055545Y0064202D01*
X0055529Y0064261D01*
X0055516Y0064320D01*
X0055507Y0064379D01*
X0055502Y0064440D01*
X0055500Y0064500D01*
X0055500Y0071500D02*
X0055502Y0071560D01*
X0055507Y0071621D01*
X0055516Y0071680D01*
X0055529Y0071739D01*
X0055545Y0071798D01*
X0055565Y0071855D01*
X0055588Y0071910D01*
X0055615Y0071965D01*
X0055644Y0072017D01*
X0055677Y0072068D01*
X0055713Y0072117D01*
X0055751Y0072163D01*
X0055793Y0072207D01*
X0055837Y0072249D01*
X0055883Y0072287D01*
X0055932Y0072323D01*
X0055983Y0072356D01*
X0056035Y0072385D01*
X0056090Y0072412D01*
X0056145Y0072435D01*
X0056202Y0072455D01*
X0056261Y0072471D01*
X0056320Y0072484D01*
X0056379Y0072493D01*
X0056440Y0072498D01*
X0056500Y0072500D01*
X0029000Y0058000D02*
X0028998Y0057848D01*
X0028992Y0057697D01*
X0028983Y0057546D01*
X0028969Y0057394D01*
X0028952Y0057244D01*
X0028931Y0057094D01*
X0028906Y0056944D01*
X0028878Y0056795D01*
X0028845Y0056647D01*
X0028809Y0056500D01*
X0028770Y0056353D01*
X0028726Y0056208D01*
X0028679Y0056064D01*
X0028628Y0055921D01*
X0028574Y0055780D01*
X0028516Y0055639D01*
X0028455Y0055501D01*
X0028390Y0055364D01*
X0028321Y0055228D01*
X0028250Y0055095D01*
X0028175Y0054963D01*
X0028096Y0054833D01*
X0028015Y0054706D01*
X0027930Y0054580D01*
X0027842Y0054456D01*
X0027751Y0054335D01*
X0027657Y0054216D01*
X0027559Y0054100D01*
X0027459Y0053986D01*
X0027357Y0053874D01*
X0027251Y0053766D01*
X0027143Y0053660D01*
X0027032Y0053556D01*
X0026918Y0053456D01*
X0026802Y0053358D01*
X0026683Y0053264D01*
X0017000Y0058000D02*
X0017002Y0058154D01*
X0017008Y0058308D01*
X0017018Y0058462D01*
X0017032Y0058616D01*
X0017049Y0058769D01*
X0017071Y0058921D01*
X0017097Y0059073D01*
X0017126Y0059225D01*
X0017160Y0059375D01*
X0017197Y0059525D01*
X0017238Y0059673D01*
X0017283Y0059821D01*
X0017332Y0059967D01*
X0017384Y0060112D01*
X0017440Y0060255D01*
X0017500Y0060398D01*
X0017563Y0060538D01*
X0017630Y0060677D01*
X0017701Y0060814D01*
X0017775Y0060949D01*
X0017852Y0061082D01*
X0017933Y0061214D01*
X0018017Y0061343D01*
X0018105Y0061470D01*
X0018196Y0061594D01*
X0018289Y0061716D01*
X0018387Y0061836D01*
X0018487Y0061953D01*
X0018590Y0062068D01*
X0018696Y0062180D01*
X0018804Y0062289D01*
X0018916Y0062395D01*
X0019030Y0062499D01*
X0019147Y0062599D01*
X0019266Y0062697D01*
X0019388Y0062791D01*
X0019513Y0062882D01*
X0017000Y0058000D02*
X0017002Y0057850D01*
X0017008Y0057699D01*
X0017017Y0057549D01*
X0017030Y0057400D01*
X0017047Y0057250D01*
X0017068Y0057101D01*
X0017092Y0056953D01*
X0017120Y0056805D01*
X0017152Y0056658D01*
X0017187Y0056512D01*
X0017227Y0056367D01*
X0017269Y0056223D01*
X0017316Y0056080D01*
X0017366Y0055938D01*
X0017419Y0055797D01*
X0017476Y0055658D01*
X0017536Y0055520D01*
X0017600Y0055384D01*
X0017667Y0055250D01*
X0017738Y0055117D01*
X0017812Y0054986D01*
X0017889Y0054857D01*
X0017970Y0054730D01*
X0018053Y0054605D01*
X0018140Y0054482D01*
X0018229Y0054361D01*
X0018322Y0054243D01*
X0018418Y0054127D01*
X0018516Y0054013D01*
X0018617Y0053902D01*
X0018722Y0053793D01*
X0018828Y0053688D01*
X0018938Y0053584D01*
X0019050Y0053484D01*
X0019164Y0053386D01*
X0019281Y0053292D01*
X0019400Y0053200D01*
X0029000Y0058000D02*
X0028998Y0058152D01*
X0028992Y0058303D01*
X0028983Y0058454D01*
X0028969Y0058606D01*
X0028952Y0058756D01*
X0028931Y0058906D01*
X0028906Y0059056D01*
X0028878Y0059205D01*
X0028845Y0059353D01*
X0028809Y0059500D01*
X0028770Y0059647D01*
X0028726Y0059792D01*
X0028679Y0059936D01*
X0028628Y0060079D01*
X0028574Y0060220D01*
X0028516Y0060361D01*
X0028455Y0060499D01*
X0028390Y0060636D01*
X0028321Y0060772D01*
X0028250Y0060905D01*
X0028175Y0061037D01*
X0028096Y0061167D01*
X0028015Y0061294D01*
X0027930Y0061420D01*
X0027842Y0061544D01*
X0027751Y0061665D01*
X0027657Y0061784D01*
X0027559Y0061900D01*
X0027459Y0062014D01*
X0027357Y0062126D01*
X0027251Y0062234D01*
X0027143Y0062340D01*
X0027032Y0062444D01*
X0026918Y0062544D01*
X0026802Y0062642D01*
X0026683Y0062736D01*
X0056500Y0052500D02*
X0058000Y0052500D01*
X0058500Y0052000D01*
X0077500Y0052000D01*
X0078000Y0052500D01*
X0079500Y0052500D01*
X0079560Y0052498D01*
X0079621Y0052493D01*
X0079680Y0052484D01*
X0079739Y0052471D01*
X0079798Y0052455D01*
X0079855Y0052435D01*
X0079910Y0052412D01*
X0079965Y0052385D01*
X0080017Y0052356D01*
X0080068Y0052323D01*
X0080117Y0052287D01*
X0080163Y0052249D01*
X0080207Y0052207D01*
X0080249Y0052163D01*
X0080287Y0052117D01*
X0080323Y0052068D01*
X0080356Y0052017D01*
X0080385Y0051965D01*
X0080412Y0051910D01*
X0080435Y0051855D01*
X0080455Y0051798D01*
X0080471Y0051739D01*
X0080484Y0051680D01*
X0080493Y0051621D01*
X0080498Y0051560D01*
X0080500Y0051500D01*
X0080500Y0044500D02*
X0080498Y0044440D01*
X0080493Y0044379D01*
X0080484Y0044320D01*
X0080471Y0044261D01*
X0080455Y0044202D01*
X0080435Y0044145D01*
X0080412Y0044090D01*
X0080385Y0044035D01*
X0080356Y0043983D01*
X0080323Y0043932D01*
X0080287Y0043883D01*
X0080249Y0043837D01*
X0080207Y0043793D01*
X0080163Y0043751D01*
X0080117Y0043713D01*
X0080068Y0043677D01*
X0080017Y0043644D01*
X0079965Y0043615D01*
X0079910Y0043588D01*
X0079855Y0043565D01*
X0079798Y0043545D01*
X0079739Y0043529D01*
X0079680Y0043516D01*
X0079621Y0043507D01*
X0079560Y0043502D01*
X0079500Y0043500D01*
X0078000Y0043500D01*
X0077500Y0044000D01*
X0058500Y0044000D01*
X0058000Y0043500D01*
X0056500Y0043500D01*
X0056440Y0043502D01*
X0056379Y0043507D01*
X0056320Y0043516D01*
X0056261Y0043529D01*
X0056202Y0043545D01*
X0056145Y0043565D01*
X0056090Y0043588D01*
X0056035Y0043615D01*
X0055983Y0043644D01*
X0055932Y0043677D01*
X0055883Y0043713D01*
X0055837Y0043751D01*
X0055793Y0043793D01*
X0055751Y0043837D01*
X0055713Y0043883D01*
X0055677Y0043932D01*
X0055644Y0043983D01*
X0055615Y0044035D01*
X0055588Y0044090D01*
X0055565Y0044145D01*
X0055545Y0044202D01*
X0055529Y0044261D01*
X0055516Y0044320D01*
X0055507Y0044379D01*
X0055502Y0044440D01*
X0055500Y0044500D01*
X0055500Y0051500D02*
X0055502Y0051560D01*
X0055507Y0051621D01*
X0055516Y0051680D01*
X0055529Y0051739D01*
X0055545Y0051798D01*
X0055565Y0051855D01*
X0055588Y0051910D01*
X0055615Y0051965D01*
X0055644Y0052017D01*
X0055677Y0052068D01*
X0055713Y0052117D01*
X0055751Y0052163D01*
X0055793Y0052207D01*
X0055837Y0052249D01*
X0055883Y0052287D01*
X0055932Y0052323D01*
X0055983Y0052356D01*
X0056035Y0052385D01*
X0056090Y0052412D01*
X0056145Y0052435D01*
X0056202Y0052455D01*
X0056261Y0052471D01*
X0056320Y0052484D01*
X0056379Y0052493D01*
X0056440Y0052498D01*
X0056500Y0052500D01*
X0014500Y0028000D02*
X0014504Y0028331D01*
X0014516Y0028662D01*
X0014537Y0028993D01*
X0014565Y0029323D01*
X0014602Y0029653D01*
X0014646Y0029981D01*
X0014699Y0030308D01*
X0014759Y0030634D01*
X0014828Y0030958D01*
X0014905Y0031280D01*
X0014989Y0031601D01*
X0015081Y0031919D01*
X0015181Y0032235D01*
X0015289Y0032548D01*
X0015405Y0032859D01*
X0015528Y0033166D01*
X0015658Y0033471D01*
X0015796Y0033772D01*
X0015941Y0034070D01*
X0016094Y0034364D01*
X0016254Y0034654D01*
X0016421Y0034940D01*
X0016594Y0035222D01*
X0016775Y0035500D01*
X0016963Y0035773D01*
X0017157Y0036042D01*
X0017357Y0036306D01*
X0017564Y0036564D01*
X0017778Y0036818D01*
X0017997Y0037066D01*
X0018223Y0037309D01*
X0018454Y0037546D01*
X0018691Y0037777D01*
X0018934Y0038003D01*
X0019182Y0038222D01*
X0019436Y0038436D01*
X0019694Y0038643D01*
X0019958Y0038843D01*
X0020227Y0039037D01*
X0020500Y0039225D01*
X0020778Y0039406D01*
X0021060Y0039579D01*
X0021346Y0039746D01*
X0021636Y0039906D01*
X0021930Y0040059D01*
X0022228Y0040204D01*
X0022529Y0040342D01*
X0022834Y0040472D01*
X0023141Y0040595D01*
X0023452Y0040711D01*
X0023765Y0040819D01*
X0024081Y0040919D01*
X0024399Y0041011D01*
X0024720Y0041095D01*
X0025042Y0041172D01*
X0025366Y0041241D01*
X0025692Y0041301D01*
X0026019Y0041354D01*
X0026347Y0041398D01*
X0026677Y0041435D01*
X0027007Y0041463D01*
X0027338Y0041484D01*
X0027669Y0041496D01*
X0028000Y0041500D01*
X0028331Y0041496D01*
X0028662Y0041484D01*
X0028993Y0041463D01*
X0029323Y0041435D01*
X0029653Y0041398D01*
X0029981Y0041354D01*
X0030308Y0041301D01*
X0030634Y0041241D01*
X0030958Y0041172D01*
X0031280Y0041095D01*
X0031601Y0041011D01*
X0031919Y0040919D01*
X0032235Y0040819D01*
X0032548Y0040711D01*
X0032859Y0040595D01*
X0033166Y0040472D01*
X0033471Y0040342D01*
X0033772Y0040204D01*
X0034070Y0040059D01*
X0034364Y0039906D01*
X0034654Y0039746D01*
X0034940Y0039579D01*
X0035222Y0039406D01*
X0035500Y0039225D01*
X0035773Y0039037D01*
X0036042Y0038843D01*
X0036306Y0038643D01*
X0036564Y0038436D01*
X0036818Y0038222D01*
X0037066Y0038003D01*
X0037309Y0037777D01*
X0037546Y0037546D01*
X0037777Y0037309D01*
X0038003Y0037066D01*
X0038222Y0036818D01*
X0038436Y0036564D01*
X0038643Y0036306D01*
X0038843Y0036042D01*
X0039037Y0035773D01*
X0039225Y0035500D01*
X0039406Y0035222D01*
X0039579Y0034940D01*
X0039746Y0034654D01*
X0039906Y0034364D01*
X0040059Y0034070D01*
X0040204Y0033772D01*
X0040342Y0033471D01*
X0040472Y0033166D01*
X0040595Y0032859D01*
X0040711Y0032548D01*
X0040819Y0032235D01*
X0040919Y0031919D01*
X0041011Y0031601D01*
X0041095Y0031280D01*
X0041172Y0030958D01*
X0041241Y0030634D01*
X0041301Y0030308D01*
X0041354Y0029981D01*
X0041398Y0029653D01*
X0041435Y0029323D01*
X0041463Y0028993D01*
X0041484Y0028662D01*
X0041496Y0028331D01*
X0041500Y0028000D01*
X0041496Y0027669D01*
X0041484Y0027338D01*
X0041463Y0027007D01*
X0041435Y0026677D01*
X0041398Y0026347D01*
X0041354Y0026019D01*
X0041301Y0025692D01*
X0041241Y0025366D01*
X0041172Y0025042D01*
X0041095Y0024720D01*
X0041011Y0024399D01*
X0040919Y0024081D01*
X0040819Y0023765D01*
X0040711Y0023452D01*
X0040595Y0023141D01*
X0040472Y0022834D01*
X0040342Y0022529D01*
X0040204Y0022228D01*
X0040059Y0021930D01*
X0039906Y0021636D01*
X0039746Y0021346D01*
X0039579Y0021060D01*
X0039406Y0020778D01*
X0039225Y0020500D01*
X0039037Y0020227D01*
X0038843Y0019958D01*
X0038643Y0019694D01*
X0038436Y0019436D01*
X0038222Y0019182D01*
X0038003Y0018934D01*
X0037777Y0018691D01*
X0037546Y0018454D01*
X0037309Y0018223D01*
X0037066Y0017997D01*
X0036818Y0017778D01*
X0036564Y0017564D01*
X0036306Y0017357D01*
X0036042Y0017157D01*
X0035773Y0016963D01*
X0035500Y0016775D01*
X0035222Y0016594D01*
X0034940Y0016421D01*
X0034654Y0016254D01*
X0034364Y0016094D01*
X0034070Y0015941D01*
X0033772Y0015796D01*
X0033471Y0015658D01*
X0033166Y0015528D01*
X0032859Y0015405D01*
X0032548Y0015289D01*
X0032235Y0015181D01*
X0031919Y0015081D01*
X0031601Y0014989D01*
X0031280Y0014905D01*
X0030958Y0014828D01*
X0030634Y0014759D01*
X0030308Y0014699D01*
X0029981Y0014646D01*
X0029653Y0014602D01*
X0029323Y0014565D01*
X0028993Y0014537D01*
X0028662Y0014516D01*
X0028331Y0014504D01*
X0028000Y0014500D01*
X0027669Y0014504D01*
X0027338Y0014516D01*
X0027007Y0014537D01*
X0026677Y0014565D01*
X0026347Y0014602D01*
X0026019Y0014646D01*
X0025692Y0014699D01*
X0025366Y0014759D01*
X0025042Y0014828D01*
X0024720Y0014905D01*
X0024399Y0014989D01*
X0024081Y0015081D01*
X0023765Y0015181D01*
X0023452Y0015289D01*
X0023141Y0015405D01*
X0022834Y0015528D01*
X0022529Y0015658D01*
X0022228Y0015796D01*
X0021930Y0015941D01*
X0021636Y0016094D01*
X0021346Y0016254D01*
X0021060Y0016421D01*
X0020778Y0016594D01*
X0020500Y0016775D01*
X0020227Y0016963D01*
X0019958Y0017157D01*
X0019694Y0017357D01*
X0019436Y0017564D01*
X0019182Y0017778D01*
X0018934Y0017997D01*
X0018691Y0018223D01*
X0018454Y0018454D01*
X0018223Y0018691D01*
X0017997Y0018934D01*
X0017778Y0019182D01*
X0017564Y0019436D01*
X0017357Y0019694D01*
X0017157Y0019958D01*
X0016963Y0020227D01*
X0016775Y0020500D01*
X0016594Y0020778D01*
X0016421Y0021060D01*
X0016254Y0021346D01*
X0016094Y0021636D01*
X0015941Y0021930D01*
X0015796Y0022228D01*
X0015658Y0022529D01*
X0015528Y0022834D01*
X0015405Y0023141D01*
X0015289Y0023452D01*
X0015181Y0023765D01*
X0015081Y0024081D01*
X0014989Y0024399D01*
X0014905Y0024720D01*
X0014828Y0025042D01*
X0014759Y0025366D01*
X0014699Y0025692D01*
X0014646Y0026019D01*
X0014602Y0026347D01*
X0014565Y0026677D01*
X0014537Y0027007D01*
X0014516Y0027338D01*
X0014504Y0027669D01*
X0014500Y0028000D01*
X0113000Y0048000D02*
X0113000Y0187500D01*
X0113000Y0188000D02*
X0118000Y0188000D01*
X0118002Y0187860D01*
X0118008Y0187720D01*
X0118018Y0187580D01*
X0118031Y0187440D01*
X0118049Y0187301D01*
X0118071Y0187162D01*
X0118096Y0187025D01*
X0118125Y0186887D01*
X0118158Y0186751D01*
X0118195Y0186616D01*
X0118236Y0186482D01*
X0118281Y0186349D01*
X0118329Y0186217D01*
X0118381Y0186087D01*
X0118436Y0185958D01*
X0118495Y0185831D01*
X0118558Y0185705D01*
X0118624Y0185581D01*
X0118693Y0185460D01*
X0118766Y0185340D01*
X0118843Y0185222D01*
X0118922Y0185107D01*
X0119005Y0184993D01*
X0119091Y0184883D01*
X0119180Y0184774D01*
X0119272Y0184668D01*
X0119367Y0184565D01*
X0119464Y0184464D01*
X0119565Y0184367D01*
X0119668Y0184272D01*
X0119774Y0184180D01*
X0119883Y0184091D01*
X0119993Y0184005D01*
X0120107Y0183922D01*
X0120222Y0183843D01*
X0120340Y0183766D01*
X0120460Y0183693D01*
X0120581Y0183624D01*
X0120705Y0183558D01*
X0120831Y0183495D01*
X0120958Y0183436D01*
X0121087Y0183381D01*
X0121217Y0183329D01*
X0121349Y0183281D01*
X0121482Y0183236D01*
X0121616Y0183195D01*
X0121751Y0183158D01*
X0121887Y0183125D01*
X0122025Y0183096D01*
X0122162Y0183071D01*
X0122301Y0183049D01*
X0122440Y0183031D01*
X0122580Y0183018D01*
X0122720Y0183008D01*
X0122860Y0183002D01*
X0123000Y0183000D01*
X0123140Y0183002D01*
X0123280Y0183008D01*
X0123420Y0183018D01*
X0123560Y0183031D01*
X0123699Y0183049D01*
X0123838Y0183071D01*
X0123975Y0183096D01*
X0124113Y0183125D01*
X0124249Y0183158D01*
X0124384Y0183195D01*
X0124518Y0183236D01*
X0124651Y0183281D01*
X0124783Y0183329D01*
X0124913Y0183381D01*
X0125042Y0183436D01*
X0125169Y0183495D01*
X0125295Y0183558D01*
X0125419Y0183624D01*
X0125540Y0183693D01*
X0125660Y0183766D01*
X0125778Y0183843D01*
X0125893Y0183922D01*
X0126007Y0184005D01*
X0126117Y0184091D01*
X0126226Y0184180D01*
X0126332Y0184272D01*
X0126435Y0184367D01*
X0126536Y0184464D01*
X0126633Y0184565D01*
X0126728Y0184668D01*
X0126820Y0184774D01*
X0126909Y0184883D01*
X0126995Y0184993D01*
X0127078Y0185107D01*
X0127157Y0185222D01*
X0127234Y0185340D01*
X0127307Y0185460D01*
X0127376Y0185581D01*
X0127442Y0185705D01*
X0127505Y0185831D01*
X0127564Y0185958D01*
X0127619Y0186087D01*
X0127671Y0186217D01*
X0127719Y0186349D01*
X0127764Y0186482D01*
X0127805Y0186616D01*
X0127842Y0186751D01*
X0127875Y0186887D01*
X0127904Y0187025D01*
X0127929Y0187162D01*
X0127951Y0187301D01*
X0127969Y0187440D01*
X0127982Y0187580D01*
X0127992Y0187720D01*
X0127998Y0187860D01*
X0128000Y0188000D01*
X0133000Y0188000D01*
X0133000Y0048000D01*
X0113000Y0048000D01*
X0161000Y0062000D02*
X0161000Y0076000D01*
X0162000Y0076000D01*
X0193343Y0044500D02*
X0193343Y0035098D01*
X0193343Y0009098D01*
X0232642Y0009098D01*
X0232642Y0008299D01*
X0193343Y0008299D01*
X0193343Y0009098D01*
X0201143Y0014300D02*
X0201145Y0014389D01*
X0201151Y0014478D01*
X0201161Y0014567D01*
X0201175Y0014655D01*
X0201192Y0014742D01*
X0201214Y0014828D01*
X0201240Y0014914D01*
X0201269Y0014998D01*
X0201302Y0015081D01*
X0201338Y0015162D01*
X0201379Y0015242D01*
X0201422Y0015319D01*
X0201469Y0015395D01*
X0201520Y0015468D01*
X0201573Y0015539D01*
X0201630Y0015608D01*
X0201690Y0015674D01*
X0201753Y0015738D01*
X0201818Y0015798D01*
X0201886Y0015856D01*
X0201957Y0015910D01*
X0202030Y0015961D01*
X0202105Y0016009D01*
X0202182Y0016054D01*
X0202261Y0016095D01*
X0202342Y0016132D01*
X0202424Y0016166D01*
X0202508Y0016197D01*
X0202593Y0016223D01*
X0202679Y0016246D01*
X0202766Y0016264D01*
X0202854Y0016279D01*
X0202943Y0016290D01*
X0203032Y0016297D01*
X0203121Y0016300D01*
X0203210Y0016299D01*
X0203299Y0016294D01*
X0203387Y0016285D01*
X0203476Y0016272D01*
X0203563Y0016255D01*
X0203650Y0016235D01*
X0203736Y0016210D01*
X0203820Y0016182D01*
X0203903Y0016150D01*
X0203985Y0016114D01*
X0204065Y0016075D01*
X0204143Y0016032D01*
X0204219Y0015986D01*
X0204293Y0015936D01*
X0204365Y0015883D01*
X0204434Y0015827D01*
X0204501Y0015768D01*
X0204565Y0015706D01*
X0204626Y0015642D01*
X0204685Y0015574D01*
X0204740Y0015504D01*
X0204792Y0015432D01*
X0204841Y0015357D01*
X0204886Y0015281D01*
X0204928Y0015202D01*
X0204966Y0015122D01*
X0205001Y0015040D01*
X0205032Y0014956D01*
X0205060Y0014871D01*
X0205083Y0014785D01*
X0205103Y0014698D01*
X0205119Y0014611D01*
X0205131Y0014522D01*
X0205139Y0014434D01*
X0205143Y0014345D01*
X0205143Y0014255D01*
X0205139Y0014166D01*
X0205131Y0014078D01*
X0205119Y0013989D01*
X0205103Y0013902D01*
X0205083Y0013815D01*
X0205060Y0013729D01*
X0205032Y0013644D01*
X0205001Y0013560D01*
X0204966Y0013478D01*
X0204928Y0013398D01*
X0204886Y0013319D01*
X0204841Y0013243D01*
X0204792Y0013168D01*
X0204740Y0013096D01*
X0204685Y0013026D01*
X0204626Y0012958D01*
X0204565Y0012894D01*
X0204501Y0012832D01*
X0204434Y0012773D01*
X0204365Y0012717D01*
X0204293Y0012664D01*
X0204219Y0012614D01*
X0204143Y0012568D01*
X0204065Y0012525D01*
X0203985Y0012486D01*
X0203903Y0012450D01*
X0203820Y0012418D01*
X0203736Y0012390D01*
X0203650Y0012365D01*
X0203563Y0012345D01*
X0203476Y0012328D01*
X0203387Y0012315D01*
X0203299Y0012306D01*
X0203210Y0012301D01*
X0203121Y0012300D01*
X0203032Y0012303D01*
X0202943Y0012310D01*
X0202854Y0012321D01*
X0202766Y0012336D01*
X0202679Y0012354D01*
X0202593Y0012377D01*
X0202508Y0012403D01*
X0202424Y0012434D01*
X0202342Y0012468D01*
X0202261Y0012505D01*
X0202182Y0012546D01*
X0202105Y0012591D01*
X0202030Y0012639D01*
X0201957Y0012690D01*
X0201886Y0012744D01*
X0201818Y0012802D01*
X0201753Y0012862D01*
X0201690Y0012926D01*
X0201630Y0012992D01*
X0201573Y0013061D01*
X0201520Y0013132D01*
X0201469Y0013205D01*
X0201422Y0013281D01*
X0201379Y0013358D01*
X0201338Y0013438D01*
X0201302Y0013519D01*
X0201269Y0013602D01*
X0201240Y0013686D01*
X0201214Y0013772D01*
X0201192Y0013858D01*
X0201175Y0013945D01*
X0201161Y0014033D01*
X0201151Y0014122D01*
X0201145Y0014211D01*
X0201143Y0014300D01*
X0220843Y0014300D02*
X0220845Y0014389D01*
X0220851Y0014478D01*
X0220861Y0014567D01*
X0220875Y0014655D01*
X0220892Y0014742D01*
X0220914Y0014828D01*
X0220940Y0014914D01*
X0220969Y0014998D01*
X0221002Y0015081D01*
X0221038Y0015162D01*
X0221079Y0015242D01*
X0221122Y0015319D01*
X0221169Y0015395D01*
X0221220Y0015468D01*
X0221273Y0015539D01*
X0221330Y0015608D01*
X0221390Y0015674D01*
X0221453Y0015738D01*
X0221518Y0015798D01*
X0221586Y0015856D01*
X0221657Y0015910D01*
X0221730Y0015961D01*
X0221805Y0016009D01*
X0221882Y0016054D01*
X0221961Y0016095D01*
X0222042Y0016132D01*
X0222124Y0016166D01*
X0222208Y0016197D01*
X0222293Y0016223D01*
X0222379Y0016246D01*
X0222466Y0016264D01*
X0222554Y0016279D01*
X0222643Y0016290D01*
X0222732Y0016297D01*
X0222821Y0016300D01*
X0222910Y0016299D01*
X0222999Y0016294D01*
X0223087Y0016285D01*
X0223176Y0016272D01*
X0223263Y0016255D01*
X0223350Y0016235D01*
X0223436Y0016210D01*
X0223520Y0016182D01*
X0223603Y0016150D01*
X0223685Y0016114D01*
X0223765Y0016075D01*
X0223843Y0016032D01*
X0223919Y0015986D01*
X0223993Y0015936D01*
X0224065Y0015883D01*
X0224134Y0015827D01*
X0224201Y0015768D01*
X0224265Y0015706D01*
X0224326Y0015642D01*
X0224385Y0015574D01*
X0224440Y0015504D01*
X0224492Y0015432D01*
X0224541Y0015357D01*
X0224586Y0015281D01*
X0224628Y0015202D01*
X0224666Y0015122D01*
X0224701Y0015040D01*
X0224732Y0014956D01*
X0224760Y0014871D01*
X0224783Y0014785D01*
X0224803Y0014698D01*
X0224819Y0014611D01*
X0224831Y0014522D01*
X0224839Y0014434D01*
X0224843Y0014345D01*
X0224843Y0014255D01*
X0224839Y0014166D01*
X0224831Y0014078D01*
X0224819Y0013989D01*
X0224803Y0013902D01*
X0224783Y0013815D01*
X0224760Y0013729D01*
X0224732Y0013644D01*
X0224701Y0013560D01*
X0224666Y0013478D01*
X0224628Y0013398D01*
X0224586Y0013319D01*
X0224541Y0013243D01*
X0224492Y0013168D01*
X0224440Y0013096D01*
X0224385Y0013026D01*
X0224326Y0012958D01*
X0224265Y0012894D01*
X0224201Y0012832D01*
X0224134Y0012773D01*
X0224065Y0012717D01*
X0223993Y0012664D01*
X0223919Y0012614D01*
X0223843Y0012568D01*
X0223765Y0012525D01*
X0223685Y0012486D01*
X0223603Y0012450D01*
X0223520Y0012418D01*
X0223436Y0012390D01*
X0223350Y0012365D01*
X0223263Y0012345D01*
X0223176Y0012328D01*
X0223087Y0012315D01*
X0222999Y0012306D01*
X0222910Y0012301D01*
X0222821Y0012300D01*
X0222732Y0012303D01*
X0222643Y0012310D01*
X0222554Y0012321D01*
X0222466Y0012336D01*
X0222379Y0012354D01*
X0222293Y0012377D01*
X0222208Y0012403D01*
X0222124Y0012434D01*
X0222042Y0012468D01*
X0221961Y0012505D01*
X0221882Y0012546D01*
X0221805Y0012591D01*
X0221730Y0012639D01*
X0221657Y0012690D01*
X0221586Y0012744D01*
X0221518Y0012802D01*
X0221453Y0012862D01*
X0221390Y0012926D01*
X0221330Y0012992D01*
X0221273Y0013061D01*
X0221220Y0013132D01*
X0221169Y0013205D01*
X0221122Y0013281D01*
X0221079Y0013358D01*
X0221038Y0013438D01*
X0221002Y0013519D01*
X0220969Y0013602D01*
X0220940Y0013686D01*
X0220914Y0013772D01*
X0220892Y0013858D01*
X0220875Y0013945D01*
X0220861Y0014033D01*
X0220851Y0014122D01*
X0220845Y0014211D01*
X0220843Y0014300D01*
X0232642Y0009098D02*
X0232642Y0035098D01*
X0226343Y0035098D01*
X0219343Y0035098D02*
X0206642Y0035098D01*
X0199642Y0035098D02*
X0193343Y0035098D01*
X0193343Y0044500D02*
X0232642Y0044500D01*
X0232642Y0035098D01*
X0242500Y0028000D02*
X0242500Y0077000D01*
X0246000Y0077000D01*
X0246000Y0083000D01*
X0242500Y0083000D01*
X0242500Y0090500D01*
X0283500Y0090500D01*
X0283500Y0083000D01*
X0280000Y0083000D01*
X0280000Y0077000D01*
X0283500Y0077000D01*
X0283500Y0028000D01*
X0242500Y0028000D01*
X0303343Y0035098D02*
X0303343Y0009098D01*
X0342642Y0009098D01*
X0342642Y0008299D01*
X0303343Y0008299D01*
X0303343Y0009098D01*
X0311143Y0014300D02*
X0311145Y0014389D01*
X0311151Y0014478D01*
X0311161Y0014567D01*
X0311175Y0014655D01*
X0311192Y0014742D01*
X0311214Y0014828D01*
X0311240Y0014914D01*
X0311269Y0014998D01*
X0311302Y0015081D01*
X0311338Y0015162D01*
X0311379Y0015242D01*
X0311422Y0015319D01*
X0311469Y0015395D01*
X0311520Y0015468D01*
X0311573Y0015539D01*
X0311630Y0015608D01*
X0311690Y0015674D01*
X0311753Y0015738D01*
X0311818Y0015798D01*
X0311886Y0015856D01*
X0311957Y0015910D01*
X0312030Y0015961D01*
X0312105Y0016009D01*
X0312182Y0016054D01*
X0312261Y0016095D01*
X0312342Y0016132D01*
X0312424Y0016166D01*
X0312508Y0016197D01*
X0312593Y0016223D01*
X0312679Y0016246D01*
X0312766Y0016264D01*
X0312854Y0016279D01*
X0312943Y0016290D01*
X0313032Y0016297D01*
X0313121Y0016300D01*
X0313210Y0016299D01*
X0313299Y0016294D01*
X0313387Y0016285D01*
X0313476Y0016272D01*
X0313563Y0016255D01*
X0313650Y0016235D01*
X0313736Y0016210D01*
X0313820Y0016182D01*
X0313903Y0016150D01*
X0313985Y0016114D01*
X0314065Y0016075D01*
X0314143Y0016032D01*
X0314219Y0015986D01*
X0314293Y0015936D01*
X0314365Y0015883D01*
X0314434Y0015827D01*
X0314501Y0015768D01*
X0314565Y0015706D01*
X0314626Y0015642D01*
X0314685Y0015574D01*
X0314740Y0015504D01*
X0314792Y0015432D01*
X0314841Y0015357D01*
X0314886Y0015281D01*
X0314928Y0015202D01*
X0314966Y0015122D01*
X0315001Y0015040D01*
X0315032Y0014956D01*
X0315060Y0014871D01*
X0315083Y0014785D01*
X0315103Y0014698D01*
X0315119Y0014611D01*
X0315131Y0014522D01*
X0315139Y0014434D01*
X0315143Y0014345D01*
X0315143Y0014255D01*
X0315139Y0014166D01*
X0315131Y0014078D01*
X0315119Y0013989D01*
X0315103Y0013902D01*
X0315083Y0013815D01*
X0315060Y0013729D01*
X0315032Y0013644D01*
X0315001Y0013560D01*
X0314966Y0013478D01*
X0314928Y0013398D01*
X0314886Y0013319D01*
X0314841Y0013243D01*
X0314792Y0013168D01*
X0314740Y0013096D01*
X0314685Y0013026D01*
X0314626Y0012958D01*
X0314565Y0012894D01*
X0314501Y0012832D01*
X0314434Y0012773D01*
X0314365Y0012717D01*
X0314293Y0012664D01*
X0314219Y0012614D01*
X0314143Y0012568D01*
X0314065Y0012525D01*
X0313985Y0012486D01*
X0313903Y0012450D01*
X0313820Y0012418D01*
X0313736Y0012390D01*
X0313650Y0012365D01*
X0313563Y0012345D01*
X0313476Y0012328D01*
X0313387Y0012315D01*
X0313299Y0012306D01*
X0313210Y0012301D01*
X0313121Y0012300D01*
X0313032Y0012303D01*
X0312943Y0012310D01*
X0312854Y0012321D01*
X0312766Y0012336D01*
X0312679Y0012354D01*
X0312593Y0012377D01*
X0312508Y0012403D01*
X0312424Y0012434D01*
X0312342Y0012468D01*
X0312261Y0012505D01*
X0312182Y0012546D01*
X0312105Y0012591D01*
X0312030Y0012639D01*
X0311957Y0012690D01*
X0311886Y0012744D01*
X0311818Y0012802D01*
X0311753Y0012862D01*
X0311690Y0012926D01*
X0311630Y0012992D01*
X0311573Y0013061D01*
X0311520Y0013132D01*
X0311469Y0013205D01*
X0311422Y0013281D01*
X0311379Y0013358D01*
X0311338Y0013438D01*
X0311302Y0013519D01*
X0311269Y0013602D01*
X0311240Y0013686D01*
X0311214Y0013772D01*
X0311192Y0013858D01*
X0311175Y0013945D01*
X0311161Y0014033D01*
X0311151Y0014122D01*
X0311145Y0014211D01*
X0311143Y0014300D01*
X0330843Y0014300D02*
X0330845Y0014389D01*
X0330851Y0014478D01*
X0330861Y0014567D01*
X0330875Y0014655D01*
X0330892Y0014742D01*
X0330914Y0014828D01*
X0330940Y0014914D01*
X0330969Y0014998D01*
X0331002Y0015081D01*
X0331038Y0015162D01*
X0331079Y0015242D01*
X0331122Y0015319D01*
X0331169Y0015395D01*
X0331220Y0015468D01*
X0331273Y0015539D01*
X0331330Y0015608D01*
X0331390Y0015674D01*
X0331453Y0015738D01*
X0331518Y0015798D01*
X0331586Y0015856D01*
X0331657Y0015910D01*
X0331730Y0015961D01*
X0331805Y0016009D01*
X0331882Y0016054D01*
X0331961Y0016095D01*
X0332042Y0016132D01*
X0332124Y0016166D01*
X0332208Y0016197D01*
X0332293Y0016223D01*
X0332379Y0016246D01*
X0332466Y0016264D01*
X0332554Y0016279D01*
X0332643Y0016290D01*
X0332732Y0016297D01*
X0332821Y0016300D01*
X0332910Y0016299D01*
X0332999Y0016294D01*
X0333087Y0016285D01*
X0333176Y0016272D01*
X0333263Y0016255D01*
X0333350Y0016235D01*
X0333436Y0016210D01*
X0333520Y0016182D01*
X0333603Y0016150D01*
X0333685Y0016114D01*
X0333765Y0016075D01*
X0333843Y0016032D01*
X0333919Y0015986D01*
X0333993Y0015936D01*
X0334065Y0015883D01*
X0334134Y0015827D01*
X0334201Y0015768D01*
X0334265Y0015706D01*
X0334326Y0015642D01*
X0334385Y0015574D01*
X0334440Y0015504D01*
X0334492Y0015432D01*
X0334541Y0015357D01*
X0334586Y0015281D01*
X0334628Y0015202D01*
X0334666Y0015122D01*
X0334701Y0015040D01*
X0334732Y0014956D01*
X0334760Y0014871D01*
X0334783Y0014785D01*
X0334803Y0014698D01*
X0334819Y0014611D01*
X0334831Y0014522D01*
X0334839Y0014434D01*
X0334843Y0014345D01*
X0334843Y0014255D01*
X0334839Y0014166D01*
X0334831Y0014078D01*
X0334819Y0013989D01*
X0334803Y0013902D01*
X0334783Y0013815D01*
X0334760Y0013729D01*
X0334732Y0013644D01*
X0334701Y0013560D01*
X0334666Y0013478D01*
X0334628Y0013398D01*
X0334586Y0013319D01*
X0334541Y0013243D01*
X0334492Y0013168D01*
X0334440Y0013096D01*
X0334385Y0013026D01*
X0334326Y0012958D01*
X0334265Y0012894D01*
X0334201Y0012832D01*
X0334134Y0012773D01*
X0334065Y0012717D01*
X0333993Y0012664D01*
X0333919Y0012614D01*
X0333843Y0012568D01*
X0333765Y0012525D01*
X0333685Y0012486D01*
X0333603Y0012450D01*
X0333520Y0012418D01*
X0333436Y0012390D01*
X0333350Y0012365D01*
X0333263Y0012345D01*
X0333176Y0012328D01*
X0333087Y0012315D01*
X0332999Y0012306D01*
X0332910Y0012301D01*
X0332821Y0012300D01*
X0332732Y0012303D01*
X0332643Y0012310D01*
X0332554Y0012321D01*
X0332466Y0012336D01*
X0332379Y0012354D01*
X0332293Y0012377D01*
X0332208Y0012403D01*
X0332124Y0012434D01*
X0332042Y0012468D01*
X0331961Y0012505D01*
X0331882Y0012546D01*
X0331805Y0012591D01*
X0331730Y0012639D01*
X0331657Y0012690D01*
X0331586Y0012744D01*
X0331518Y0012802D01*
X0331453Y0012862D01*
X0331390Y0012926D01*
X0331330Y0012992D01*
X0331273Y0013061D01*
X0331220Y0013132D01*
X0331169Y0013205D01*
X0331122Y0013281D01*
X0331079Y0013358D01*
X0331038Y0013438D01*
X0331002Y0013519D01*
X0330969Y0013602D01*
X0330940Y0013686D01*
X0330914Y0013772D01*
X0330892Y0013858D01*
X0330875Y0013945D01*
X0330861Y0014033D01*
X0330851Y0014122D01*
X0330845Y0014211D01*
X0330843Y0014300D01*
X0342642Y0009098D02*
X0342642Y0035098D01*
X0336343Y0035098D01*
X0329343Y0035098D02*
X0316642Y0035098D01*
X0309642Y0035098D02*
X0303343Y0035098D01*
X0303343Y0044500D01*
X0342642Y0044500D01*
X0342642Y0035098D01*
X0341862Y0053300D02*
X0340795Y0054368D01*
X0340795Y0056503D01*
X0341862Y0057570D01*
X0342930Y0059745D02*
X0340795Y0061881D01*
X0342930Y0064016D01*
X0347200Y0064016D01*
X0347200Y0066191D02*
X0340795Y0066191D01*
X0342930Y0068326D01*
X0340795Y0070461D01*
X0347200Y0070461D01*
X0347200Y0072636D02*
X0347200Y0076907D01*
X0347200Y0079082D02*
X0340795Y0079082D01*
X0340795Y0082285D01*
X0341862Y0083352D01*
X0343997Y0083352D01*
X0345065Y0082285D01*
X0345065Y0079082D01*
X0345065Y0081217D02*
X0347200Y0083352D01*
X0347200Y0085527D02*
X0342930Y0085527D01*
X0340795Y0087663D01*
X0342930Y0089798D01*
X0347200Y0089798D01*
X0343997Y0089798D02*
X0343997Y0085527D01*
X0351295Y0087649D02*
X0351295Y0083379D01*
X0357700Y0083379D01*
X0354497Y0083379D02*
X0354497Y0085514D01*
X0354497Y0081204D02*
X0354497Y0076933D01*
X0351295Y0080136D01*
X0357700Y0080136D01*
X0357700Y0074758D02*
X0357700Y0070488D01*
X0353430Y0074758D01*
X0352362Y0074758D01*
X0351295Y0073691D01*
X0351295Y0071556D01*
X0352362Y0070488D01*
X0352362Y0068313D02*
X0351295Y0067245D01*
X0351295Y0065110D01*
X0352362Y0064042D01*
X0356632Y0064042D01*
X0357700Y0065110D01*
X0357700Y0067245D01*
X0356632Y0068313D01*
X0347200Y0072636D02*
X0340795Y0072636D01*
X0340795Y0076907D01*
X0343997Y0074772D02*
X0343997Y0072636D01*
X0343997Y0064016D02*
X0343997Y0059745D01*
X0342930Y0059745D02*
X0347200Y0059745D01*
X0346132Y0057570D02*
X0347200Y0056503D01*
X0347200Y0054368D01*
X0346132Y0053300D01*
X0341862Y0053300D01*
X0351295Y0053300D02*
X0351295Y0056503D01*
X0352362Y0057570D01*
X0354497Y0057570D01*
X0355565Y0056503D01*
X0355565Y0053300D01*
X0357700Y0053300D02*
X0351295Y0053300D01*
X0351295Y0059745D02*
X0351295Y0061881D01*
X0351295Y0060813D02*
X0357700Y0060813D01*
X0357700Y0059745D02*
X0357700Y0061881D01*
X0299500Y0073000D02*
X0299504Y0073331D01*
X0299516Y0073662D01*
X0299537Y0073993D01*
X0299565Y0074323D01*
X0299602Y0074653D01*
X0299646Y0074981D01*
X0299699Y0075308D01*
X0299759Y0075634D01*
X0299828Y0075958D01*
X0299905Y0076280D01*
X0299989Y0076601D01*
X0300081Y0076919D01*
X0300181Y0077235D01*
X0300289Y0077548D01*
X0300405Y0077859D01*
X0300528Y0078166D01*
X0300658Y0078471D01*
X0300796Y0078772D01*
X0300941Y0079070D01*
X0301094Y0079364D01*
X0301254Y0079654D01*
X0301421Y0079940D01*
X0301594Y0080222D01*
X0301775Y0080500D01*
X0301963Y0080773D01*
X0302157Y0081042D01*
X0302357Y0081306D01*
X0302564Y0081564D01*
X0302778Y0081818D01*
X0302997Y0082066D01*
X0303223Y0082309D01*
X0303454Y0082546D01*
X0303691Y0082777D01*
X0303934Y0083003D01*
X0304182Y0083222D01*
X0304436Y0083436D01*
X0304694Y0083643D01*
X0304958Y0083843D01*
X0305227Y0084037D01*
X0305500Y0084225D01*
X0305778Y0084406D01*
X0306060Y0084579D01*
X0306346Y0084746D01*
X0306636Y0084906D01*
X0306930Y0085059D01*
X0307228Y0085204D01*
X0307529Y0085342D01*
X0307834Y0085472D01*
X0308141Y0085595D01*
X0308452Y0085711D01*
X0308765Y0085819D01*
X0309081Y0085919D01*
X0309399Y0086011D01*
X0309720Y0086095D01*
X0310042Y0086172D01*
X0310366Y0086241D01*
X0310692Y0086301D01*
X0311019Y0086354D01*
X0311347Y0086398D01*
X0311677Y0086435D01*
X0312007Y0086463D01*
X0312338Y0086484D01*
X0312669Y0086496D01*
X0313000Y0086500D01*
X0313331Y0086496D01*
X0313662Y0086484D01*
X0313993Y0086463D01*
X0314323Y0086435D01*
X0314653Y0086398D01*
X0314981Y0086354D01*
X0315308Y0086301D01*
X0315634Y0086241D01*
X0315958Y0086172D01*
X0316280Y0086095D01*
X0316601Y0086011D01*
X0316919Y0085919D01*
X0317235Y0085819D01*
X0317548Y0085711D01*
X0317859Y0085595D01*
X0318166Y0085472D01*
X0318471Y0085342D01*
X0318772Y0085204D01*
X0319070Y0085059D01*
X0319364Y0084906D01*
X0319654Y0084746D01*
X0319940Y0084579D01*
X0320222Y0084406D01*
X0320500Y0084225D01*
X0320773Y0084037D01*
X0321042Y0083843D01*
X0321306Y0083643D01*
X0321564Y0083436D01*
X0321818Y0083222D01*
X0322066Y0083003D01*
X0322309Y0082777D01*
X0322546Y0082546D01*
X0322777Y0082309D01*
X0323003Y0082066D01*
X0323222Y0081818D01*
X0323436Y0081564D01*
X0323643Y0081306D01*
X0323843Y0081042D01*
X0324037Y0080773D01*
X0324225Y0080500D01*
X0324406Y0080222D01*
X0324579Y0079940D01*
X0324746Y0079654D01*
X0324906Y0079364D01*
X0325059Y0079070D01*
X0325204Y0078772D01*
X0325342Y0078471D01*
X0325472Y0078166D01*
X0325595Y0077859D01*
X0325711Y0077548D01*
X0325819Y0077235D01*
X0325919Y0076919D01*
X0326011Y0076601D01*
X0326095Y0076280D01*
X0326172Y0075958D01*
X0326241Y0075634D01*
X0326301Y0075308D01*
X0326354Y0074981D01*
X0326398Y0074653D01*
X0326435Y0074323D01*
X0326463Y0073993D01*
X0326484Y0073662D01*
X0326496Y0073331D01*
X0326500Y0073000D01*
X0326496Y0072669D01*
X0326484Y0072338D01*
X0326463Y0072007D01*
X0326435Y0071677D01*
X0326398Y0071347D01*
X0326354Y0071019D01*
X0326301Y0070692D01*
X0326241Y0070366D01*
X0326172Y0070042D01*
X0326095Y0069720D01*
X0326011Y0069399D01*
X0325919Y0069081D01*
X0325819Y0068765D01*
X0325711Y0068452D01*
X0325595Y0068141D01*
X0325472Y0067834D01*
X0325342Y0067529D01*
X0325204Y0067228D01*
X0325059Y0066930D01*
X0324906Y0066636D01*
X0324746Y0066346D01*
X0324579Y0066060D01*
X0324406Y0065778D01*
X0324225Y0065500D01*
X0324037Y0065227D01*
X0323843Y0064958D01*
X0323643Y0064694D01*
X0323436Y0064436D01*
X0323222Y0064182D01*
X0323003Y0063934D01*
X0322777Y0063691D01*
X0322546Y0063454D01*
X0322309Y0063223D01*
X0322066Y0062997D01*
X0321818Y0062778D01*
X0321564Y0062564D01*
X0321306Y0062357D01*
X0321042Y0062157D01*
X0320773Y0061963D01*
X0320500Y0061775D01*
X0320222Y0061594D01*
X0319940Y0061421D01*
X0319654Y0061254D01*
X0319364Y0061094D01*
X0319070Y0060941D01*
X0318772Y0060796D01*
X0318471Y0060658D01*
X0318166Y0060528D01*
X0317859Y0060405D01*
X0317548Y0060289D01*
X0317235Y0060181D01*
X0316919Y0060081D01*
X0316601Y0059989D01*
X0316280Y0059905D01*
X0315958Y0059828D01*
X0315634Y0059759D01*
X0315308Y0059699D01*
X0314981Y0059646D01*
X0314653Y0059602D01*
X0314323Y0059565D01*
X0313993Y0059537D01*
X0313662Y0059516D01*
X0313331Y0059504D01*
X0313000Y0059500D01*
X0312669Y0059504D01*
X0312338Y0059516D01*
X0312007Y0059537D01*
X0311677Y0059565D01*
X0311347Y0059602D01*
X0311019Y0059646D01*
X0310692Y0059699D01*
X0310366Y0059759D01*
X0310042Y0059828D01*
X0309720Y0059905D01*
X0309399Y0059989D01*
X0309081Y0060081D01*
X0308765Y0060181D01*
X0308452Y0060289D01*
X0308141Y0060405D01*
X0307834Y0060528D01*
X0307529Y0060658D01*
X0307228Y0060796D01*
X0306930Y0060941D01*
X0306636Y0061094D01*
X0306346Y0061254D01*
X0306060Y0061421D01*
X0305778Y0061594D01*
X0305500Y0061775D01*
X0305227Y0061963D01*
X0304958Y0062157D01*
X0304694Y0062357D01*
X0304436Y0062564D01*
X0304182Y0062778D01*
X0303934Y0062997D01*
X0303691Y0063223D01*
X0303454Y0063454D01*
X0303223Y0063691D01*
X0302997Y0063934D01*
X0302778Y0064182D01*
X0302564Y0064436D01*
X0302357Y0064694D01*
X0302157Y0064958D01*
X0301963Y0065227D01*
X0301775Y0065500D01*
X0301594Y0065778D01*
X0301421Y0066060D01*
X0301254Y0066346D01*
X0301094Y0066636D01*
X0300941Y0066930D01*
X0300796Y0067228D01*
X0300658Y0067529D01*
X0300528Y0067834D01*
X0300405Y0068141D01*
X0300289Y0068452D01*
X0300181Y0068765D01*
X0300081Y0069081D01*
X0299989Y0069399D01*
X0299905Y0069720D01*
X0299828Y0070042D01*
X0299759Y0070366D01*
X0299699Y0070692D01*
X0299646Y0071019D01*
X0299602Y0071347D01*
X0299565Y0071677D01*
X0299537Y0072007D01*
X0299516Y0072338D01*
X0299504Y0072669D01*
X0299500Y0073000D01*
X0301000Y0073000D02*
X0304000Y0073000D01*
X0302500Y0071500D02*
X0302500Y0074500D01*
X0255900Y0077000D02*
X0255902Y0077174D01*
X0255909Y0077348D01*
X0255919Y0077522D01*
X0255934Y0077696D01*
X0255953Y0077869D01*
X0255977Y0078042D01*
X0256005Y0078214D01*
X0256036Y0078385D01*
X0256073Y0078556D01*
X0256113Y0078725D01*
X0256157Y0078894D01*
X0256206Y0079061D01*
X0256258Y0079227D01*
X0256315Y0079392D01*
X0256376Y0079555D01*
X0256440Y0079717D01*
X0256509Y0079877D01*
X0256582Y0080036D01*
X0256658Y0080192D01*
X0256738Y0080347D01*
X0256822Y0080500D01*
X0256910Y0080650D01*
X0257002Y0080798D01*
X0257097Y0080945D01*
X0257195Y0081088D01*
X0257297Y0081229D01*
X0257403Y0081368D01*
X0257512Y0081504D01*
X0257624Y0081638D01*
X0257739Y0081768D01*
X0257858Y0081896D01*
X0257980Y0082020D01*
X0258104Y0082142D01*
X0258232Y0082261D01*
X0258362Y0082376D01*
X0258496Y0082488D01*
X0258632Y0082597D01*
X0258771Y0082703D01*
X0258912Y0082805D01*
X0259055Y0082903D01*
X0259202Y0082998D01*
X0259350Y0083090D01*
X0259500Y0083178D01*
X0259653Y0083262D01*
X0259808Y0083342D01*
X0259964Y0083418D01*
X0260123Y0083491D01*
X0260283Y0083560D01*
X0260445Y0083624D01*
X0260608Y0083685D01*
X0260773Y0083742D01*
X0260939Y0083794D01*
X0261106Y0083843D01*
X0261275Y0083887D01*
X0261444Y0083927D01*
X0261615Y0083964D01*
X0261786Y0083995D01*
X0261958Y0084023D01*
X0262131Y0084047D01*
X0262304Y0084066D01*
X0262478Y0084081D01*
X0262652Y0084091D01*
X0262826Y0084098D01*
X0263000Y0084100D01*
X0263174Y0084098D01*
X0263348Y0084091D01*
X0263522Y0084081D01*
X0263696Y0084066D01*
X0263869Y0084047D01*
X0264042Y0084023D01*
X0264214Y0083995D01*
X0264385Y0083964D01*
X0264556Y0083927D01*
X0264725Y0083887D01*
X0264894Y0083843D01*
X0265061Y0083794D01*
X0265227Y0083742D01*
X0265392Y0083685D01*
X0265555Y0083624D01*
X0265717Y0083560D01*
X0265877Y0083491D01*
X0266036Y0083418D01*
X0266192Y0083342D01*
X0266347Y0083262D01*
X0266500Y0083178D01*
X0266650Y0083090D01*
X0266798Y0082998D01*
X0266945Y0082903D01*
X0267088Y0082805D01*
X0267229Y0082703D01*
X0267368Y0082597D01*
X0267504Y0082488D01*
X0267638Y0082376D01*
X0267768Y0082261D01*
X0267896Y0082142D01*
X0268020Y0082020D01*
X0268142Y0081896D01*
X0268261Y0081768D01*
X0268376Y0081638D01*
X0268488Y0081504D01*
X0268597Y0081368D01*
X0268703Y0081229D01*
X0268805Y0081088D01*
X0268903Y0080945D01*
X0268998Y0080798D01*
X0269090Y0080650D01*
X0269178Y0080500D01*
X0269262Y0080347D01*
X0269342Y0080192D01*
X0269418Y0080036D01*
X0269491Y0079877D01*
X0269560Y0079717D01*
X0269624Y0079555D01*
X0269685Y0079392D01*
X0269742Y0079227D01*
X0269794Y0079061D01*
X0269843Y0078894D01*
X0269887Y0078725D01*
X0269927Y0078556D01*
X0269964Y0078385D01*
X0269995Y0078214D01*
X0270023Y0078042D01*
X0270047Y0077869D01*
X0270066Y0077696D01*
X0270081Y0077522D01*
X0270091Y0077348D01*
X0270098Y0077174D01*
X0270100Y0077000D01*
X0270098Y0076826D01*
X0270091Y0076652D01*
X0270081Y0076478D01*
X0270066Y0076304D01*
X0270047Y0076131D01*
X0270023Y0075958D01*
X0269995Y0075786D01*
X0269964Y0075615D01*
X0269927Y0075444D01*
X0269887Y0075275D01*
X0269843Y0075106D01*
X0269794Y0074939D01*
X0269742Y0074773D01*
X0269685Y0074608D01*
X0269624Y0074445D01*
X0269560Y0074283D01*
X0269491Y0074123D01*
X0269418Y0073964D01*
X0269342Y0073808D01*
X0269262Y0073653D01*
X0269178Y0073500D01*
X0269090Y0073350D01*
X0268998Y0073202D01*
X0268903Y0073055D01*
X0268805Y0072912D01*
X0268703Y0072771D01*
X0268597Y0072632D01*
X0268488Y0072496D01*
X0268376Y0072362D01*
X0268261Y0072232D01*
X0268142Y0072104D01*
X0268020Y0071980D01*
X0267896Y0071858D01*
X0267768Y0071739D01*
X0267638Y0071624D01*
X0267504Y0071512D01*
X0267368Y0071403D01*
X0267229Y0071297D01*
X0267088Y0071195D01*
X0266945Y0071097D01*
X0266798Y0071002D01*
X0266650Y0070910D01*
X0266500Y0070822D01*
X0266347Y0070738D01*
X0266192Y0070658D01*
X0266036Y0070582D01*
X0265877Y0070509D01*
X0265717Y0070440D01*
X0265555Y0070376D01*
X0265392Y0070315D01*
X0265227Y0070258D01*
X0265061Y0070206D01*
X0264894Y0070157D01*
X0264725Y0070113D01*
X0264556Y0070073D01*
X0264385Y0070036D01*
X0264214Y0070005D01*
X0264042Y0069977D01*
X0263869Y0069953D01*
X0263696Y0069934D01*
X0263522Y0069919D01*
X0263348Y0069909D01*
X0263174Y0069902D01*
X0263000Y0069900D01*
X0262826Y0069902D01*
X0262652Y0069909D01*
X0262478Y0069919D01*
X0262304Y0069934D01*
X0262131Y0069953D01*
X0261958Y0069977D01*
X0261786Y0070005D01*
X0261615Y0070036D01*
X0261444Y0070073D01*
X0261275Y0070113D01*
X0261106Y0070157D01*
X0260939Y0070206D01*
X0260773Y0070258D01*
X0260608Y0070315D01*
X0260445Y0070376D01*
X0260283Y0070440D01*
X0260123Y0070509D01*
X0259964Y0070582D01*
X0259808Y0070658D01*
X0259653Y0070738D01*
X0259500Y0070822D01*
X0259350Y0070910D01*
X0259202Y0071002D01*
X0259055Y0071097D01*
X0258912Y0071195D01*
X0258771Y0071297D01*
X0258632Y0071403D01*
X0258496Y0071512D01*
X0258362Y0071624D01*
X0258232Y0071739D01*
X0258104Y0071858D01*
X0257980Y0071980D01*
X0257858Y0072104D01*
X0257739Y0072232D01*
X0257624Y0072362D01*
X0257512Y0072496D01*
X0257403Y0072632D01*
X0257297Y0072771D01*
X0257195Y0072912D01*
X0257097Y0073055D01*
X0257002Y0073202D01*
X0256910Y0073350D01*
X0256822Y0073500D01*
X0256738Y0073653D01*
X0256658Y0073808D01*
X0256582Y0073964D01*
X0256509Y0074123D01*
X0256440Y0074283D01*
X0256376Y0074445D01*
X0256315Y0074608D01*
X0256258Y0074773D01*
X0256206Y0074939D01*
X0256157Y0075106D01*
X0256113Y0075275D01*
X0256073Y0075444D01*
X0256036Y0075615D01*
X0256005Y0075786D01*
X0255977Y0075958D01*
X0255953Y0076131D01*
X0255934Y0076304D01*
X0255919Y0076478D01*
X0255909Y0076652D01*
X0255902Y0076826D01*
X0255900Y0077000D01*
X0235000Y0076000D02*
X0235000Y0062000D01*
X0235000Y0076000D02*
X0234000Y0076000D01*
X0249500Y0098000D02*
X0266500Y0098000D01*
X0266560Y0098002D01*
X0266621Y0098007D01*
X0266680Y0098016D01*
X0266739Y0098029D01*
X0266798Y0098045D01*
X0266855Y0098065D01*
X0266910Y0098088D01*
X0266965Y0098115D01*
X0267017Y0098144D01*
X0267068Y0098177D01*
X0267117Y0098213D01*
X0267163Y0098251D01*
X0267207Y0098293D01*
X0267249Y0098337D01*
X0267287Y0098383D01*
X0267323Y0098432D01*
X0267356Y0098483D01*
X0267385Y0098535D01*
X0267412Y0098590D01*
X0267435Y0098645D01*
X0267455Y0098702D01*
X0267471Y0098761D01*
X0267484Y0098820D01*
X0267493Y0098879D01*
X0267498Y0098940D01*
X0267500Y0099000D01*
X0267500Y0107000D01*
X0267498Y0107060D01*
X0267493Y0107121D01*
X0267484Y0107180D01*
X0267471Y0107239D01*
X0267455Y0107298D01*
X0267435Y0107355D01*
X0267412Y0107410D01*
X0267385Y0107465D01*
X0267356Y0107517D01*
X0267323Y0107568D01*
X0267287Y0107617D01*
X0267249Y0107663D01*
X0267207Y0107707D01*
X0267163Y0107749D01*
X0267117Y0107787D01*
X0267068Y0107823D01*
X0267017Y0107856D01*
X0266965Y0107885D01*
X0266910Y0107912D01*
X0266855Y0107935D01*
X0266798Y0107955D01*
X0266739Y0107971D01*
X0266680Y0107984D01*
X0266621Y0107993D01*
X0266560Y0107998D01*
X0266500Y0108000D01*
X0249500Y0108000D01*
X0249440Y0107998D01*
X0249379Y0107993D01*
X0249320Y0107984D01*
X0249261Y0107971D01*
X0249202Y0107955D01*
X0249145Y0107935D01*
X0249090Y0107912D01*
X0249035Y0107885D01*
X0248983Y0107856D01*
X0248932Y0107823D01*
X0248883Y0107787D01*
X0248837Y0107749D01*
X0248793Y0107707D01*
X0248751Y0107663D01*
X0248713Y0107617D01*
X0248677Y0107568D01*
X0248644Y0107517D01*
X0248615Y0107465D01*
X0248588Y0107410D01*
X0248565Y0107355D01*
X0248545Y0107298D01*
X0248529Y0107239D01*
X0248516Y0107180D01*
X0248507Y0107121D01*
X0248502Y0107060D01*
X0248500Y0107000D01*
X0248500Y0099000D01*
X0248502Y0098940D01*
X0248507Y0098879D01*
X0248516Y0098820D01*
X0248529Y0098761D01*
X0248545Y0098702D01*
X0248565Y0098645D01*
X0248588Y0098590D01*
X0248615Y0098535D01*
X0248644Y0098483D01*
X0248677Y0098432D01*
X0248713Y0098383D01*
X0248751Y0098337D01*
X0248793Y0098293D01*
X0248837Y0098251D01*
X0248883Y0098213D01*
X0248932Y0098177D01*
X0248983Y0098144D01*
X0249035Y0098115D01*
X0249090Y0098088D01*
X0249145Y0098065D01*
X0249202Y0098045D01*
X0249261Y0098029D01*
X0249320Y0098016D01*
X0249379Y0098007D01*
X0249440Y0098002D01*
X0249500Y0098000D01*
X0256500Y0103000D02*
X0257000Y0103000D01*
X0259000Y0103000D02*
X0259500Y0103000D01*
X0283500Y0107000D02*
X0283500Y0099000D01*
X0283502Y0098940D01*
X0283507Y0098879D01*
X0283516Y0098820D01*
X0283529Y0098761D01*
X0283545Y0098702D01*
X0283565Y0098645D01*
X0283588Y0098590D01*
X0283615Y0098535D01*
X0283644Y0098483D01*
X0283677Y0098432D01*
X0283713Y0098383D01*
X0283751Y0098337D01*
X0283793Y0098293D01*
X0283837Y0098251D01*
X0283883Y0098213D01*
X0283932Y0098177D01*
X0283983Y0098144D01*
X0284035Y0098115D01*
X0284090Y0098088D01*
X0284145Y0098065D01*
X0284202Y0098045D01*
X0284261Y0098029D01*
X0284320Y0098016D01*
X0284379Y0098007D01*
X0284440Y0098002D01*
X0284500Y0098000D01*
X0301500Y0098000D01*
X0301560Y0098002D01*
X0301621Y0098007D01*
X0301680Y0098016D01*
X0301739Y0098029D01*
X0301798Y0098045D01*
X0301855Y0098065D01*
X0301910Y0098088D01*
X0301965Y0098115D01*
X0302017Y0098144D01*
X0302068Y0098177D01*
X0302117Y0098213D01*
X0302163Y0098251D01*
X0302207Y0098293D01*
X0302249Y0098337D01*
X0302287Y0098383D01*
X0302323Y0098432D01*
X0302356Y0098483D01*
X0302385Y0098535D01*
X0302412Y0098590D01*
X0302435Y0098645D01*
X0302455Y0098702D01*
X0302471Y0098761D01*
X0302484Y0098820D01*
X0302493Y0098879D01*
X0302498Y0098940D01*
X0302500Y0099000D01*
X0302500Y0107000D01*
X0302498Y0107060D01*
X0302493Y0107121D01*
X0302484Y0107180D01*
X0302471Y0107239D01*
X0302455Y0107298D01*
X0302435Y0107355D01*
X0302412Y0107410D01*
X0302385Y0107465D01*
X0302356Y0107517D01*
X0302323Y0107568D01*
X0302287Y0107617D01*
X0302249Y0107663D01*
X0302207Y0107707D01*
X0302163Y0107749D01*
X0302117Y0107787D01*
X0302068Y0107823D01*
X0302017Y0107856D01*
X0301965Y0107885D01*
X0301910Y0107912D01*
X0301855Y0107935D01*
X0301798Y0107955D01*
X0301739Y0107971D01*
X0301680Y0107984D01*
X0301621Y0107993D01*
X0301560Y0107998D01*
X0301500Y0108000D01*
X0284500Y0108000D01*
X0284440Y0107998D01*
X0284379Y0107993D01*
X0284320Y0107984D01*
X0284261Y0107971D01*
X0284202Y0107955D01*
X0284145Y0107935D01*
X0284090Y0107912D01*
X0284035Y0107885D01*
X0283983Y0107856D01*
X0283932Y0107823D01*
X0283883Y0107787D01*
X0283837Y0107749D01*
X0283793Y0107707D01*
X0283751Y0107663D01*
X0283713Y0107617D01*
X0283677Y0107568D01*
X0283644Y0107517D01*
X0283615Y0107465D01*
X0283588Y0107410D01*
X0283565Y0107355D01*
X0283545Y0107298D01*
X0283529Y0107239D01*
X0283516Y0107180D01*
X0283507Y0107121D01*
X0283502Y0107060D01*
X0283500Y0107000D01*
X0291500Y0103000D02*
X0292000Y0103000D01*
X0294000Y0103000D02*
X0294500Y0103000D01*
X0318000Y0100500D02*
X0320500Y0098000D01*
X0325500Y0098000D01*
X0328000Y0100500D01*
X0328000Y0105500D01*
X0325500Y0108000D01*
X0328000Y0110500D01*
X0328000Y0115500D01*
X0325500Y0118000D01*
X0328000Y0120500D01*
X0328000Y0125500D01*
X0325500Y0128000D01*
X0328000Y0130500D01*
X0328000Y0135500D01*
X0325500Y0138000D01*
X0328000Y0140500D01*
X0328000Y0145500D01*
X0325500Y0148000D01*
X0328000Y0150500D01*
X0328000Y0155500D01*
X0325500Y0158000D01*
X0320500Y0158000D01*
X0318000Y0155500D01*
X0318000Y0150500D01*
X0320500Y0148000D01*
X0318000Y0145500D01*
X0318000Y0140500D01*
X0320500Y0138000D01*
X0318000Y0135500D01*
X0318000Y0130500D01*
X0320500Y0128000D01*
X0318000Y0125500D01*
X0318000Y0120500D01*
X0320500Y0118000D01*
X0318000Y0115500D01*
X0318000Y0110500D01*
X0320500Y0108000D01*
X0318000Y0105500D01*
X0318000Y0100500D01*
X0340795Y0099486D02*
X0341862Y0098418D01*
X0342930Y0098418D01*
X0343997Y0099486D01*
X0343997Y0101621D01*
X0345065Y0102689D01*
X0346132Y0102689D01*
X0347200Y0101621D01*
X0347200Y0099486D01*
X0346132Y0098418D01*
X0351295Y0099473D02*
X0351295Y0097338D01*
X0352362Y0096270D01*
X0351295Y0094095D02*
X0355565Y0094095D01*
X0357700Y0091960D01*
X0355565Y0089824D01*
X0351295Y0089824D01*
X0356632Y0096270D02*
X0357700Y0097338D01*
X0357700Y0099473D01*
X0356632Y0100540D01*
X0355565Y0100540D01*
X0354497Y0099473D01*
X0354497Y0098405D01*
X0354497Y0099473D02*
X0353430Y0100540D01*
X0352362Y0100540D01*
X0351295Y0099473D01*
X0352362Y0102715D02*
X0351295Y0103783D01*
X0351295Y0105918D01*
X0352362Y0106986D01*
X0353430Y0106986D01*
X0357700Y0102715D01*
X0357700Y0106986D01*
X0357700Y0109161D02*
X0351295Y0109161D01*
X0354497Y0110229D02*
X0357700Y0113431D01*
X0357700Y0115606D02*
X0353430Y0115606D01*
X0351295Y0117742D01*
X0353430Y0119877D01*
X0357700Y0119877D01*
X0356632Y0122052D02*
X0357700Y0123120D01*
X0357700Y0125255D01*
X0356632Y0126322D01*
X0355565Y0126322D01*
X0354497Y0125255D01*
X0354497Y0124187D01*
X0354497Y0125255D02*
X0353430Y0126322D01*
X0352362Y0126322D01*
X0351295Y0125255D01*
X0351295Y0123120D01*
X0352362Y0122052D01*
X0354497Y0119877D02*
X0354497Y0115606D01*
X0351295Y0113431D02*
X0355565Y0109161D01*
X0347200Y0109134D02*
X0347200Y0104864D01*
X0340795Y0104864D01*
X0341862Y0102689D02*
X0340795Y0101621D01*
X0340795Y0099486D01*
X0340795Y0111309D02*
X0340795Y0113445D01*
X0340795Y0112377D02*
X0347200Y0112377D01*
X0347200Y0111309D02*
X0347200Y0113445D01*
X0347200Y0115606D02*
X0347200Y0118809D01*
X0346132Y0119877D01*
X0341862Y0119877D01*
X0340795Y0118809D01*
X0340795Y0115606D01*
X0347200Y0115606D01*
X0347200Y0122052D02*
X0340795Y0122052D01*
X0340795Y0126322D01*
X0343997Y0124187D02*
X0343997Y0122052D01*
X0347200Y0122052D02*
X0347200Y0126322D01*
X0349335Y0128497D02*
X0347200Y0130633D01*
X0347200Y0129565D01*
X0346132Y0129565D01*
X0346132Y0130633D01*
X0347200Y0130633D01*
X0351295Y0129565D02*
X0351295Y0131700D01*
X0352362Y0132768D01*
X0356632Y0128497D01*
X0357700Y0129565D01*
X0357700Y0131700D01*
X0356632Y0132768D01*
X0352362Y0132768D01*
X0352362Y0134943D02*
X0351295Y0136011D01*
X0351295Y0138146D01*
X0352362Y0139213D01*
X0353430Y0139213D01*
X0357700Y0134943D01*
X0357700Y0139213D01*
X0347200Y0141375D02*
X0342930Y0143510D01*
X0341862Y0145685D02*
X0340795Y0146753D01*
X0340795Y0148888D01*
X0341862Y0149956D01*
X0346132Y0145685D01*
X0347200Y0146753D01*
X0347200Y0148888D01*
X0346132Y0149956D01*
X0341862Y0149956D01*
X0346132Y0152131D02*
X0346132Y0153199D01*
X0347200Y0153199D01*
X0347200Y0152131D01*
X0346132Y0152131D01*
X0347200Y0155354D02*
X0342930Y0159624D01*
X0341862Y0159624D01*
X0340795Y0158556D01*
X0340795Y0156421D01*
X0341862Y0155354D01*
X0347200Y0155354D02*
X0347200Y0159624D01*
X0341500Y0171000D02*
X0337500Y0171000D01*
X0328000Y0171000D01*
X0324500Y0171000D01*
X0321000Y0179000D02*
X0321000Y0180000D01*
X0320000Y0180000D01*
X0320000Y0186000D01*
X0321000Y0186000D01*
X0321000Y0187000D01*
X0332000Y0183000D02*
X0332002Y0183063D01*
X0332008Y0183125D01*
X0332018Y0183187D01*
X0332031Y0183249D01*
X0332049Y0183309D01*
X0332070Y0183368D01*
X0332095Y0183426D01*
X0332124Y0183482D01*
X0332156Y0183536D01*
X0332191Y0183588D01*
X0332229Y0183637D01*
X0332271Y0183685D01*
X0332315Y0183729D01*
X0332363Y0183771D01*
X0332412Y0183809D01*
X0332464Y0183844D01*
X0332518Y0183876D01*
X0332574Y0183905D01*
X0332632Y0183930D01*
X0332691Y0183951D01*
X0332751Y0183969D01*
X0332813Y0183982D01*
X0332875Y0183992D01*
X0332937Y0183998D01*
X0333000Y0184000D01*
X0333063Y0183998D01*
X0333125Y0183992D01*
X0333187Y0183982D01*
X0333249Y0183969D01*
X0333309Y0183951D01*
X0333368Y0183930D01*
X0333426Y0183905D01*
X0333482Y0183876D01*
X0333536Y0183844D01*
X0333588Y0183809D01*
X0333637Y0183771D01*
X0333685Y0183729D01*
X0333729Y0183685D01*
X0333771Y0183637D01*
X0333809Y0183588D01*
X0333844Y0183536D01*
X0333876Y0183482D01*
X0333905Y0183426D01*
X0333930Y0183368D01*
X0333951Y0183309D01*
X0333969Y0183249D01*
X0333982Y0183187D01*
X0333992Y0183125D01*
X0333998Y0183063D01*
X0334000Y0183000D01*
X0333998Y0182937D01*
X0333992Y0182875D01*
X0333982Y0182813D01*
X0333969Y0182751D01*
X0333951Y0182691D01*
X0333930Y0182632D01*
X0333905Y0182574D01*
X0333876Y0182518D01*
X0333844Y0182464D01*
X0333809Y0182412D01*
X0333771Y0182363D01*
X0333729Y0182315D01*
X0333685Y0182271D01*
X0333637Y0182229D01*
X0333588Y0182191D01*
X0333536Y0182156D01*
X0333482Y0182124D01*
X0333426Y0182095D01*
X0333368Y0182070D01*
X0333309Y0182049D01*
X0333249Y0182031D01*
X0333187Y0182018D01*
X0333125Y0182008D01*
X0333063Y0182002D01*
X0333000Y0182000D01*
X0332937Y0182002D01*
X0332875Y0182008D01*
X0332813Y0182018D01*
X0332751Y0182031D01*
X0332691Y0182049D01*
X0332632Y0182070D01*
X0332574Y0182095D01*
X0332518Y0182124D01*
X0332464Y0182156D01*
X0332412Y0182191D01*
X0332363Y0182229D01*
X0332315Y0182271D01*
X0332271Y0182315D01*
X0332229Y0182363D01*
X0332191Y0182412D01*
X0332156Y0182464D01*
X0332124Y0182518D01*
X0332095Y0182574D01*
X0332070Y0182632D01*
X0332049Y0182691D01*
X0332031Y0182751D01*
X0332018Y0182813D01*
X0332008Y0182875D01*
X0332002Y0182937D01*
X0332000Y0183000D01*
X0326000Y0183000D02*
X0326002Y0183172D01*
X0326008Y0183343D01*
X0326019Y0183515D01*
X0326034Y0183686D01*
X0326053Y0183857D01*
X0326076Y0184027D01*
X0326103Y0184197D01*
X0326135Y0184366D01*
X0326170Y0184534D01*
X0326210Y0184701D01*
X0326254Y0184867D01*
X0326301Y0185032D01*
X0326353Y0185196D01*
X0326409Y0185358D01*
X0326469Y0185519D01*
X0326533Y0185679D01*
X0326601Y0185837D01*
X0326672Y0185993D01*
X0326747Y0186147D01*
X0326827Y0186300D01*
X0326909Y0186450D01*
X0326996Y0186599D01*
X0327086Y0186745D01*
X0327180Y0186889D01*
X0327277Y0187031D01*
X0327378Y0187170D01*
X0327482Y0187307D01*
X0327589Y0187441D01*
X0327700Y0187572D01*
X0327813Y0187701D01*
X0327930Y0187827D01*
X0328050Y0187950D01*
X0328173Y0188070D01*
X0328299Y0188187D01*
X0328428Y0188300D01*
X0328559Y0188411D01*
X0328693Y0188518D01*
X0328830Y0188622D01*
X0328969Y0188723D01*
X0329111Y0188820D01*
X0329255Y0188914D01*
X0329401Y0189004D01*
X0329550Y0189091D01*
X0329700Y0189173D01*
X0329853Y0189253D01*
X0330007Y0189328D01*
X0330163Y0189399D01*
X0330321Y0189467D01*
X0330481Y0189531D01*
X0330642Y0189591D01*
X0330804Y0189647D01*
X0330968Y0189699D01*
X0331133Y0189746D01*
X0331299Y0189790D01*
X0331466Y0189830D01*
X0331634Y0189865D01*
X0331803Y0189897D01*
X0331973Y0189924D01*
X0332143Y0189947D01*
X0332314Y0189966D01*
X0332485Y0189981D01*
X0332657Y0189992D01*
X0332828Y0189998D01*
X0333000Y0190000D01*
X0333172Y0189998D01*
X0333343Y0189992D01*
X0333515Y0189981D01*
X0333686Y0189966D01*
X0333857Y0189947D01*
X0334027Y0189924D01*
X0334197Y0189897D01*
X0334366Y0189865D01*
X0334534Y0189830D01*
X0334701Y0189790D01*
X0334867Y0189746D01*
X0335032Y0189699D01*
X0335196Y0189647D01*
X0335358Y0189591D01*
X0335519Y0189531D01*
X0335679Y0189467D01*
X0335837Y0189399D01*
X0335993Y0189328D01*
X0336147Y0189253D01*
X0336300Y0189173D01*
X0336450Y0189091D01*
X0336599Y0189004D01*
X0336745Y0188914D01*
X0336889Y0188820D01*
X0337031Y0188723D01*
X0337170Y0188622D01*
X0337307Y0188518D01*
X0337441Y0188411D01*
X0337572Y0188300D01*
X0337701Y0188187D01*
X0337827Y0188070D01*
X0337950Y0187950D01*
X0338070Y0187827D01*
X0338187Y0187701D01*
X0338300Y0187572D01*
X0338411Y0187441D01*
X0338518Y0187307D01*
X0338622Y0187170D01*
X0338723Y0187031D01*
X0338820Y0186889D01*
X0338914Y0186745D01*
X0339004Y0186599D01*
X0339091Y0186450D01*
X0339173Y0186300D01*
X0339253Y0186147D01*
X0339328Y0185993D01*
X0339399Y0185837D01*
X0339467Y0185679D01*
X0339531Y0185519D01*
X0339591Y0185358D01*
X0339647Y0185196D01*
X0339699Y0185032D01*
X0339746Y0184867D01*
X0339790Y0184701D01*
X0339830Y0184534D01*
X0339865Y0184366D01*
X0339897Y0184197D01*
X0339924Y0184027D01*
X0339947Y0183857D01*
X0339966Y0183686D01*
X0339981Y0183515D01*
X0339992Y0183343D01*
X0339998Y0183172D01*
X0340000Y0183000D01*
X0339998Y0182828D01*
X0339992Y0182657D01*
X0339981Y0182485D01*
X0339966Y0182314D01*
X0339947Y0182143D01*
X0339924Y0181973D01*
X0339897Y0181803D01*
X0339865Y0181634D01*
X0339830Y0181466D01*
X0339790Y0181299D01*
X0339746Y0181133D01*
X0339699Y0180968D01*
X0339647Y0180804D01*
X0339591Y0180642D01*
X0339531Y0180481D01*
X0339467Y0180321D01*
X0339399Y0180163D01*
X0339328Y0180007D01*
X0339253Y0179853D01*
X0339173Y0179700D01*
X0339091Y0179550D01*
X0339004Y0179401D01*
X0338914Y0179255D01*
X0338820Y0179111D01*
X0338723Y0178969D01*
X0338622Y0178830D01*
X0338518Y0178693D01*
X0338411Y0178559D01*
X0338300Y0178428D01*
X0338187Y0178299D01*
X0338070Y0178173D01*
X0337950Y0178050D01*
X0337827Y0177930D01*
X0337701Y0177813D01*
X0337572Y0177700D01*
X0337441Y0177589D01*
X0337307Y0177482D01*
X0337170Y0177378D01*
X0337031Y0177277D01*
X0336889Y0177180D01*
X0336745Y0177086D01*
X0336599Y0176996D01*
X0336450Y0176909D01*
X0336300Y0176827D01*
X0336147Y0176747D01*
X0335993Y0176672D01*
X0335837Y0176601D01*
X0335679Y0176533D01*
X0335519Y0176469D01*
X0335358Y0176409D01*
X0335196Y0176353D01*
X0335032Y0176301D01*
X0334867Y0176254D01*
X0334701Y0176210D01*
X0334534Y0176170D01*
X0334366Y0176135D01*
X0334197Y0176103D01*
X0334027Y0176076D01*
X0333857Y0176053D01*
X0333686Y0176034D01*
X0333515Y0176019D01*
X0333343Y0176008D01*
X0333172Y0176002D01*
X0333000Y0176000D01*
X0332828Y0176002D01*
X0332657Y0176008D01*
X0332485Y0176019D01*
X0332314Y0176034D01*
X0332143Y0176053D01*
X0331973Y0176076D01*
X0331803Y0176103D01*
X0331634Y0176135D01*
X0331466Y0176170D01*
X0331299Y0176210D01*
X0331133Y0176254D01*
X0330968Y0176301D01*
X0330804Y0176353D01*
X0330642Y0176409D01*
X0330481Y0176469D01*
X0330321Y0176533D01*
X0330163Y0176601D01*
X0330007Y0176672D01*
X0329853Y0176747D01*
X0329700Y0176827D01*
X0329550Y0176909D01*
X0329401Y0176996D01*
X0329255Y0177086D01*
X0329111Y0177180D01*
X0328969Y0177277D01*
X0328830Y0177378D01*
X0328693Y0177482D01*
X0328559Y0177589D01*
X0328428Y0177700D01*
X0328299Y0177813D01*
X0328173Y0177930D01*
X0328050Y0178050D01*
X0327930Y0178173D01*
X0327813Y0178299D01*
X0327700Y0178428D01*
X0327589Y0178559D01*
X0327482Y0178693D01*
X0327378Y0178830D01*
X0327277Y0178969D01*
X0327180Y0179111D01*
X0327086Y0179255D01*
X0326996Y0179401D01*
X0326909Y0179550D01*
X0326827Y0179700D01*
X0326747Y0179853D01*
X0326672Y0180007D01*
X0326601Y0180163D01*
X0326533Y0180321D01*
X0326469Y0180481D01*
X0326409Y0180642D01*
X0326353Y0180804D01*
X0326301Y0180968D01*
X0326254Y0181133D01*
X0326210Y0181299D01*
X0326170Y0181466D01*
X0326135Y0181634D01*
X0326103Y0181803D01*
X0326076Y0181973D01*
X0326053Y0182143D01*
X0326034Y0182314D01*
X0326019Y0182485D01*
X0326008Y0182657D01*
X0326002Y0182828D01*
X0326000Y0183000D01*
X0345000Y0180000D02*
X0345000Y0179000D01*
X0345000Y0180000D02*
X0346000Y0180000D01*
X0346000Y0186000D01*
X0345000Y0186000D01*
X0345000Y0187000D01*
X0341500Y0195000D02*
X0338000Y0195000D01*
X0328000Y0195000D01*
X0324500Y0195000D01*
X0299500Y0192500D02*
X0298000Y0192500D01*
X0297500Y0192000D01*
X0278500Y0192000D01*
X0278000Y0192500D01*
X0276500Y0192500D01*
X0276440Y0192498D01*
X0276379Y0192493D01*
X0276320Y0192484D01*
X0276261Y0192471D01*
X0276202Y0192455D01*
X0276145Y0192435D01*
X0276090Y0192412D01*
X0276035Y0192385D01*
X0275983Y0192356D01*
X0275932Y0192323D01*
X0275883Y0192287D01*
X0275837Y0192249D01*
X0275793Y0192207D01*
X0275751Y0192163D01*
X0275713Y0192117D01*
X0275677Y0192068D01*
X0275644Y0192017D01*
X0275615Y0191965D01*
X0275588Y0191910D01*
X0275565Y0191855D01*
X0275545Y0191798D01*
X0275529Y0191739D01*
X0275516Y0191680D01*
X0275507Y0191621D01*
X0275502Y0191560D01*
X0275500Y0191500D01*
X0275500Y0184500D02*
X0275502Y0184440D01*
X0275507Y0184379D01*
X0275516Y0184320D01*
X0275529Y0184261D01*
X0275545Y0184202D01*
X0275565Y0184145D01*
X0275588Y0184090D01*
X0275615Y0184035D01*
X0275644Y0183983D01*
X0275677Y0183932D01*
X0275713Y0183883D01*
X0275751Y0183837D01*
X0275793Y0183793D01*
X0275837Y0183751D01*
X0275883Y0183713D01*
X0275932Y0183677D01*
X0275983Y0183644D01*
X0276035Y0183615D01*
X0276090Y0183588D01*
X0276145Y0183565D01*
X0276202Y0183545D01*
X0276261Y0183529D01*
X0276320Y0183516D01*
X0276379Y0183507D01*
X0276440Y0183502D01*
X0276500Y0183500D01*
X0278000Y0183500D01*
X0278500Y0184000D01*
X0297500Y0184000D01*
X0298000Y0183500D01*
X0299500Y0183500D01*
X0299560Y0183502D01*
X0299621Y0183507D01*
X0299680Y0183516D01*
X0299739Y0183529D01*
X0299798Y0183545D01*
X0299855Y0183565D01*
X0299910Y0183588D01*
X0299965Y0183615D01*
X0300017Y0183644D01*
X0300068Y0183677D01*
X0300117Y0183713D01*
X0300163Y0183751D01*
X0300207Y0183793D01*
X0300249Y0183837D01*
X0300287Y0183883D01*
X0300323Y0183932D01*
X0300356Y0183983D01*
X0300385Y0184035D01*
X0300412Y0184090D01*
X0300435Y0184145D01*
X0300455Y0184202D01*
X0300471Y0184261D01*
X0300484Y0184320D01*
X0300493Y0184379D01*
X0300498Y0184440D01*
X0300500Y0184500D01*
X0300500Y0191500D02*
X0300498Y0191560D01*
X0300493Y0191621D01*
X0300484Y0191680D01*
X0300471Y0191739D01*
X0300455Y0191798D01*
X0300435Y0191855D01*
X0300412Y0191910D01*
X0300385Y0191965D01*
X0300356Y0192017D01*
X0300323Y0192068D01*
X0300287Y0192117D01*
X0300249Y0192163D01*
X0300207Y0192207D01*
X0300163Y0192249D01*
X0300117Y0192287D01*
X0300068Y0192323D01*
X0300017Y0192356D01*
X0299965Y0192385D01*
X0299910Y0192412D01*
X0299855Y0192435D01*
X0299798Y0192455D01*
X0299739Y0192471D01*
X0299680Y0192484D01*
X0299621Y0192493D01*
X0299560Y0192498D01*
X0299500Y0192500D01*
X0299500Y0172500D02*
X0298000Y0172500D01*
X0297500Y0172000D01*
X0278500Y0172000D01*
X0278000Y0172500D01*
X0276500Y0172500D01*
X0276440Y0172498D01*
X0276379Y0172493D01*
X0276320Y0172484D01*
X0276261Y0172471D01*
X0276202Y0172455D01*
X0276145Y0172435D01*
X0276090Y0172412D01*
X0276035Y0172385D01*
X0275983Y0172356D01*
X0275932Y0172323D01*
X0275883Y0172287D01*
X0275837Y0172249D01*
X0275793Y0172207D01*
X0275751Y0172163D01*
X0275713Y0172117D01*
X0275677Y0172068D01*
X0275644Y0172017D01*
X0275615Y0171965D01*
X0275588Y0171910D01*
X0275565Y0171855D01*
X0275545Y0171798D01*
X0275529Y0171739D01*
X0275516Y0171680D01*
X0275507Y0171621D01*
X0275502Y0171560D01*
X0275500Y0171500D01*
X0275500Y0164500D02*
X0275502Y0164440D01*
X0275507Y0164379D01*
X0275516Y0164320D01*
X0275529Y0164261D01*
X0275545Y0164202D01*
X0275565Y0164145D01*
X0275588Y0164090D01*
X0275615Y0164035D01*
X0275644Y0163983D01*
X0275677Y0163932D01*
X0275713Y0163883D01*
X0275751Y0163837D01*
X0275793Y0163793D01*
X0275837Y0163751D01*
X0275883Y0163713D01*
X0275932Y0163677D01*
X0275983Y0163644D01*
X0276035Y0163615D01*
X0276090Y0163588D01*
X0276145Y0163565D01*
X0276202Y0163545D01*
X0276261Y0163529D01*
X0276320Y0163516D01*
X0276379Y0163507D01*
X0276440Y0163502D01*
X0276500Y0163500D01*
X0278000Y0163500D01*
X0278500Y0164000D01*
X0297500Y0164000D01*
X0298000Y0163500D01*
X0299500Y0163500D01*
X0299560Y0163502D01*
X0299621Y0163507D01*
X0299680Y0163516D01*
X0299739Y0163529D01*
X0299798Y0163545D01*
X0299855Y0163565D01*
X0299910Y0163588D01*
X0299965Y0163615D01*
X0300017Y0163644D01*
X0300068Y0163677D01*
X0300117Y0163713D01*
X0300163Y0163751D01*
X0300207Y0163793D01*
X0300249Y0163837D01*
X0300287Y0163883D01*
X0300323Y0163932D01*
X0300356Y0163983D01*
X0300385Y0164035D01*
X0300412Y0164090D01*
X0300435Y0164145D01*
X0300455Y0164202D01*
X0300471Y0164261D01*
X0300484Y0164320D01*
X0300493Y0164379D01*
X0300498Y0164440D01*
X0300500Y0164500D01*
X0300500Y0171500D02*
X0300498Y0171560D01*
X0300493Y0171621D01*
X0300484Y0171680D01*
X0300471Y0171739D01*
X0300455Y0171798D01*
X0300435Y0171855D01*
X0300412Y0171910D01*
X0300385Y0171965D01*
X0300356Y0172017D01*
X0300323Y0172068D01*
X0300287Y0172117D01*
X0300249Y0172163D01*
X0300207Y0172207D01*
X0300163Y0172249D01*
X0300117Y0172287D01*
X0300068Y0172323D01*
X0300017Y0172356D01*
X0299965Y0172385D01*
X0299910Y0172412D01*
X0299855Y0172435D01*
X0299798Y0172455D01*
X0299739Y0172471D01*
X0299680Y0172484D01*
X0299621Y0172493D01*
X0299560Y0172498D01*
X0299500Y0172500D01*
X0300500Y0151500D02*
X0275500Y0151500D01*
X0274500Y0150500D01*
X0274500Y0137000D01*
X0282000Y0138000D02*
X0282000Y0141000D01*
X0285000Y0141000D01*
X0286500Y0142500D01*
X0286500Y0144000D01*
X0289500Y0144000D01*
X0289500Y0147000D01*
X0286500Y0147000D01*
X0286500Y0144000D01*
X0289500Y0144000D02*
X0289500Y0142500D01*
X0291000Y0141000D01*
X0294000Y0141000D01*
X0294000Y0138000D01*
X0291000Y0138000D01*
X0289500Y0136500D01*
X0289500Y0135000D01*
X0286500Y0135000D01*
X0286500Y0132000D01*
X0289500Y0132000D01*
X0289500Y0135000D01*
X0286500Y0135000D02*
X0286500Y0136500D01*
X0285000Y0138000D01*
X0282000Y0138000D01*
X0274500Y0132000D02*
X0274500Y0125500D01*
X0275500Y0124500D01*
X0278000Y0124500D01*
X0285500Y0124500D01*
X0284000Y0126000D02*
X0278000Y0126000D01*
X0278000Y0124500D01*
X0290500Y0124500D02*
X0298000Y0124500D01*
X0300500Y0124500D01*
X0301500Y0125500D01*
X0301500Y0132000D01*
X0301500Y0137000D02*
X0301500Y0150500D01*
X0300500Y0151500D01*
X0341862Y0145685D02*
X0346132Y0145685D01*
X0347200Y0141375D02*
X0342930Y0139240D01*
X0351295Y0129565D02*
X0352362Y0128497D01*
X0356632Y0128497D01*
X0298000Y0126000D02*
X0292000Y0126000D01*
X0298000Y0126000D02*
X0298000Y0124500D01*
X0244000Y0126500D02*
X0244000Y0119500D01*
X0232000Y0119500D01*
X0232000Y0126500D01*
X0244000Y0126500D01*
X0240000Y0123000D02*
X0238500Y0123000D01*
X0238500Y0121000D01*
X0237500Y0121000D01*
X0238500Y0123000D02*
X0233000Y0123000D01*
X0234500Y0121000D02*
X0238500Y0123000D01*
X0238500Y0125000D01*
X0238500Y0123000D02*
X0234500Y0125000D01*
X0234500Y0121000D01*
X0232000Y0139500D02*
X0232000Y0146500D01*
X0244000Y0146500D01*
X0244000Y0139500D01*
X0232000Y0139500D01*
X0234500Y0141000D02*
X0238500Y0143000D01*
X0238500Y0141000D01*
X0237500Y0141000D01*
X0238500Y0143000D02*
X0233000Y0143000D01*
X0234500Y0141000D02*
X0234500Y0145000D01*
X0238500Y0143000D01*
X0238500Y0145000D01*
X0238500Y0143000D02*
X0240000Y0143000D01*
X0244000Y0159500D02*
X0232000Y0159500D01*
X0232000Y0166500D01*
X0244000Y0166500D01*
X0244000Y0159500D01*
X0240000Y0163000D02*
X0238500Y0163000D01*
X0238500Y0161000D01*
X0237500Y0161000D01*
X0238500Y0163000D02*
X0233000Y0163000D01*
X0234500Y0161000D02*
X0238500Y0163000D01*
X0238500Y0165000D01*
X0238500Y0163000D02*
X0234500Y0165000D01*
X0234500Y0161000D01*
X0232000Y0179500D02*
X0232000Y0186500D01*
X0244000Y0186500D01*
X0244000Y0179500D01*
X0232000Y0179500D01*
X0234500Y0181000D02*
X0238500Y0183000D01*
X0238500Y0181000D01*
X0237500Y0181000D01*
X0238500Y0183000D02*
X0233000Y0183000D01*
X0234500Y0181000D02*
X0234500Y0185000D01*
X0238500Y0183000D01*
X0238500Y0185000D01*
X0238500Y0183000D02*
X0240000Y0183000D01*
X0189000Y0179500D02*
X0189000Y0186500D01*
X0177000Y0186500D01*
X0177000Y0179500D01*
X0189000Y0179500D01*
X0185000Y0183000D02*
X0183500Y0183000D01*
X0183500Y0181000D01*
X0182500Y0181000D01*
X0183500Y0183000D02*
X0179500Y0181000D01*
X0179500Y0185000D01*
X0183500Y0183000D01*
X0183500Y0185000D01*
X0183500Y0183000D02*
X0178000Y0183000D01*
X0177000Y0166500D02*
X0177000Y0159500D01*
X0189000Y0159500D01*
X0189000Y0166500D01*
X0177000Y0166500D01*
X0179500Y0165000D02*
X0183500Y0163000D01*
X0183500Y0161000D01*
X0182500Y0161000D01*
X0183500Y0163000D02*
X0179500Y0161000D01*
X0179500Y0165000D01*
X0178000Y0163000D02*
X0183500Y0163000D01*
X0183500Y0165000D01*
X0183500Y0163000D02*
X0185000Y0163000D01*
X0189000Y0146500D02*
X0177000Y0146500D01*
X0177000Y0139500D01*
X0189000Y0139500D01*
X0189000Y0146500D01*
X0185000Y0143000D02*
X0183500Y0143000D01*
X0183500Y0141000D01*
X0182500Y0141000D01*
X0183500Y0143000D02*
X0179500Y0141000D01*
X0179500Y0145000D01*
X0183500Y0143000D01*
X0183500Y0145000D01*
X0183500Y0143000D02*
X0178000Y0143000D01*
X0177000Y0126500D02*
X0177000Y0119500D01*
X0189000Y0119500D01*
X0189000Y0126500D01*
X0177000Y0126500D01*
X0179500Y0125000D02*
X0183500Y0123000D01*
X0183500Y0121000D01*
X0182500Y0121000D01*
X0183500Y0123000D02*
X0179500Y0121000D01*
X0179500Y0125000D01*
X0178000Y0123000D02*
X0183500Y0123000D01*
X0183500Y0125000D01*
X0183500Y0123000D02*
X0185000Y0123000D01*
X0364500Y0183000D02*
X0364504Y0183331D01*
X0364516Y0183662D01*
X0364537Y0183993D01*
X0364565Y0184323D01*
X0364602Y0184653D01*
X0364646Y0184981D01*
X0364699Y0185308D01*
X0364759Y0185634D01*
X0364828Y0185958D01*
X0364905Y0186280D01*
X0364989Y0186601D01*
X0365081Y0186919D01*
X0365181Y0187235D01*
X0365289Y0187548D01*
X0365405Y0187859D01*
X0365528Y0188166D01*
X0365658Y0188471D01*
X0365796Y0188772D01*
X0365941Y0189070D01*
X0366094Y0189364D01*
X0366254Y0189654D01*
X0366421Y0189940D01*
X0366594Y0190222D01*
X0366775Y0190500D01*
X0366963Y0190773D01*
X0367157Y0191042D01*
X0367357Y0191306D01*
X0367564Y0191564D01*
X0367778Y0191818D01*
X0367997Y0192066D01*
X0368223Y0192309D01*
X0368454Y0192546D01*
X0368691Y0192777D01*
X0368934Y0193003D01*
X0369182Y0193222D01*
X0369436Y0193436D01*
X0369694Y0193643D01*
X0369958Y0193843D01*
X0370227Y0194037D01*
X0370500Y0194225D01*
X0370778Y0194406D01*
X0371060Y0194579D01*
X0371346Y0194746D01*
X0371636Y0194906D01*
X0371930Y0195059D01*
X0372228Y0195204D01*
X0372529Y0195342D01*
X0372834Y0195472D01*
X0373141Y0195595D01*
X0373452Y0195711D01*
X0373765Y0195819D01*
X0374081Y0195919D01*
X0374399Y0196011D01*
X0374720Y0196095D01*
X0375042Y0196172D01*
X0375366Y0196241D01*
X0375692Y0196301D01*
X0376019Y0196354D01*
X0376347Y0196398D01*
X0376677Y0196435D01*
X0377007Y0196463D01*
X0377338Y0196484D01*
X0377669Y0196496D01*
X0378000Y0196500D01*
X0378331Y0196496D01*
X0378662Y0196484D01*
X0378993Y0196463D01*
X0379323Y0196435D01*
X0379653Y0196398D01*
X0379981Y0196354D01*
X0380308Y0196301D01*
X0380634Y0196241D01*
X0380958Y0196172D01*
X0381280Y0196095D01*
X0381601Y0196011D01*
X0381919Y0195919D01*
X0382235Y0195819D01*
X0382548Y0195711D01*
X0382859Y0195595D01*
X0383166Y0195472D01*
X0383471Y0195342D01*
X0383772Y0195204D01*
X0384070Y0195059D01*
X0384364Y0194906D01*
X0384654Y0194746D01*
X0384940Y0194579D01*
X0385222Y0194406D01*
X0385500Y0194225D01*
X0385773Y0194037D01*
X0386042Y0193843D01*
X0386306Y0193643D01*
X0386564Y0193436D01*
X0386818Y0193222D01*
X0387066Y0193003D01*
X0387309Y0192777D01*
X0387546Y0192546D01*
X0387777Y0192309D01*
X0388003Y0192066D01*
X0388222Y0191818D01*
X0388436Y0191564D01*
X0388643Y0191306D01*
X0388843Y0191042D01*
X0389037Y0190773D01*
X0389225Y0190500D01*
X0389406Y0190222D01*
X0389579Y0189940D01*
X0389746Y0189654D01*
X0389906Y0189364D01*
X0390059Y0189070D01*
X0390204Y0188772D01*
X0390342Y0188471D01*
X0390472Y0188166D01*
X0390595Y0187859D01*
X0390711Y0187548D01*
X0390819Y0187235D01*
X0390919Y0186919D01*
X0391011Y0186601D01*
X0391095Y0186280D01*
X0391172Y0185958D01*
X0391241Y0185634D01*
X0391301Y0185308D01*
X0391354Y0184981D01*
X0391398Y0184653D01*
X0391435Y0184323D01*
X0391463Y0183993D01*
X0391484Y0183662D01*
X0391496Y0183331D01*
X0391500Y0183000D01*
X0391496Y0182669D01*
X0391484Y0182338D01*
X0391463Y0182007D01*
X0391435Y0181677D01*
X0391398Y0181347D01*
X0391354Y0181019D01*
X0391301Y0180692D01*
X0391241Y0180366D01*
X0391172Y0180042D01*
X0391095Y0179720D01*
X0391011Y0179399D01*
X0390919Y0179081D01*
X0390819Y0178765D01*
X0390711Y0178452D01*
X0390595Y0178141D01*
X0390472Y0177834D01*
X0390342Y0177529D01*
X0390204Y0177228D01*
X0390059Y0176930D01*
X0389906Y0176636D01*
X0389746Y0176346D01*
X0389579Y0176060D01*
X0389406Y0175778D01*
X0389225Y0175500D01*
X0389037Y0175227D01*
X0388843Y0174958D01*
X0388643Y0174694D01*
X0388436Y0174436D01*
X0388222Y0174182D01*
X0388003Y0173934D01*
X0387777Y0173691D01*
X0387546Y0173454D01*
X0387309Y0173223D01*
X0387066Y0172997D01*
X0386818Y0172778D01*
X0386564Y0172564D01*
X0386306Y0172357D01*
X0386042Y0172157D01*
X0385773Y0171963D01*
X0385500Y0171775D01*
X0385222Y0171594D01*
X0384940Y0171421D01*
X0384654Y0171254D01*
X0384364Y0171094D01*
X0384070Y0170941D01*
X0383772Y0170796D01*
X0383471Y0170658D01*
X0383166Y0170528D01*
X0382859Y0170405D01*
X0382548Y0170289D01*
X0382235Y0170181D01*
X0381919Y0170081D01*
X0381601Y0169989D01*
X0381280Y0169905D01*
X0380958Y0169828D01*
X0380634Y0169759D01*
X0380308Y0169699D01*
X0379981Y0169646D01*
X0379653Y0169602D01*
X0379323Y0169565D01*
X0378993Y0169537D01*
X0378662Y0169516D01*
X0378331Y0169504D01*
X0378000Y0169500D01*
X0377669Y0169504D01*
X0377338Y0169516D01*
X0377007Y0169537D01*
X0376677Y0169565D01*
X0376347Y0169602D01*
X0376019Y0169646D01*
X0375692Y0169699D01*
X0375366Y0169759D01*
X0375042Y0169828D01*
X0374720Y0169905D01*
X0374399Y0169989D01*
X0374081Y0170081D01*
X0373765Y0170181D01*
X0373452Y0170289D01*
X0373141Y0170405D01*
X0372834Y0170528D01*
X0372529Y0170658D01*
X0372228Y0170796D01*
X0371930Y0170941D01*
X0371636Y0171094D01*
X0371346Y0171254D01*
X0371060Y0171421D01*
X0370778Y0171594D01*
X0370500Y0171775D01*
X0370227Y0171963D01*
X0369958Y0172157D01*
X0369694Y0172357D01*
X0369436Y0172564D01*
X0369182Y0172778D01*
X0368934Y0172997D01*
X0368691Y0173223D01*
X0368454Y0173454D01*
X0368223Y0173691D01*
X0367997Y0173934D01*
X0367778Y0174182D01*
X0367564Y0174436D01*
X0367357Y0174694D01*
X0367157Y0174958D01*
X0366963Y0175227D01*
X0366775Y0175500D01*
X0366594Y0175778D01*
X0366421Y0176060D01*
X0366254Y0176346D01*
X0366094Y0176636D01*
X0365941Y0176930D01*
X0365796Y0177228D01*
X0365658Y0177529D01*
X0365528Y0177834D01*
X0365405Y0178141D01*
X0365289Y0178452D01*
X0365181Y0178765D01*
X0365081Y0179081D01*
X0364989Y0179399D01*
X0364905Y0179720D01*
X0364828Y0180042D01*
X0364759Y0180366D01*
X0364699Y0180692D01*
X0364646Y0181019D01*
X0364602Y0181347D01*
X0364565Y0181677D01*
X0364537Y0182007D01*
X0364516Y0182338D01*
X0364504Y0182669D01*
X0364500Y0183000D01*
X0364500Y0028000D02*
X0364504Y0028331D01*
X0364516Y0028662D01*
X0364537Y0028993D01*
X0364565Y0029323D01*
X0364602Y0029653D01*
X0364646Y0029981D01*
X0364699Y0030308D01*
X0364759Y0030634D01*
X0364828Y0030958D01*
X0364905Y0031280D01*
X0364989Y0031601D01*
X0365081Y0031919D01*
X0365181Y0032235D01*
X0365289Y0032548D01*
X0365405Y0032859D01*
X0365528Y0033166D01*
X0365658Y0033471D01*
X0365796Y0033772D01*
X0365941Y0034070D01*
X0366094Y0034364D01*
X0366254Y0034654D01*
X0366421Y0034940D01*
X0366594Y0035222D01*
X0366775Y0035500D01*
X0366963Y0035773D01*
X0367157Y0036042D01*
X0367357Y0036306D01*
X0367564Y0036564D01*
X0367778Y0036818D01*
X0367997Y0037066D01*
X0368223Y0037309D01*
X0368454Y0037546D01*
X0368691Y0037777D01*
X0368934Y0038003D01*
X0369182Y0038222D01*
X0369436Y0038436D01*
X0369694Y0038643D01*
X0369958Y0038843D01*
X0370227Y0039037D01*
X0370500Y0039225D01*
X0370778Y0039406D01*
X0371060Y0039579D01*
X0371346Y0039746D01*
X0371636Y0039906D01*
X0371930Y0040059D01*
X0372228Y0040204D01*
X0372529Y0040342D01*
X0372834Y0040472D01*
X0373141Y0040595D01*
X0373452Y0040711D01*
X0373765Y0040819D01*
X0374081Y0040919D01*
X0374399Y0041011D01*
X0374720Y0041095D01*
X0375042Y0041172D01*
X0375366Y0041241D01*
X0375692Y0041301D01*
X0376019Y0041354D01*
X0376347Y0041398D01*
X0376677Y0041435D01*
X0377007Y0041463D01*
X0377338Y0041484D01*
X0377669Y0041496D01*
X0378000Y0041500D01*
X0378331Y0041496D01*
X0378662Y0041484D01*
X0378993Y0041463D01*
X0379323Y0041435D01*
X0379653Y0041398D01*
X0379981Y0041354D01*
X0380308Y0041301D01*
X0380634Y0041241D01*
X0380958Y0041172D01*
X0381280Y0041095D01*
X0381601Y0041011D01*
X0381919Y0040919D01*
X0382235Y0040819D01*
X0382548Y0040711D01*
X0382859Y0040595D01*
X0383166Y0040472D01*
X0383471Y0040342D01*
X0383772Y0040204D01*
X0384070Y0040059D01*
X0384364Y0039906D01*
X0384654Y0039746D01*
X0384940Y0039579D01*
X0385222Y0039406D01*
X0385500Y0039225D01*
X0385773Y0039037D01*
X0386042Y0038843D01*
X0386306Y0038643D01*
X0386564Y0038436D01*
X0386818Y0038222D01*
X0387066Y0038003D01*
X0387309Y0037777D01*
X0387546Y0037546D01*
X0387777Y0037309D01*
X0388003Y0037066D01*
X0388222Y0036818D01*
X0388436Y0036564D01*
X0388643Y0036306D01*
X0388843Y0036042D01*
X0389037Y0035773D01*
X0389225Y0035500D01*
X0389406Y0035222D01*
X0389579Y0034940D01*
X0389746Y0034654D01*
X0389906Y0034364D01*
X0390059Y0034070D01*
X0390204Y0033772D01*
X0390342Y0033471D01*
X0390472Y0033166D01*
X0390595Y0032859D01*
X0390711Y0032548D01*
X0390819Y0032235D01*
X0390919Y0031919D01*
X0391011Y0031601D01*
X0391095Y0031280D01*
X0391172Y0030958D01*
X0391241Y0030634D01*
X0391301Y0030308D01*
X0391354Y0029981D01*
X0391398Y0029653D01*
X0391435Y0029323D01*
X0391463Y0028993D01*
X0391484Y0028662D01*
X0391496Y0028331D01*
X0391500Y0028000D01*
X0391496Y0027669D01*
X0391484Y0027338D01*
X0391463Y0027007D01*
X0391435Y0026677D01*
X0391398Y0026347D01*
X0391354Y0026019D01*
X0391301Y0025692D01*
X0391241Y0025366D01*
X0391172Y0025042D01*
X0391095Y0024720D01*
X0391011Y0024399D01*
X0390919Y0024081D01*
X0390819Y0023765D01*
X0390711Y0023452D01*
X0390595Y0023141D01*
X0390472Y0022834D01*
X0390342Y0022529D01*
X0390204Y0022228D01*
X0390059Y0021930D01*
X0389906Y0021636D01*
X0389746Y0021346D01*
X0389579Y0021060D01*
X0389406Y0020778D01*
X0389225Y0020500D01*
X0389037Y0020227D01*
X0388843Y0019958D01*
X0388643Y0019694D01*
X0388436Y0019436D01*
X0388222Y0019182D01*
X0388003Y0018934D01*
X0387777Y0018691D01*
X0387546Y0018454D01*
X0387309Y0018223D01*
X0387066Y0017997D01*
X0386818Y0017778D01*
X0386564Y0017564D01*
X0386306Y0017357D01*
X0386042Y0017157D01*
X0385773Y0016963D01*
X0385500Y0016775D01*
X0385222Y0016594D01*
X0384940Y0016421D01*
X0384654Y0016254D01*
X0384364Y0016094D01*
X0384070Y0015941D01*
X0383772Y0015796D01*
X0383471Y0015658D01*
X0383166Y0015528D01*
X0382859Y0015405D01*
X0382548Y0015289D01*
X0382235Y0015181D01*
X0381919Y0015081D01*
X0381601Y0014989D01*
X0381280Y0014905D01*
X0380958Y0014828D01*
X0380634Y0014759D01*
X0380308Y0014699D01*
X0379981Y0014646D01*
X0379653Y0014602D01*
X0379323Y0014565D01*
X0378993Y0014537D01*
X0378662Y0014516D01*
X0378331Y0014504D01*
X0378000Y0014500D01*
X0377669Y0014504D01*
X0377338Y0014516D01*
X0377007Y0014537D01*
X0376677Y0014565D01*
X0376347Y0014602D01*
X0376019Y0014646D01*
X0375692Y0014699D01*
X0375366Y0014759D01*
X0375042Y0014828D01*
X0374720Y0014905D01*
X0374399Y0014989D01*
X0374081Y0015081D01*
X0373765Y0015181D01*
X0373452Y0015289D01*
X0373141Y0015405D01*
X0372834Y0015528D01*
X0372529Y0015658D01*
X0372228Y0015796D01*
X0371930Y0015941D01*
X0371636Y0016094D01*
X0371346Y0016254D01*
X0371060Y0016421D01*
X0370778Y0016594D01*
X0370500Y0016775D01*
X0370227Y0016963D01*
X0369958Y0017157D01*
X0369694Y0017357D01*
X0369436Y0017564D01*
X0369182Y0017778D01*
X0368934Y0017997D01*
X0368691Y0018223D01*
X0368454Y0018454D01*
X0368223Y0018691D01*
X0367997Y0018934D01*
X0367778Y0019182D01*
X0367564Y0019436D01*
X0367357Y0019694D01*
X0367157Y0019958D01*
X0366963Y0020227D01*
X0366775Y0020500D01*
X0366594Y0020778D01*
X0366421Y0021060D01*
X0366254Y0021346D01*
X0366094Y0021636D01*
X0365941Y0021930D01*
X0365796Y0022228D01*
X0365658Y0022529D01*
X0365528Y0022834D01*
X0365405Y0023141D01*
X0365289Y0023452D01*
X0365181Y0023765D01*
X0365081Y0024081D01*
X0364989Y0024399D01*
X0364905Y0024720D01*
X0364828Y0025042D01*
X0364759Y0025366D01*
X0364699Y0025692D01*
X0364646Y0026019D01*
X0364602Y0026347D01*
X0364565Y0026677D01*
X0364537Y0027007D01*
X0364516Y0027338D01*
X0364504Y0027669D01*
X0364500Y0028000D01*
D12*
X0337990Y0020254D02*
X0337990Y0015750D01*
X0336489Y0015750D02*
X0339491Y0015750D01*
X0336489Y0018753D02*
X0337990Y0020254D01*
X0319991Y0019503D02*
X0319241Y0020254D01*
X0317739Y0020254D01*
X0316989Y0019503D01*
X0319991Y0019503D02*
X0319991Y0018753D01*
X0316989Y0015750D01*
X0319991Y0015750D01*
X0319977Y0037199D02*
X0322979Y0037199D01*
X0324581Y0037950D02*
X0324581Y0042454D01*
X0326833Y0042454D01*
X0327583Y0041703D01*
X0327583Y0040202D01*
X0326833Y0039451D01*
X0324581Y0039451D01*
X0318375Y0042454D02*
X0315373Y0042454D01*
X0316874Y0042454D02*
X0316874Y0037950D01*
X0313771Y0038701D02*
X0313771Y0041703D01*
X0313021Y0042454D01*
X0311520Y0042454D01*
X0310769Y0041703D01*
X0310769Y0038701D01*
X0311520Y0037950D01*
X0313021Y0037950D01*
X0313771Y0038701D01*
X0309168Y0037950D02*
X0309168Y0042454D01*
X0307666Y0040953D01*
X0306165Y0042454D01*
X0306165Y0037950D01*
X0306751Y0050750D02*
X0306751Y0055254D01*
X0305250Y0053753D01*
X0302856Y0056250D02*
X0299854Y0056250D01*
X0301355Y0056250D02*
X0301355Y0060754D01*
X0299854Y0059253D01*
X0298253Y0060003D02*
X0297502Y0060754D01*
X0296001Y0060754D01*
X0295250Y0060003D01*
X0295250Y0057001D01*
X0296001Y0056250D01*
X0297502Y0056250D01*
X0298253Y0057001D01*
X0305250Y0050750D02*
X0308253Y0050750D01*
X0309854Y0051501D02*
X0312856Y0054503D01*
X0312856Y0051501D01*
X0312106Y0050750D01*
X0310605Y0050750D01*
X0309854Y0051501D01*
X0309854Y0054503D01*
X0310605Y0055254D01*
X0312106Y0055254D01*
X0312856Y0054503D01*
X0314458Y0054503D02*
X0315208Y0055254D01*
X0316710Y0055254D01*
X0317460Y0054503D01*
X0314458Y0051501D01*
X0315208Y0050750D01*
X0316710Y0050750D01*
X0317460Y0051501D01*
X0317460Y0054503D01*
X0319062Y0053753D02*
X0319062Y0051501D01*
X0319812Y0050750D01*
X0322064Y0050750D01*
X0322064Y0053753D01*
X0323666Y0053002D02*
X0325167Y0053002D01*
X0323666Y0050750D02*
X0323666Y0055254D01*
X0326668Y0055254D01*
X0314458Y0054503D02*
X0314458Y0051501D01*
X0329185Y0042454D02*
X0329185Y0037950D01*
X0330686Y0039451D01*
X0332187Y0037950D01*
X0332187Y0042454D01*
X0333789Y0042454D02*
X0336040Y0042454D01*
X0336791Y0041703D01*
X0336791Y0040202D01*
X0336040Y0039451D01*
X0333789Y0039451D01*
X0335290Y0039451D02*
X0336791Y0037950D01*
X0333789Y0037950D02*
X0333789Y0042454D01*
X0302666Y0092250D02*
X0302666Y0096754D01*
X0305668Y0096754D01*
X0304167Y0094502D02*
X0302666Y0094502D01*
X0301064Y0094502D02*
X0301064Y0092250D01*
X0301064Y0094502D02*
X0300314Y0095253D01*
X0298062Y0095253D01*
X0298062Y0092250D01*
X0296460Y0093001D02*
X0295710Y0092250D01*
X0294208Y0092250D01*
X0293458Y0093001D01*
X0296460Y0096003D01*
X0296460Y0093001D01*
X0293458Y0093001D02*
X0293458Y0096003D01*
X0294208Y0096754D01*
X0295710Y0096754D01*
X0296460Y0096003D01*
X0291856Y0096003D02*
X0288854Y0093001D01*
X0289605Y0092250D01*
X0291106Y0092250D01*
X0291856Y0093001D01*
X0291856Y0096003D01*
X0291106Y0096754D01*
X0289605Y0096754D01*
X0288854Y0096003D01*
X0288854Y0093001D01*
X0287253Y0092250D02*
X0284250Y0092250D01*
X0285751Y0092250D02*
X0285751Y0096754D01*
X0284250Y0095253D01*
X0270668Y0096754D02*
X0267666Y0096754D01*
X0267666Y0092250D01*
X0266064Y0092250D02*
X0266064Y0094502D01*
X0265314Y0095253D01*
X0263062Y0095253D01*
X0263062Y0092250D01*
X0261460Y0093001D02*
X0260710Y0092250D01*
X0259208Y0092250D01*
X0258458Y0093001D01*
X0261460Y0096003D01*
X0261460Y0093001D01*
X0258458Y0093001D02*
X0258458Y0096003D01*
X0259208Y0096754D01*
X0260710Y0096754D01*
X0261460Y0096003D01*
X0256856Y0096003D02*
X0253854Y0093001D01*
X0254605Y0092250D01*
X0256106Y0092250D01*
X0256856Y0093001D01*
X0256856Y0096003D01*
X0256106Y0096754D01*
X0254605Y0096754D01*
X0253854Y0096003D01*
X0253854Y0093001D01*
X0252253Y0092250D02*
X0249250Y0092250D01*
X0250751Y0092250D02*
X0250751Y0096754D01*
X0249250Y0095253D01*
X0267666Y0094502D02*
X0269167Y0094502D01*
X0256106Y0109250D02*
X0254605Y0109250D01*
X0253854Y0110001D01*
X0252253Y0110001D02*
X0251502Y0109250D01*
X0250001Y0109250D01*
X0249250Y0110001D01*
X0249250Y0113003D01*
X0250001Y0113754D01*
X0251502Y0113754D01*
X0252253Y0113003D01*
X0253854Y0113003D02*
X0254605Y0113754D01*
X0256106Y0113754D01*
X0256856Y0113003D01*
X0256856Y0112253D01*
X0256106Y0111502D01*
X0256856Y0110751D01*
X0256856Y0110001D01*
X0256106Y0109250D01*
X0256106Y0111502D02*
X0255355Y0111502D01*
X0242649Y0116002D02*
X0239646Y0116002D01*
X0241898Y0118254D01*
X0241898Y0113750D01*
X0238045Y0114501D02*
X0238045Y0117503D01*
X0237294Y0118254D01*
X0235042Y0118254D01*
X0235042Y0113750D01*
X0237294Y0113750D01*
X0238045Y0114501D01*
X0237294Y0133750D02*
X0235042Y0133750D01*
X0235042Y0138254D01*
X0237294Y0138254D01*
X0238045Y0137503D01*
X0238045Y0134501D01*
X0237294Y0133750D01*
X0239646Y0134501D02*
X0240397Y0133750D01*
X0241898Y0133750D01*
X0242649Y0134501D01*
X0242649Y0135251D01*
X0241898Y0136002D01*
X0241147Y0136002D01*
X0241898Y0136002D02*
X0242649Y0136753D01*
X0242649Y0137503D01*
X0241898Y0138254D01*
X0240397Y0138254D01*
X0239646Y0137503D01*
X0239646Y0153750D02*
X0242649Y0156753D01*
X0242649Y0157503D01*
X0241898Y0158254D01*
X0240397Y0158254D01*
X0239646Y0157503D01*
X0238045Y0157503D02*
X0237294Y0158254D01*
X0235042Y0158254D01*
X0235042Y0153750D01*
X0237294Y0153750D01*
X0238045Y0154501D01*
X0238045Y0157503D01*
X0239646Y0153750D02*
X0242649Y0153750D01*
X0275750Y0153250D02*
X0275750Y0157754D01*
X0278002Y0157754D01*
X0278753Y0157003D01*
X0278753Y0155502D01*
X0278002Y0154751D01*
X0275750Y0154751D01*
X0277251Y0154751D02*
X0278753Y0153250D01*
X0280354Y0153250D02*
X0283356Y0153250D01*
X0281855Y0153250D02*
X0281855Y0157754D01*
X0280354Y0156253D01*
X0280751Y0166050D02*
X0280751Y0170554D01*
X0279250Y0169053D01*
X0279250Y0166050D02*
X0282253Y0166050D01*
X0283854Y0166801D02*
X0284605Y0166050D01*
X0286106Y0166050D01*
X0286856Y0166801D01*
X0286856Y0167551D01*
X0286106Y0168302D01*
X0283854Y0168302D01*
X0283854Y0166801D01*
X0283854Y0168302D02*
X0285355Y0169803D01*
X0286856Y0170554D01*
X0288458Y0169803D02*
X0289208Y0170554D01*
X0290710Y0170554D01*
X0291460Y0169803D01*
X0288458Y0166801D01*
X0289208Y0166050D01*
X0290710Y0166050D01*
X0291460Y0166801D01*
X0291460Y0169803D01*
X0288458Y0169803D02*
X0288458Y0166801D01*
X0285106Y0173750D02*
X0283605Y0173750D01*
X0282854Y0174501D01*
X0283605Y0176002D02*
X0285856Y0176002D01*
X0285856Y0174501D02*
X0285856Y0177503D01*
X0285106Y0178254D01*
X0283605Y0178254D01*
X0282854Y0177503D01*
X0282854Y0176753D01*
X0283605Y0176002D01*
X0281253Y0176002D02*
X0280502Y0175251D01*
X0278250Y0175251D01*
X0278250Y0173750D02*
X0278250Y0178254D01*
X0280502Y0178254D01*
X0281253Y0177503D01*
X0281253Y0176002D01*
X0279751Y0175251D02*
X0281253Y0173750D01*
X0285106Y0173750D02*
X0285856Y0174501D01*
X0286106Y0186050D02*
X0284605Y0186050D01*
X0283854Y0186801D01*
X0286856Y0189803D01*
X0286856Y0186801D01*
X0286106Y0186050D01*
X0288458Y0186050D02*
X0288458Y0190554D01*
X0286856Y0189803D02*
X0286106Y0190554D01*
X0284605Y0190554D01*
X0283854Y0189803D01*
X0283854Y0186801D01*
X0282253Y0186050D02*
X0279250Y0186050D01*
X0280751Y0186050D02*
X0280751Y0190554D01*
X0279250Y0189053D01*
X0278250Y0193750D02*
X0278250Y0198254D01*
X0280502Y0198254D01*
X0281253Y0197503D01*
X0281253Y0196002D01*
X0280502Y0195251D01*
X0278250Y0195251D01*
X0279751Y0195251D02*
X0281253Y0193750D01*
X0282854Y0193750D02*
X0285856Y0193750D01*
X0284355Y0193750D02*
X0284355Y0198254D01*
X0282854Y0196753D01*
X0287458Y0197503D02*
X0287458Y0194501D01*
X0290460Y0197503D01*
X0290460Y0194501D01*
X0289710Y0193750D01*
X0288208Y0193750D01*
X0287458Y0194501D01*
X0287458Y0197503D02*
X0288208Y0198254D01*
X0289710Y0198254D01*
X0290460Y0197503D01*
X0290710Y0189053D02*
X0288458Y0187551D01*
X0290710Y0186050D01*
X0326250Y0167254D02*
X0327751Y0165753D01*
X0329253Y0167254D01*
X0329253Y0162750D01*
X0330854Y0163501D02*
X0331605Y0162750D01*
X0333106Y0162750D01*
X0333856Y0163501D01*
X0335458Y0162750D02*
X0338460Y0162750D01*
X0340062Y0162750D02*
X0340062Y0167254D01*
X0342314Y0167254D01*
X0343064Y0166503D01*
X0343064Y0165002D01*
X0342314Y0164251D01*
X0340062Y0164251D01*
X0341563Y0164251D02*
X0343064Y0162750D01*
X0335458Y0162750D02*
X0335458Y0167254D01*
X0333856Y0166503D02*
X0333106Y0167254D01*
X0331605Y0167254D01*
X0330854Y0166503D01*
X0330854Y0163501D01*
X0326250Y0162750D02*
X0326250Y0167254D01*
X0330497Y0156649D02*
X0331247Y0156649D01*
X0331998Y0155898D01*
X0332749Y0156649D01*
X0333499Y0156649D01*
X0334250Y0155898D01*
X0334250Y0154397D01*
X0333499Y0153646D01*
X0331998Y0155147D02*
X0331998Y0155898D01*
X0330497Y0156649D02*
X0329746Y0155898D01*
X0329746Y0154397D01*
X0330497Y0153646D01*
X0329746Y0152045D02*
X0329746Y0149042D01*
X0329746Y0150543D02*
X0334250Y0150543D01*
X0334250Y0147474D02*
X0334250Y0145973D01*
X0334250Y0146723D02*
X0329746Y0146723D01*
X0329746Y0145973D02*
X0329746Y0147474D01*
X0329746Y0144371D02*
X0332749Y0141369D01*
X0331998Y0142120D02*
X0334250Y0144371D01*
X0334250Y0141369D02*
X0329746Y0141369D01*
X0330497Y0139768D02*
X0329746Y0139017D01*
X0329746Y0137516D01*
X0330497Y0136765D01*
X0333499Y0136765D01*
X0334250Y0137516D01*
X0334250Y0139017D01*
X0333499Y0139768D01*
X0334250Y0135197D02*
X0334250Y0133696D01*
X0334250Y0134446D02*
X0329746Y0134446D01*
X0329746Y0133696D02*
X0329746Y0135197D01*
X0330497Y0132094D02*
X0331998Y0132094D01*
X0332749Y0131344D01*
X0332749Y0129092D01*
X0334250Y0129092D02*
X0329746Y0129092D01*
X0329746Y0131344D01*
X0330497Y0132094D01*
X0300019Y0130086D02*
X0300019Y0129519D01*
X0299451Y0128951D01*
X0300019Y0128384D01*
X0300019Y0127817D01*
X0299451Y0127250D01*
X0298317Y0127250D01*
X0297750Y0127817D01*
X0298884Y0128951D02*
X0299451Y0128951D01*
X0300019Y0130086D02*
X0299451Y0130653D01*
X0298317Y0130653D01*
X0297750Y0130086D01*
X0289662Y0122754D02*
X0289662Y0118250D01*
X0289662Y0119751D02*
X0291914Y0118250D01*
X0289662Y0119751D02*
X0291914Y0121253D01*
X0286559Y0122754D02*
X0286559Y0118250D01*
X0285058Y0118250D02*
X0288060Y0118250D01*
X0285058Y0121253D02*
X0286559Y0122754D01*
X0283456Y0120502D02*
X0280454Y0120502D01*
X0278853Y0122003D02*
X0278853Y0119001D01*
X0278102Y0118250D01*
X0276601Y0118250D01*
X0275850Y0119001D01*
X0278853Y0122003D01*
X0278102Y0122754D01*
X0276601Y0122754D01*
X0275850Y0122003D01*
X0275850Y0119001D01*
X0284250Y0113003D02*
X0284250Y0110001D01*
X0285001Y0109250D01*
X0286502Y0109250D01*
X0287253Y0110001D01*
X0288854Y0109250D02*
X0291856Y0112253D01*
X0291856Y0113003D01*
X0291106Y0113754D01*
X0289605Y0113754D01*
X0288854Y0113003D01*
X0287253Y0113003D02*
X0286502Y0113754D01*
X0285001Y0113754D01*
X0284250Y0113003D01*
X0288854Y0109250D02*
X0291856Y0109250D01*
X0279019Y0127250D02*
X0276750Y0127250D01*
X0277884Y0127250D02*
X0277884Y0130653D01*
X0276750Y0129519D01*
X0311746Y0152647D02*
X0316250Y0152647D01*
X0316250Y0151146D02*
X0316250Y0154149D01*
X0313247Y0151146D02*
X0311746Y0152647D01*
X0242649Y0173750D02*
X0239646Y0173750D01*
X0241147Y0173750D02*
X0241147Y0178254D01*
X0239646Y0176753D01*
X0238045Y0177503D02*
X0238045Y0174501D01*
X0237294Y0173750D01*
X0235042Y0173750D01*
X0235042Y0178254D01*
X0237294Y0178254D01*
X0238045Y0177503D01*
X0187649Y0178254D02*
X0184646Y0178254D01*
X0184646Y0176002D01*
X0186147Y0176753D01*
X0186898Y0176753D01*
X0187649Y0176002D01*
X0187649Y0174501D01*
X0186898Y0173750D01*
X0185397Y0173750D01*
X0184646Y0174501D01*
X0183045Y0174501D02*
X0183045Y0177503D01*
X0182294Y0178254D01*
X0180042Y0178254D01*
X0180042Y0173750D01*
X0182294Y0173750D01*
X0183045Y0174501D01*
X0182294Y0158254D02*
X0180042Y0158254D01*
X0180042Y0153750D01*
X0182294Y0153750D01*
X0183045Y0154501D01*
X0183045Y0157503D01*
X0182294Y0158254D01*
X0184646Y0156002D02*
X0186898Y0156002D01*
X0187649Y0155251D01*
X0187649Y0154501D01*
X0186898Y0153750D01*
X0185397Y0153750D01*
X0184646Y0154501D01*
X0184646Y0156002D01*
X0186147Y0157503D01*
X0187649Y0158254D01*
X0187649Y0138254D02*
X0184646Y0138254D01*
X0183045Y0137503D02*
X0182294Y0138254D01*
X0180042Y0138254D01*
X0180042Y0133750D01*
X0182294Y0133750D01*
X0183045Y0134501D01*
X0183045Y0137503D01*
X0184646Y0134501D02*
X0187649Y0137503D01*
X0187649Y0138254D01*
X0184646Y0134501D02*
X0184646Y0133750D01*
X0185397Y0118254D02*
X0186898Y0118254D01*
X0187649Y0117503D01*
X0187649Y0116753D01*
X0186898Y0116002D01*
X0185397Y0116002D01*
X0184646Y0116753D01*
X0184646Y0117503D01*
X0185397Y0118254D01*
X0185397Y0116002D02*
X0184646Y0115251D01*
X0184646Y0114501D01*
X0185397Y0113750D01*
X0186898Y0113750D01*
X0187649Y0114501D01*
X0187649Y0115251D01*
X0186898Y0116002D01*
X0183045Y0117503D02*
X0182294Y0118254D01*
X0180042Y0118254D01*
X0180042Y0113750D01*
X0182294Y0113750D01*
X0183045Y0114501D01*
X0183045Y0117503D01*
X0071460Y0109803D02*
X0071460Y0106801D01*
X0070710Y0106050D01*
X0069208Y0106050D01*
X0068458Y0106801D01*
X0071460Y0109803D01*
X0070710Y0110554D01*
X0069208Y0110554D01*
X0068458Y0109803D01*
X0068458Y0106801D01*
X0066856Y0106801D02*
X0066106Y0106050D01*
X0064605Y0106050D01*
X0063854Y0106801D01*
X0062253Y0106801D02*
X0061502Y0106050D01*
X0060001Y0106050D01*
X0059250Y0106801D01*
X0060751Y0108302D02*
X0061502Y0108302D01*
X0062253Y0107551D01*
X0062253Y0106801D01*
X0061502Y0108302D02*
X0062253Y0109053D01*
X0062253Y0109803D01*
X0061502Y0110554D01*
X0060001Y0110554D01*
X0059250Y0109803D01*
X0063854Y0109803D02*
X0064605Y0110554D01*
X0066106Y0110554D01*
X0066856Y0109803D01*
X0066856Y0109053D01*
X0066106Y0108302D01*
X0066856Y0107551D01*
X0066856Y0106801D01*
X0066106Y0108302D02*
X0065355Y0108302D01*
X0065856Y0113750D02*
X0062854Y0113750D01*
X0065856Y0116753D01*
X0065856Y0117503D01*
X0065106Y0118254D01*
X0063605Y0118254D01*
X0062854Y0117503D01*
X0061253Y0117503D02*
X0061253Y0116002D01*
X0060502Y0115251D01*
X0058250Y0115251D01*
X0058250Y0113750D02*
X0058250Y0118254D01*
X0060502Y0118254D01*
X0061253Y0117503D01*
X0059751Y0115251D02*
X0061253Y0113750D01*
X0060751Y0126050D02*
X0060751Y0130554D01*
X0059250Y0129053D01*
X0063854Y0129803D02*
X0063854Y0126801D01*
X0066856Y0129803D01*
X0066856Y0126801D01*
X0066106Y0126050D01*
X0064605Y0126050D01*
X0063854Y0126801D01*
X0062253Y0126050D02*
X0059250Y0126050D01*
X0063854Y0129803D02*
X0064605Y0130554D01*
X0066106Y0130554D01*
X0066856Y0129803D01*
X0068458Y0130554D02*
X0068458Y0126050D01*
X0068458Y0127551D02*
X0070710Y0129053D01*
X0068458Y0127551D02*
X0070710Y0126050D01*
X0062854Y0133750D02*
X0062854Y0134501D01*
X0065856Y0137503D01*
X0065856Y0138254D01*
X0062854Y0138254D01*
X0061253Y0137503D02*
X0061253Y0136002D01*
X0060502Y0135251D01*
X0058250Y0135251D01*
X0058250Y0133750D02*
X0058250Y0138254D01*
X0060502Y0138254D01*
X0061253Y0137503D01*
X0059751Y0135251D02*
X0061253Y0133750D01*
X0060751Y0146050D02*
X0060751Y0150554D01*
X0059250Y0149053D01*
X0063854Y0149803D02*
X0064605Y0150554D01*
X0066106Y0150554D01*
X0066856Y0149803D01*
X0063854Y0146801D01*
X0064605Y0146050D01*
X0066106Y0146050D01*
X0066856Y0146801D01*
X0066856Y0149803D01*
X0068458Y0150554D02*
X0068458Y0146050D01*
X0068458Y0147551D02*
X0070710Y0149053D01*
X0068458Y0147551D02*
X0070710Y0146050D01*
X0063854Y0146801D02*
X0063854Y0149803D01*
X0063605Y0153750D02*
X0062854Y0154501D01*
X0062854Y0155251D01*
X0063605Y0156002D01*
X0065106Y0156002D01*
X0065856Y0155251D01*
X0065856Y0154501D01*
X0065106Y0153750D01*
X0063605Y0153750D01*
X0063605Y0156002D02*
X0062854Y0156753D01*
X0062854Y0157503D01*
X0063605Y0158254D01*
X0065106Y0158254D01*
X0065856Y0157503D01*
X0065856Y0156753D01*
X0065106Y0156002D01*
X0061253Y0156002D02*
X0061253Y0157503D01*
X0060502Y0158254D01*
X0058250Y0158254D01*
X0058250Y0153750D01*
X0058250Y0155251D02*
X0060502Y0155251D01*
X0061253Y0156002D01*
X0059751Y0155251D02*
X0061253Y0153750D01*
X0062253Y0146050D02*
X0059250Y0146050D01*
X0059250Y0166050D02*
X0062253Y0166050D01*
X0060751Y0166050D02*
X0060751Y0170554D01*
X0059250Y0169053D01*
X0063854Y0169803D02*
X0063854Y0166801D01*
X0066856Y0169803D01*
X0066856Y0166801D01*
X0066106Y0166050D01*
X0064605Y0166050D01*
X0063854Y0166801D01*
X0068458Y0167551D02*
X0070710Y0169053D01*
X0068458Y0170554D02*
X0068458Y0166050D01*
X0068458Y0167551D02*
X0070710Y0166050D01*
X0066856Y0169803D02*
X0066106Y0170554D01*
X0064605Y0170554D01*
X0063854Y0169803D01*
X0063605Y0173750D02*
X0065106Y0173750D01*
X0065856Y0174501D01*
X0065856Y0175251D01*
X0065106Y0176002D01*
X0062854Y0176002D01*
X0062854Y0174501D01*
X0063605Y0173750D01*
X0061253Y0173750D02*
X0059751Y0175251D01*
X0060502Y0175251D02*
X0058250Y0175251D01*
X0058250Y0173750D02*
X0058250Y0178254D01*
X0060502Y0178254D01*
X0061253Y0177503D01*
X0061253Y0176002D01*
X0060502Y0175251D01*
X0062854Y0176002D02*
X0064355Y0177503D01*
X0065856Y0178254D01*
X0066106Y0186050D02*
X0064605Y0186050D01*
X0063854Y0186801D01*
X0066856Y0189803D01*
X0066856Y0186801D01*
X0066106Y0186050D01*
X0068458Y0186050D02*
X0068458Y0190554D01*
X0066856Y0189803D02*
X0066106Y0190554D01*
X0064605Y0190554D01*
X0063854Y0189803D01*
X0063854Y0186801D01*
X0062253Y0186050D02*
X0059250Y0186050D01*
X0060751Y0186050D02*
X0060751Y0190554D01*
X0059250Y0189053D01*
X0058250Y0193750D02*
X0058250Y0198254D01*
X0060502Y0198254D01*
X0061253Y0197503D01*
X0061253Y0196002D01*
X0060502Y0195251D01*
X0058250Y0195251D01*
X0059751Y0195251D02*
X0061253Y0193750D01*
X0062854Y0194501D02*
X0063605Y0193750D01*
X0065106Y0193750D01*
X0065856Y0194501D01*
X0065856Y0195251D01*
X0065106Y0196002D01*
X0064355Y0196002D01*
X0065106Y0196002D02*
X0065856Y0196753D01*
X0065856Y0197503D01*
X0065106Y0198254D01*
X0063605Y0198254D01*
X0062854Y0197503D01*
X0068458Y0187551D02*
X0070710Y0189053D01*
X0068458Y0187551D02*
X0070710Y0186050D01*
X0065106Y0098254D02*
X0062854Y0096002D01*
X0065856Y0096002D01*
X0065106Y0093750D02*
X0065106Y0098254D01*
X0061253Y0097503D02*
X0061253Y0096002D01*
X0060502Y0095251D01*
X0058250Y0095251D01*
X0058250Y0093750D02*
X0058250Y0098254D01*
X0060502Y0098254D01*
X0061253Y0097503D01*
X0059751Y0095251D02*
X0061253Y0093750D01*
X0060751Y0090554D02*
X0060751Y0086050D01*
X0059250Y0086050D02*
X0062253Y0086050D01*
X0063854Y0086801D02*
X0066856Y0089803D01*
X0066856Y0086801D01*
X0066106Y0086050D01*
X0064605Y0086050D01*
X0063854Y0086801D01*
X0063854Y0089803D01*
X0064605Y0090554D01*
X0066106Y0090554D01*
X0066856Y0089803D01*
X0068458Y0090554D02*
X0068458Y0086050D01*
X0068458Y0087551D02*
X0070710Y0089053D01*
X0068458Y0087551D02*
X0070710Y0086050D01*
X0060751Y0090554D02*
X0059250Y0089053D01*
X0058250Y0078254D02*
X0060502Y0078254D01*
X0061253Y0077503D01*
X0061253Y0076002D01*
X0060502Y0075251D01*
X0058250Y0075251D01*
X0058250Y0073750D02*
X0058250Y0078254D01*
X0062854Y0078254D02*
X0062854Y0076002D01*
X0064355Y0076753D01*
X0065106Y0076753D01*
X0065856Y0076002D01*
X0065856Y0074501D01*
X0065106Y0073750D01*
X0063605Y0073750D01*
X0062854Y0074501D01*
X0061253Y0073750D02*
X0059751Y0075251D01*
X0062854Y0078254D02*
X0065856Y0078254D01*
X0066106Y0070554D02*
X0064605Y0070554D01*
X0063854Y0069803D01*
X0063854Y0066801D01*
X0066856Y0069803D01*
X0066856Y0066801D01*
X0066106Y0066050D01*
X0064605Y0066050D01*
X0063854Y0066801D01*
X0062253Y0066050D02*
X0059250Y0066050D01*
X0060751Y0066050D02*
X0060751Y0070554D01*
X0059250Y0069053D01*
X0066106Y0070554D02*
X0066856Y0069803D01*
X0068458Y0070554D02*
X0068458Y0066050D01*
X0068458Y0067551D02*
X0070710Y0069053D01*
X0068458Y0067551D02*
X0070710Y0066050D01*
X0070147Y0057254D02*
X0070147Y0052750D01*
X0068646Y0052750D02*
X0071649Y0052750D01*
X0070294Y0049954D02*
X0068793Y0049954D01*
X0068042Y0049203D01*
X0066441Y0049954D02*
X0064939Y0049203D01*
X0063438Y0047702D01*
X0065690Y0047702D01*
X0066441Y0046951D01*
X0066441Y0046201D01*
X0065690Y0045450D01*
X0064189Y0045450D01*
X0063438Y0046201D01*
X0063438Y0047702D01*
X0068042Y0045450D02*
X0071045Y0048453D01*
X0071045Y0049203D01*
X0070294Y0049954D01*
X0072646Y0049203D02*
X0073397Y0049954D01*
X0074898Y0049954D01*
X0075649Y0049203D01*
X0072646Y0046201D01*
X0073397Y0045450D01*
X0074898Y0045450D01*
X0075649Y0046201D01*
X0075649Y0049203D01*
X0072646Y0049203D02*
X0072646Y0046201D01*
X0071045Y0045450D02*
X0068042Y0045450D01*
X0067045Y0052750D02*
X0064042Y0052750D01*
X0065543Y0052750D02*
X0065543Y0057254D01*
X0064042Y0055753D01*
X0062441Y0056503D02*
X0062441Y0055002D01*
X0061690Y0054251D01*
X0059438Y0054251D01*
X0059438Y0052750D02*
X0059438Y0057254D01*
X0061690Y0057254D01*
X0062441Y0056503D01*
X0060939Y0054251D02*
X0062441Y0052750D01*
X0068646Y0055753D02*
X0070147Y0057254D01*
X0041250Y0058356D02*
X0041250Y0055354D01*
X0036746Y0055354D01*
X0036746Y0058356D01*
X0036746Y0059958D02*
X0036746Y0062210D01*
X0037497Y0062960D01*
X0040499Y0062960D01*
X0041250Y0062210D01*
X0041250Y0059958D01*
X0036746Y0059958D01*
X0038998Y0056855D02*
X0038998Y0055354D01*
X0041250Y0053753D02*
X0041250Y0050750D01*
X0036746Y0050750D01*
X0038247Y0064562D02*
X0036746Y0066063D01*
X0041250Y0066063D01*
X0041250Y0064562D02*
X0041250Y0067564D01*
X0200769Y0041703D02*
X0200769Y0040953D01*
X0201520Y0040202D01*
X0203771Y0040202D01*
X0203771Y0038701D02*
X0203771Y0041703D01*
X0203021Y0042454D01*
X0201520Y0042454D01*
X0200769Y0041703D01*
X0205373Y0042454D02*
X0205373Y0039451D01*
X0206874Y0037950D01*
X0208375Y0039451D01*
X0208375Y0042454D01*
X0214581Y0042454D02*
X0216833Y0042454D01*
X0217583Y0041703D01*
X0217583Y0040202D01*
X0216833Y0039451D01*
X0214581Y0039451D01*
X0214581Y0037950D02*
X0214581Y0042454D01*
X0219185Y0042454D02*
X0219185Y0037950D01*
X0220686Y0039451D01*
X0222187Y0037950D01*
X0222187Y0042454D01*
X0223789Y0042454D02*
X0226040Y0042454D01*
X0226791Y0041703D01*
X0226791Y0040202D01*
X0226040Y0039451D01*
X0223789Y0039451D01*
X0225290Y0039451D02*
X0226791Y0037950D01*
X0223789Y0037950D02*
X0223789Y0042454D01*
X0212979Y0037199D02*
X0209977Y0037199D01*
X0203771Y0038701D02*
X0203021Y0037950D01*
X0201520Y0037950D01*
X0200769Y0038701D01*
X0207739Y0020254D02*
X0206989Y0019503D01*
X0207739Y0020254D02*
X0209241Y0020254D01*
X0209991Y0019503D01*
X0209991Y0018753D01*
X0206989Y0015750D01*
X0209991Y0015750D01*
X0226489Y0015750D02*
X0229491Y0015750D01*
X0227990Y0015750D02*
X0227990Y0020254D01*
X0226489Y0018753D01*
X0330497Y0102647D02*
X0331998Y0101146D01*
X0331998Y0103398D01*
X0332749Y0104149D01*
X0333499Y0104149D01*
X0334250Y0103398D01*
X0334250Y0101897D01*
X0333499Y0101146D01*
X0331998Y0101146D01*
X0330497Y0102647D02*
X0329746Y0104149D01*
D13*
X0294000Y0103000D02*
X0294000Y0100000D01*
X0292000Y0100000D02*
X0292000Y0103000D01*
X0292000Y0106000D01*
X0294000Y0106000D02*
X0294000Y0103000D01*
X0259000Y0103000D02*
X0259000Y0100000D01*
X0257000Y0100000D02*
X0257000Y0103000D01*
X0257000Y0106000D01*
X0259000Y0106000D02*
X0259000Y0103000D01*
X0370500Y0098000D02*
X0378000Y0098000D01*
X0378000Y0158000D01*
X0395500Y0158000D01*
X0395500Y0098000D01*
X0378000Y0098000D01*
X0370500Y0098000D02*
X0370500Y0158000D01*
X0378000Y0158000D01*
X0378000Y0088000D02*
X0370500Y0088000D01*
X0370500Y0048000D01*
X0378000Y0048000D01*
X0378000Y0088000D01*
X0395500Y0088000D01*
X0395500Y0048000D01*
X0378000Y0048000D01*
X0178000Y0035500D02*
X0178000Y0028000D01*
X0138000Y0028000D01*
X0138000Y0035500D01*
X0178000Y0035500D01*
X0178000Y0028000D02*
X0178000Y0010500D01*
X0138000Y0010500D01*
X0138000Y0028000D01*
X0128000Y0028000D02*
X0098000Y0028000D01*
X0098000Y0035500D01*
X0128000Y0035500D01*
X0128000Y0028000D01*
X0128000Y0010500D01*
X0098000Y0010500D01*
X0098000Y0028000D01*
X0088000Y0028000D02*
X0048000Y0028000D01*
X0048000Y0035500D01*
X0088000Y0035500D01*
X0088000Y0028000D01*
X0088000Y0010500D01*
X0048000Y0010500D01*
X0048000Y0028000D01*
X0026969Y0051054D02*
X0027138Y0051153D01*
X0027304Y0051257D01*
X0027468Y0051364D01*
X0027629Y0051475D01*
X0027787Y0051590D01*
X0027942Y0051709D01*
X0028095Y0051832D01*
X0028244Y0051958D01*
X0028390Y0052088D01*
X0028533Y0052222D01*
X0028673Y0052359D01*
X0028809Y0052499D01*
X0028942Y0052643D01*
X0029071Y0052790D01*
X0029197Y0052940D01*
X0029318Y0053093D01*
X0029437Y0053249D01*
X0029551Y0053408D01*
X0029661Y0053569D01*
X0029767Y0053734D01*
X0029870Y0053900D01*
X0029968Y0054070D01*
X0030062Y0054241D01*
X0030152Y0054415D01*
X0030237Y0054591D01*
X0030319Y0054769D01*
X0030395Y0054949D01*
X0030468Y0055131D01*
X0030536Y0055314D01*
X0030599Y0055499D01*
X0030658Y0055686D01*
X0030712Y0055874D01*
X0030762Y0056063D01*
X0030807Y0056253D01*
X0030847Y0056445D01*
X0030883Y0056637D01*
X0030914Y0056830D01*
X0030940Y0057024D01*
X0030962Y0057219D01*
X0030978Y0057414D01*
X0030990Y0057609D01*
X0030998Y0057805D01*
X0031000Y0058000D01*
X0019235Y0050941D02*
X0019067Y0051034D01*
X0018901Y0051130D01*
X0018737Y0051230D01*
X0018576Y0051335D01*
X0018417Y0051443D01*
X0018261Y0051555D01*
X0018107Y0051671D01*
X0017957Y0051790D01*
X0017809Y0051913D01*
X0017664Y0052039D01*
X0017523Y0052169D01*
X0017384Y0052302D01*
X0017249Y0052439D01*
X0017117Y0052579D01*
X0016989Y0052721D01*
X0016864Y0052867D01*
X0016742Y0053016D01*
X0016624Y0053168D01*
X0016510Y0053322D01*
X0016400Y0053480D01*
X0016293Y0053639D01*
X0016190Y0053802D01*
X0016091Y0053967D01*
X0015996Y0054134D01*
X0015906Y0054303D01*
X0015819Y0054474D01*
X0015736Y0054648D01*
X0015658Y0054823D01*
X0015584Y0055001D01*
X0015514Y0055180D01*
X0015448Y0055360D01*
X0015387Y0055542D01*
X0015330Y0055726D01*
X0015278Y0055911D01*
X0015230Y0056097D01*
X0015186Y0056284D01*
X0015147Y0056472D01*
X0015113Y0056661D01*
X0015083Y0056851D01*
X0015058Y0057041D01*
X0015037Y0057232D01*
X0015021Y0057424D01*
X0015009Y0057616D01*
X0015002Y0057808D01*
X0015000Y0058000D01*
X0028168Y0064107D02*
X0028314Y0063980D01*
X0028456Y0063851D01*
X0028596Y0063717D01*
X0028732Y0063581D01*
X0028865Y0063441D01*
X0028995Y0063298D01*
X0029121Y0063151D01*
X0029243Y0063002D01*
X0029362Y0062850D01*
X0029477Y0062695D01*
X0029589Y0062538D01*
X0029696Y0062378D01*
X0029800Y0062215D01*
X0029899Y0062049D01*
X0029995Y0061882D01*
X0030087Y0061712D01*
X0030174Y0061540D01*
X0030258Y0061366D01*
X0030337Y0061190D01*
X0030411Y0061012D01*
X0030482Y0060832D01*
X0030548Y0060651D01*
X0030610Y0060468D01*
X0030667Y0060284D01*
X0030720Y0060098D01*
X0030768Y0059911D01*
X0030812Y0059723D01*
X0030851Y0059534D01*
X0030886Y0059344D01*
X0030916Y0059154D01*
X0030942Y0058963D01*
X0030963Y0058771D01*
X0030979Y0058578D01*
X0030991Y0058386D01*
X0030998Y0058193D01*
X0031000Y0058000D01*
X0017878Y0064146D02*
X0017730Y0064019D01*
X0017585Y0063889D01*
X0017444Y0063756D01*
X0017305Y0063619D01*
X0017170Y0063479D01*
X0017039Y0063335D01*
X0016911Y0063188D01*
X0016786Y0063039D01*
X0016665Y0062886D01*
X0016548Y0062731D01*
X0016435Y0062572D01*
X0016326Y0062411D01*
X0016221Y0062247D01*
X0016119Y0062081D01*
X0016022Y0061912D01*
X0015929Y0061742D01*
X0015840Y0061568D01*
X0015755Y0061393D01*
X0015675Y0061216D01*
X0015599Y0061037D01*
X0015527Y0060856D01*
X0015460Y0060673D01*
X0015397Y0060489D01*
X0015339Y0060303D01*
X0015285Y0060116D01*
X0015236Y0059928D01*
X0015191Y0059738D01*
X0015151Y0059548D01*
X0015116Y0059356D01*
X0015085Y0059164D01*
X0015059Y0058971D01*
X0015038Y0058777D01*
X0015021Y0058583D01*
X0015009Y0058389D01*
X0015002Y0058195D01*
X0015000Y0058000D01*
X0010500Y0073000D02*
X0010500Y0113000D01*
X0028000Y0113000D01*
X0028000Y0073000D01*
X0010500Y0073000D01*
X0028000Y0073000D02*
X0035500Y0073000D01*
X0035500Y0113000D01*
X0028000Y0113000D01*
X0028000Y0123000D02*
X0010500Y0123000D01*
X0010500Y0163000D01*
X0028000Y0163000D01*
X0028000Y0123000D01*
X0035500Y0123000D01*
X0035500Y0163000D01*
X0028000Y0163000D01*
D14*
X0038197Y0161318D02*
X0038197Y0160117D01*
X0038797Y0159517D01*
X0039398Y0159517D01*
X0039998Y0160117D01*
X0039998Y0161318D01*
X0040599Y0161919D01*
X0041199Y0161919D01*
X0041800Y0161318D01*
X0041800Y0160117D01*
X0041199Y0159517D01*
X0041800Y0158236D02*
X0038197Y0158236D01*
X0038197Y0155834D02*
X0041800Y0158236D01*
X0041800Y0155834D02*
X0038197Y0155834D01*
X0038197Y0154553D02*
X0038197Y0152151D01*
X0038197Y0153352D02*
X0041800Y0153352D01*
X0041199Y0150869D02*
X0040599Y0150869D01*
X0039998Y0150269D01*
X0039998Y0148467D01*
X0038197Y0148467D02*
X0038197Y0150269D01*
X0038797Y0150869D01*
X0039398Y0150869D01*
X0039998Y0150269D01*
X0041199Y0150869D02*
X0041800Y0150269D01*
X0041800Y0148467D01*
X0038197Y0148467D01*
X0042401Y0147186D02*
X0042401Y0144784D01*
X0041800Y0143503D02*
X0038197Y0143503D01*
X0038197Y0141101D02*
X0041800Y0143503D01*
X0041800Y0141101D02*
X0038197Y0141101D01*
X0038197Y0139820D02*
X0038197Y0137418D01*
X0041800Y0137418D01*
X0041800Y0139820D01*
X0039998Y0138619D02*
X0039998Y0137418D01*
X0038797Y0136137D02*
X0038197Y0135536D01*
X0038197Y0134335D01*
X0038797Y0133735D01*
X0041199Y0133735D01*
X0041800Y0134335D01*
X0041800Y0135536D01*
X0041199Y0136137D01*
X0038197Y0132454D02*
X0041800Y0130052D01*
X0041800Y0127570D02*
X0038197Y0127570D01*
X0038197Y0126369D02*
X0038197Y0128771D01*
X0038797Y0125087D02*
X0038197Y0124487D01*
X0038197Y0123286D01*
X0038797Y0122685D01*
X0039398Y0122685D01*
X0039998Y0123286D01*
X0039998Y0124487D01*
X0040599Y0125087D01*
X0041199Y0125087D01*
X0041800Y0124487D01*
X0041800Y0123286D01*
X0041199Y0122685D01*
X0041199Y0111919D02*
X0040599Y0111919D01*
X0039998Y0111318D01*
X0039998Y0110117D01*
X0039398Y0109517D01*
X0038797Y0109517D01*
X0038197Y0110117D01*
X0038197Y0111318D01*
X0038797Y0111919D01*
X0041199Y0111919D02*
X0041800Y0111318D01*
X0041800Y0110117D01*
X0041199Y0109517D01*
X0041800Y0108236D02*
X0038197Y0108236D01*
X0038197Y0105834D02*
X0041800Y0108236D01*
X0041800Y0105834D02*
X0038197Y0105834D01*
X0038197Y0104553D02*
X0038197Y0102151D01*
X0038197Y0103352D02*
X0041800Y0103352D01*
X0041199Y0100869D02*
X0040599Y0100869D01*
X0039998Y0100269D01*
X0039998Y0098467D01*
X0038197Y0098467D02*
X0038197Y0100269D01*
X0038797Y0100869D01*
X0039398Y0100869D01*
X0039998Y0100269D01*
X0041199Y0100869D02*
X0041800Y0100269D01*
X0041800Y0098467D01*
X0038197Y0098467D01*
X0042401Y0097186D02*
X0042401Y0094784D01*
X0040599Y0092903D02*
X0040599Y0091101D01*
X0041800Y0091101D02*
X0038197Y0091101D01*
X0038197Y0092903D01*
X0038797Y0093503D01*
X0039998Y0093503D01*
X0040599Y0092903D01*
X0041199Y0089820D02*
X0038197Y0089820D01*
X0041199Y0089820D02*
X0041800Y0089220D01*
X0041800Y0088018D01*
X0041199Y0087418D01*
X0038197Y0087418D01*
X0038197Y0086137D02*
X0041800Y0083735D01*
X0041800Y0082454D02*
X0038197Y0082454D01*
X0038197Y0080052D02*
X0041800Y0082454D01*
X0041800Y0080052D02*
X0038197Y0080052D01*
X0038197Y0078771D02*
X0041800Y0078771D01*
X0040599Y0077570D01*
X0041800Y0076369D01*
X0038197Y0076369D01*
X0038797Y0075087D02*
X0038197Y0074487D01*
X0038197Y0072685D01*
X0041800Y0072685D01*
X0041800Y0074487D01*
X0041199Y0075087D01*
X0038797Y0075087D01*
X0049401Y0041803D02*
X0050602Y0040602D01*
X0050602Y0038200D01*
X0051883Y0038200D02*
X0053084Y0039401D01*
X0054285Y0038200D01*
X0054285Y0041803D01*
X0055566Y0041803D02*
X0055566Y0041203D01*
X0056767Y0040002D01*
X0056767Y0038200D01*
X0056767Y0040002D02*
X0057968Y0041203D01*
X0057968Y0041803D01*
X0061651Y0041803D02*
X0059249Y0038200D01*
X0062933Y0038200D02*
X0062933Y0041803D01*
X0062933Y0040002D02*
X0065335Y0040002D01*
X0065335Y0041803D02*
X0065335Y0038200D01*
X0066616Y0038200D02*
X0066616Y0041803D01*
X0067817Y0040602D01*
X0069018Y0041803D01*
X0069018Y0038200D01*
X0070299Y0038200D02*
X0072701Y0038200D01*
X0073982Y0037599D02*
X0076384Y0037599D01*
X0077665Y0038801D02*
X0078266Y0038200D01*
X0079467Y0038200D01*
X0080067Y0038801D01*
X0080067Y0039401D01*
X0079467Y0040002D01*
X0078266Y0040002D01*
X0077665Y0040602D01*
X0077665Y0041203D01*
X0078266Y0041803D01*
X0079467Y0041803D01*
X0080067Y0041203D01*
X0081348Y0041803D02*
X0081348Y0038200D01*
X0082549Y0039401D01*
X0083750Y0038200D01*
X0083750Y0041803D01*
X0072701Y0041803D02*
X0070299Y0041803D01*
X0070299Y0038200D01*
X0070299Y0040002D02*
X0071500Y0040002D01*
X0051883Y0041803D02*
X0051883Y0038200D01*
X0050602Y0040002D02*
X0048200Y0040002D01*
X0048200Y0040602D02*
X0049401Y0041803D01*
X0048200Y0040602D02*
X0048200Y0038200D01*
X0098200Y0038801D02*
X0098801Y0038200D01*
X0100002Y0038200D01*
X0100602Y0038801D01*
X0100602Y0039401D01*
X0100002Y0040002D01*
X0098801Y0040002D01*
X0098200Y0040602D01*
X0098200Y0041203D01*
X0098801Y0041803D01*
X0100002Y0041803D01*
X0100602Y0041203D01*
X0101883Y0041803D02*
X0101883Y0038200D01*
X0101883Y0040002D02*
X0104285Y0040002D01*
X0105566Y0038801D02*
X0106167Y0038200D01*
X0107368Y0038200D01*
X0107968Y0038801D01*
X0107968Y0041803D01*
X0109249Y0041803D02*
X0111651Y0041803D01*
X0110450Y0041803D02*
X0110450Y0038200D01*
X0114134Y0038200D02*
X0114134Y0041803D01*
X0112933Y0041803D02*
X0115335Y0041803D01*
X0116616Y0041803D02*
X0116616Y0038200D01*
X0119018Y0038200D01*
X0120299Y0038200D02*
X0120299Y0041803D01*
X0122100Y0041803D01*
X0122701Y0041203D01*
X0122701Y0040002D01*
X0122100Y0039401D01*
X0120299Y0039401D01*
X0121500Y0039401D02*
X0122701Y0038200D01*
X0117817Y0040002D02*
X0116616Y0040002D01*
X0116616Y0041803D02*
X0119018Y0041803D01*
X0105566Y0041803D02*
X0105566Y0038801D01*
X0104285Y0038200D02*
X0104285Y0041803D01*
X0138200Y0041803D02*
X0138200Y0038200D01*
X0140602Y0038200D02*
X0140602Y0041803D01*
X0139401Y0040602D01*
X0138200Y0041803D01*
X0141883Y0041203D02*
X0141883Y0038801D01*
X0142484Y0038200D01*
X0143685Y0038200D01*
X0144285Y0038801D01*
X0144285Y0041203D01*
X0143685Y0041803D01*
X0142484Y0041803D01*
X0141883Y0041203D01*
X0145566Y0041803D02*
X0147968Y0041803D01*
X0146767Y0041803D02*
X0146767Y0038200D01*
X0149249Y0038801D02*
X0149850Y0038200D01*
X0151051Y0038200D01*
X0151651Y0038801D01*
X0151651Y0041203D01*
X0151051Y0041803D01*
X0149850Y0041803D01*
X0149249Y0041203D01*
X0149249Y0038801D01*
X0152933Y0039401D02*
X0154734Y0039401D01*
X0155335Y0040002D01*
X0155335Y0041203D01*
X0154734Y0041803D01*
X0152933Y0041803D01*
X0152933Y0038200D01*
X0154134Y0039401D02*
X0155335Y0038200D01*
X0168349Y0048200D02*
X0168349Y0052804D01*
X0169883Y0051269D01*
X0171418Y0052804D01*
X0171418Y0048200D01*
X0172953Y0048967D02*
X0173720Y0048200D01*
X0175255Y0048200D01*
X0176022Y0048967D01*
X0176022Y0052037D01*
X0175255Y0052804D01*
X0173720Y0052804D01*
X0172953Y0052037D01*
X0172953Y0048967D01*
X0177557Y0052804D02*
X0180626Y0052804D01*
X0179091Y0052804D02*
X0179091Y0048200D01*
X0182161Y0048967D02*
X0182928Y0048200D01*
X0184463Y0048200D01*
X0185230Y0048967D01*
X0185230Y0052037D01*
X0184463Y0052804D01*
X0182928Y0052804D01*
X0182161Y0052037D01*
X0182161Y0048967D01*
X0186765Y0048200D02*
X0186765Y0052804D01*
X0189067Y0052804D01*
X0189834Y0052037D01*
X0189834Y0050502D01*
X0189067Y0049735D01*
X0186765Y0049735D01*
X0188299Y0049735D02*
X0189834Y0048200D01*
X0191368Y0047433D02*
X0194438Y0047433D01*
X0195972Y0048967D02*
X0196740Y0048200D01*
X0198274Y0048200D01*
X0199042Y0048967D01*
X0200576Y0048967D02*
X0201344Y0048200D01*
X0202878Y0048200D01*
X0203646Y0048967D01*
X0203646Y0052037D01*
X0202878Y0052804D01*
X0201344Y0052804D01*
X0200576Y0052037D01*
X0200576Y0048967D01*
X0199042Y0052037D02*
X0198274Y0052804D01*
X0196740Y0052804D01*
X0195972Y0052037D01*
X0195972Y0048967D01*
X0205180Y0048200D02*
X0205180Y0052804D01*
X0208250Y0048200D01*
X0208250Y0052804D01*
X0209784Y0052804D02*
X0212853Y0052804D01*
X0211319Y0052804D02*
X0211319Y0048200D01*
X0214388Y0048200D02*
X0214388Y0052804D01*
X0216690Y0052804D01*
X0217457Y0052037D01*
X0217457Y0050502D01*
X0216690Y0049735D01*
X0214388Y0049735D01*
X0215923Y0049735D02*
X0217457Y0048200D01*
X0218992Y0048967D02*
X0219759Y0048200D01*
X0221294Y0048200D01*
X0222061Y0048967D01*
X0222061Y0052037D01*
X0221294Y0052804D01*
X0219759Y0052804D01*
X0218992Y0052037D01*
X0218992Y0048967D01*
X0223596Y0048200D02*
X0226665Y0048200D01*
X0223596Y0048200D02*
X0223596Y0052804D01*
X0225787Y0063200D02*
X0228856Y0066269D01*
X0228856Y0067037D01*
X0228089Y0067804D01*
X0226554Y0067804D01*
X0225787Y0067037D01*
X0225787Y0063200D02*
X0228856Y0063200D01*
X0170411Y0065502D02*
X0167342Y0065502D01*
X0169644Y0067804D01*
X0169644Y0063200D01*
X0165807Y0063200D02*
X0162738Y0063200D01*
X0164273Y0063200D02*
X0164273Y0067804D01*
X0162738Y0066269D01*
X0162641Y0098669D02*
X0161873Y0099436D01*
X0162641Y0098669D02*
X0164175Y0098669D01*
X0164943Y0099436D01*
X0164943Y0100971D01*
X0164175Y0101738D01*
X0163408Y0101738D01*
X0161873Y0100971D01*
X0161873Y0103273D01*
X0164943Y0103273D01*
X0158804Y0103273D02*
X0158804Y0098669D01*
X0157269Y0098669D02*
X0160339Y0098669D01*
X0157269Y0101738D02*
X0158804Y0103273D01*
X0230318Y0101971D02*
X0231853Y0103506D01*
X0231853Y0098902D01*
X0233387Y0098902D02*
X0230318Y0098902D01*
X0364197Y0098200D02*
X0367800Y0098200D01*
X0367800Y0100602D01*
X0367199Y0101883D02*
X0367800Y0102484D01*
X0367800Y0103685D01*
X0367199Y0104285D01*
X0367800Y0105566D02*
X0367800Y0107368D01*
X0367199Y0107968D01*
X0364797Y0107968D01*
X0364197Y0107368D01*
X0364197Y0105566D01*
X0367800Y0105566D01*
X0364797Y0104285D02*
X0364197Y0103685D01*
X0364197Y0102484D01*
X0364797Y0101883D01*
X0367199Y0101883D01*
X0368401Y0109249D02*
X0368401Y0111651D01*
X0367800Y0112933D02*
X0364197Y0112933D01*
X0364197Y0114734D01*
X0364797Y0115335D01*
X0365998Y0115335D01*
X0366599Y0114734D01*
X0366599Y0112933D01*
X0367800Y0116616D02*
X0364197Y0116616D01*
X0364197Y0119018D02*
X0367800Y0119018D01*
X0366599Y0117817D01*
X0367800Y0116616D01*
X0367800Y0120299D02*
X0364197Y0120299D01*
X0364197Y0122100D01*
X0364797Y0122701D01*
X0365998Y0122701D01*
X0366599Y0122100D01*
X0366599Y0120299D01*
X0366599Y0121500D02*
X0367800Y0122701D01*
X0367800Y0123982D02*
X0364197Y0126384D01*
X0364797Y0127665D02*
X0367199Y0127665D01*
X0367800Y0128266D01*
X0367800Y0129467D01*
X0367199Y0130067D01*
X0367800Y0131348D02*
X0364197Y0131348D01*
X0367800Y0133750D01*
X0364197Y0133750D01*
X0364197Y0135031D02*
X0364197Y0137433D01*
X0364197Y0136232D02*
X0367800Y0136232D01*
X0367800Y0138715D02*
X0364197Y0138715D01*
X0367800Y0138715D02*
X0367800Y0141117D01*
X0364797Y0130067D02*
X0364197Y0129467D01*
X0364197Y0128266D01*
X0364797Y0127665D01*
X0365398Y0076384D02*
X0367800Y0076384D01*
X0365998Y0076384D02*
X0365998Y0073982D01*
X0365398Y0073982D02*
X0367800Y0073982D01*
X0365398Y0073982D02*
X0364197Y0075183D01*
X0365398Y0076384D01*
X0364197Y0072701D02*
X0364197Y0070299D01*
X0364197Y0071500D02*
X0367800Y0071500D01*
X0367800Y0069018D02*
X0365398Y0069018D01*
X0364197Y0067817D01*
X0365398Y0066616D01*
X0367800Y0066616D01*
X0367199Y0065335D02*
X0364797Y0065335D01*
X0364197Y0064734D01*
X0364197Y0062933D01*
X0367800Y0062933D01*
X0367800Y0064734D01*
X0367199Y0065335D01*
X0365998Y0066616D02*
X0365998Y0069018D01*
X0368401Y0061651D02*
X0368401Y0059249D01*
X0367199Y0057968D02*
X0364797Y0057968D01*
X0364197Y0057368D01*
X0364197Y0055566D01*
X0367800Y0055566D01*
X0367800Y0057368D01*
X0367199Y0057968D01*
X0367199Y0054285D02*
X0367800Y0053685D01*
X0367800Y0052484D01*
X0367199Y0051883D01*
X0364797Y0051883D01*
X0364197Y0052484D01*
X0364197Y0053685D01*
X0364797Y0054285D01*
X0367800Y0050602D02*
X0367800Y0048200D01*
X0364197Y0048200D01*
X0038797Y0161919D02*
X0038197Y0161318D01*
D15*
X0186750Y0163000D03*
X0186750Y0143000D03*
X0186750Y0123000D03*
X0241750Y0123000D03*
X0241750Y0143000D03*
X0241750Y0163000D03*
X0241750Y0183000D03*
X0186750Y0183000D03*
D16*
X0191750Y0183000D03*
X0174250Y0183000D03*
X0174250Y0163000D03*
X0191750Y0163000D03*
X0191750Y0143000D03*
X0174250Y0143000D03*
X0174250Y0123000D03*
X0191750Y0123000D03*
X0229250Y0123000D03*
X0246750Y0123000D03*
X0246750Y0143000D03*
X0229250Y0143000D03*
X0229250Y0163000D03*
X0246750Y0163000D03*
X0246750Y0183000D03*
X0229250Y0183000D03*
D17*
X0328000Y0172000D02*
X0328000Y0171000D01*
X0328000Y0172000D02*
X0337500Y0172000D01*
X0337500Y0171000D01*
X0338000Y0194000D02*
X0328000Y0194000D01*
X0328000Y0195000D01*
X0338000Y0195000D02*
X0338000Y0194000D01*
X0281000Y0063000D02*
X0245000Y0063000D01*
X0245000Y0030500D01*
X0281000Y0030500D01*
X0281000Y0063000D01*
D18*
X0241150Y0030296D02*
X0241150Y0026092D01*
X0241150Y0028194D02*
X0234845Y0028194D01*
X0236946Y0026092D01*
X0235896Y0023851D02*
X0234845Y0022800D01*
X0234845Y0020698D01*
X0235896Y0019647D01*
X0240099Y0019647D01*
X0241150Y0020698D01*
X0241150Y0022800D01*
X0240099Y0023851D01*
X0241150Y0017452D02*
X0241150Y0015350D01*
X0241150Y0016401D02*
X0234845Y0016401D01*
X0234845Y0015350D02*
X0234845Y0017452D01*
X0129394Y0188850D02*
X0130445Y0189901D01*
X0130445Y0195155D01*
X0126241Y0195155D02*
X0126241Y0189901D01*
X0127292Y0188850D01*
X0129394Y0188850D01*
X0123999Y0189901D02*
X0122948Y0188850D01*
X0120846Y0188850D01*
X0119795Y0189901D01*
X0119795Y0194104D01*
X0120846Y0195155D01*
X0122948Y0195155D01*
X0123999Y0194104D01*
X0117554Y0195155D02*
X0115452Y0193054D01*
X0113350Y0195155D01*
X0113350Y0188850D01*
X0117554Y0188850D02*
X0117554Y0195155D01*
D19*
X0253000Y0015750D03*
X0263000Y0015750D03*
X0273000Y0015750D03*
D20*
X0273000Y0022500D03*
X0263000Y0022500D03*
X0253000Y0022500D03*
D21*
X0198000Y0059014D03*
D22*
X0277100Y0139500D02*
X0278600Y0139500D01*
X0280500Y0146000D02*
X0279500Y0147000D01*
X0288000Y0148700D02*
X0288000Y0150200D01*
X0295000Y0146000D02*
X0296000Y0147000D01*
X0297400Y0139500D02*
X0298900Y0139500D01*
D23*
X0371307Y0183000D02*
X0371309Y0183164D01*
X0371315Y0183328D01*
X0371325Y0183492D01*
X0371339Y0183656D01*
X0371357Y0183819D01*
X0371379Y0183982D01*
X0371406Y0184144D01*
X0371436Y0184306D01*
X0371470Y0184466D01*
X0371508Y0184626D01*
X0371549Y0184785D01*
X0371595Y0184943D01*
X0371645Y0185099D01*
X0371698Y0185255D01*
X0371755Y0185409D01*
X0371816Y0185561D01*
X0371881Y0185712D01*
X0371950Y0185862D01*
X0372022Y0186009D01*
X0372097Y0186155D01*
X0372177Y0186299D01*
X0372259Y0186441D01*
X0372345Y0186581D01*
X0372435Y0186718D01*
X0372528Y0186854D01*
X0372624Y0186987D01*
X0372724Y0187118D01*
X0372826Y0187246D01*
X0372932Y0187372D01*
X0373041Y0187495D01*
X0373153Y0187615D01*
X0373267Y0187733D01*
X0373385Y0187847D01*
X0373505Y0187959D01*
X0373628Y0188068D01*
X0373754Y0188174D01*
X0373882Y0188276D01*
X0374013Y0188376D01*
X0374146Y0188472D01*
X0374282Y0188565D01*
X0374419Y0188655D01*
X0374559Y0188741D01*
X0374701Y0188823D01*
X0374845Y0188903D01*
X0374991Y0188978D01*
X0375138Y0189050D01*
X0375288Y0189119D01*
X0375439Y0189184D01*
X0375591Y0189245D01*
X0375745Y0189302D01*
X0375901Y0189355D01*
X0376057Y0189405D01*
X0376215Y0189451D01*
X0376374Y0189492D01*
X0376534Y0189530D01*
X0376694Y0189564D01*
X0376856Y0189594D01*
X0377018Y0189621D01*
X0377181Y0189643D01*
X0377344Y0189661D01*
X0377508Y0189675D01*
X0377672Y0189685D01*
X0377836Y0189691D01*
X0378000Y0189693D01*
X0378164Y0189691D01*
X0378328Y0189685D01*
X0378492Y0189675D01*
X0378656Y0189661D01*
X0378819Y0189643D01*
X0378982Y0189621D01*
X0379144Y0189594D01*
X0379306Y0189564D01*
X0379466Y0189530D01*
X0379626Y0189492D01*
X0379785Y0189451D01*
X0379943Y0189405D01*
X0380099Y0189355D01*
X0380255Y0189302D01*
X0380409Y0189245D01*
X0380561Y0189184D01*
X0380712Y0189119D01*
X0380862Y0189050D01*
X0381009Y0188978D01*
X0381155Y0188903D01*
X0381299Y0188823D01*
X0381441Y0188741D01*
X0381581Y0188655D01*
X0381718Y0188565D01*
X0381854Y0188472D01*
X0381987Y0188376D01*
X0382118Y0188276D01*
X0382246Y0188174D01*
X0382372Y0188068D01*
X0382495Y0187959D01*
X0382615Y0187847D01*
X0382733Y0187733D01*
X0382847Y0187615D01*
X0382959Y0187495D01*
X0383068Y0187372D01*
X0383174Y0187246D01*
X0383276Y0187118D01*
X0383376Y0186987D01*
X0383472Y0186854D01*
X0383565Y0186718D01*
X0383655Y0186581D01*
X0383741Y0186441D01*
X0383823Y0186299D01*
X0383903Y0186155D01*
X0383978Y0186009D01*
X0384050Y0185862D01*
X0384119Y0185712D01*
X0384184Y0185561D01*
X0384245Y0185409D01*
X0384302Y0185255D01*
X0384355Y0185099D01*
X0384405Y0184943D01*
X0384451Y0184785D01*
X0384492Y0184626D01*
X0384530Y0184466D01*
X0384564Y0184306D01*
X0384594Y0184144D01*
X0384621Y0183982D01*
X0384643Y0183819D01*
X0384661Y0183656D01*
X0384675Y0183492D01*
X0384685Y0183328D01*
X0384691Y0183164D01*
X0384693Y0183000D01*
X0384691Y0182836D01*
X0384685Y0182672D01*
X0384675Y0182508D01*
X0384661Y0182344D01*
X0384643Y0182181D01*
X0384621Y0182018D01*
X0384594Y0181856D01*
X0384564Y0181694D01*
X0384530Y0181534D01*
X0384492Y0181374D01*
X0384451Y0181215D01*
X0384405Y0181057D01*
X0384355Y0180901D01*
X0384302Y0180745D01*
X0384245Y0180591D01*
X0384184Y0180439D01*
X0384119Y0180288D01*
X0384050Y0180138D01*
X0383978Y0179991D01*
X0383903Y0179845D01*
X0383823Y0179701D01*
X0383741Y0179559D01*
X0383655Y0179419D01*
X0383565Y0179282D01*
X0383472Y0179146D01*
X0383376Y0179013D01*
X0383276Y0178882D01*
X0383174Y0178754D01*
X0383068Y0178628D01*
X0382959Y0178505D01*
X0382847Y0178385D01*
X0382733Y0178267D01*
X0382615Y0178153D01*
X0382495Y0178041D01*
X0382372Y0177932D01*
X0382246Y0177826D01*
X0382118Y0177724D01*
X0381987Y0177624D01*
X0381854Y0177528D01*
X0381718Y0177435D01*
X0381581Y0177345D01*
X0381441Y0177259D01*
X0381299Y0177177D01*
X0381155Y0177097D01*
X0381009Y0177022D01*
X0380862Y0176950D01*
X0380712Y0176881D01*
X0380561Y0176816D01*
X0380409Y0176755D01*
X0380255Y0176698D01*
X0380099Y0176645D01*
X0379943Y0176595D01*
X0379785Y0176549D01*
X0379626Y0176508D01*
X0379466Y0176470D01*
X0379306Y0176436D01*
X0379144Y0176406D01*
X0378982Y0176379D01*
X0378819Y0176357D01*
X0378656Y0176339D01*
X0378492Y0176325D01*
X0378328Y0176315D01*
X0378164Y0176309D01*
X0378000Y0176307D01*
X0377836Y0176309D01*
X0377672Y0176315D01*
X0377508Y0176325D01*
X0377344Y0176339D01*
X0377181Y0176357D01*
X0377018Y0176379D01*
X0376856Y0176406D01*
X0376694Y0176436D01*
X0376534Y0176470D01*
X0376374Y0176508D01*
X0376215Y0176549D01*
X0376057Y0176595D01*
X0375901Y0176645D01*
X0375745Y0176698D01*
X0375591Y0176755D01*
X0375439Y0176816D01*
X0375288Y0176881D01*
X0375138Y0176950D01*
X0374991Y0177022D01*
X0374845Y0177097D01*
X0374701Y0177177D01*
X0374559Y0177259D01*
X0374419Y0177345D01*
X0374282Y0177435D01*
X0374146Y0177528D01*
X0374013Y0177624D01*
X0373882Y0177724D01*
X0373754Y0177826D01*
X0373628Y0177932D01*
X0373505Y0178041D01*
X0373385Y0178153D01*
X0373267Y0178267D01*
X0373153Y0178385D01*
X0373041Y0178505D01*
X0372932Y0178628D01*
X0372826Y0178754D01*
X0372724Y0178882D01*
X0372624Y0179013D01*
X0372528Y0179146D01*
X0372435Y0179282D01*
X0372345Y0179419D01*
X0372259Y0179559D01*
X0372177Y0179701D01*
X0372097Y0179845D01*
X0372022Y0179991D01*
X0371950Y0180138D01*
X0371881Y0180288D01*
X0371816Y0180439D01*
X0371755Y0180591D01*
X0371698Y0180745D01*
X0371645Y0180901D01*
X0371595Y0181057D01*
X0371549Y0181215D01*
X0371508Y0181374D01*
X0371470Y0181534D01*
X0371436Y0181694D01*
X0371406Y0181856D01*
X0371379Y0182018D01*
X0371357Y0182181D01*
X0371339Y0182344D01*
X0371325Y0182508D01*
X0371315Y0182672D01*
X0371309Y0182836D01*
X0371307Y0183000D01*
X0371307Y0028000D02*
X0371309Y0028164D01*
X0371315Y0028328D01*
X0371325Y0028492D01*
X0371339Y0028656D01*
X0371357Y0028819D01*
X0371379Y0028982D01*
X0371406Y0029144D01*
X0371436Y0029306D01*
X0371470Y0029466D01*
X0371508Y0029626D01*
X0371549Y0029785D01*
X0371595Y0029943D01*
X0371645Y0030099D01*
X0371698Y0030255D01*
X0371755Y0030409D01*
X0371816Y0030561D01*
X0371881Y0030712D01*
X0371950Y0030862D01*
X0372022Y0031009D01*
X0372097Y0031155D01*
X0372177Y0031299D01*
X0372259Y0031441D01*
X0372345Y0031581D01*
X0372435Y0031718D01*
X0372528Y0031854D01*
X0372624Y0031987D01*
X0372724Y0032118D01*
X0372826Y0032246D01*
X0372932Y0032372D01*
X0373041Y0032495D01*
X0373153Y0032615D01*
X0373267Y0032733D01*
X0373385Y0032847D01*
X0373505Y0032959D01*
X0373628Y0033068D01*
X0373754Y0033174D01*
X0373882Y0033276D01*
X0374013Y0033376D01*
X0374146Y0033472D01*
X0374282Y0033565D01*
X0374419Y0033655D01*
X0374559Y0033741D01*
X0374701Y0033823D01*
X0374845Y0033903D01*
X0374991Y0033978D01*
X0375138Y0034050D01*
X0375288Y0034119D01*
X0375439Y0034184D01*
X0375591Y0034245D01*
X0375745Y0034302D01*
X0375901Y0034355D01*
X0376057Y0034405D01*
X0376215Y0034451D01*
X0376374Y0034492D01*
X0376534Y0034530D01*
X0376694Y0034564D01*
X0376856Y0034594D01*
X0377018Y0034621D01*
X0377181Y0034643D01*
X0377344Y0034661D01*
X0377508Y0034675D01*
X0377672Y0034685D01*
X0377836Y0034691D01*
X0378000Y0034693D01*
X0378164Y0034691D01*
X0378328Y0034685D01*
X0378492Y0034675D01*
X0378656Y0034661D01*
X0378819Y0034643D01*
X0378982Y0034621D01*
X0379144Y0034594D01*
X0379306Y0034564D01*
X0379466Y0034530D01*
X0379626Y0034492D01*
X0379785Y0034451D01*
X0379943Y0034405D01*
X0380099Y0034355D01*
X0380255Y0034302D01*
X0380409Y0034245D01*
X0380561Y0034184D01*
X0380712Y0034119D01*
X0380862Y0034050D01*
X0381009Y0033978D01*
X0381155Y0033903D01*
X0381299Y0033823D01*
X0381441Y0033741D01*
X0381581Y0033655D01*
X0381718Y0033565D01*
X0381854Y0033472D01*
X0381987Y0033376D01*
X0382118Y0033276D01*
X0382246Y0033174D01*
X0382372Y0033068D01*
X0382495Y0032959D01*
X0382615Y0032847D01*
X0382733Y0032733D01*
X0382847Y0032615D01*
X0382959Y0032495D01*
X0383068Y0032372D01*
X0383174Y0032246D01*
X0383276Y0032118D01*
X0383376Y0031987D01*
X0383472Y0031854D01*
X0383565Y0031718D01*
X0383655Y0031581D01*
X0383741Y0031441D01*
X0383823Y0031299D01*
X0383903Y0031155D01*
X0383978Y0031009D01*
X0384050Y0030862D01*
X0384119Y0030712D01*
X0384184Y0030561D01*
X0384245Y0030409D01*
X0384302Y0030255D01*
X0384355Y0030099D01*
X0384405Y0029943D01*
X0384451Y0029785D01*
X0384492Y0029626D01*
X0384530Y0029466D01*
X0384564Y0029306D01*
X0384594Y0029144D01*
X0384621Y0028982D01*
X0384643Y0028819D01*
X0384661Y0028656D01*
X0384675Y0028492D01*
X0384685Y0028328D01*
X0384691Y0028164D01*
X0384693Y0028000D01*
X0384691Y0027836D01*
X0384685Y0027672D01*
X0384675Y0027508D01*
X0384661Y0027344D01*
X0384643Y0027181D01*
X0384621Y0027018D01*
X0384594Y0026856D01*
X0384564Y0026694D01*
X0384530Y0026534D01*
X0384492Y0026374D01*
X0384451Y0026215D01*
X0384405Y0026057D01*
X0384355Y0025901D01*
X0384302Y0025745D01*
X0384245Y0025591D01*
X0384184Y0025439D01*
X0384119Y0025288D01*
X0384050Y0025138D01*
X0383978Y0024991D01*
X0383903Y0024845D01*
X0383823Y0024701D01*
X0383741Y0024559D01*
X0383655Y0024419D01*
X0383565Y0024282D01*
X0383472Y0024146D01*
X0383376Y0024013D01*
X0383276Y0023882D01*
X0383174Y0023754D01*
X0383068Y0023628D01*
X0382959Y0023505D01*
X0382847Y0023385D01*
X0382733Y0023267D01*
X0382615Y0023153D01*
X0382495Y0023041D01*
X0382372Y0022932D01*
X0382246Y0022826D01*
X0382118Y0022724D01*
X0381987Y0022624D01*
X0381854Y0022528D01*
X0381718Y0022435D01*
X0381581Y0022345D01*
X0381441Y0022259D01*
X0381299Y0022177D01*
X0381155Y0022097D01*
X0381009Y0022022D01*
X0380862Y0021950D01*
X0380712Y0021881D01*
X0380561Y0021816D01*
X0380409Y0021755D01*
X0380255Y0021698D01*
X0380099Y0021645D01*
X0379943Y0021595D01*
X0379785Y0021549D01*
X0379626Y0021508D01*
X0379466Y0021470D01*
X0379306Y0021436D01*
X0379144Y0021406D01*
X0378982Y0021379D01*
X0378819Y0021357D01*
X0378656Y0021339D01*
X0378492Y0021325D01*
X0378328Y0021315D01*
X0378164Y0021309D01*
X0378000Y0021307D01*
X0377836Y0021309D01*
X0377672Y0021315D01*
X0377508Y0021325D01*
X0377344Y0021339D01*
X0377181Y0021357D01*
X0377018Y0021379D01*
X0376856Y0021406D01*
X0376694Y0021436D01*
X0376534Y0021470D01*
X0376374Y0021508D01*
X0376215Y0021549D01*
X0376057Y0021595D01*
X0375901Y0021645D01*
X0375745Y0021698D01*
X0375591Y0021755D01*
X0375439Y0021816D01*
X0375288Y0021881D01*
X0375138Y0021950D01*
X0374991Y0022022D01*
X0374845Y0022097D01*
X0374701Y0022177D01*
X0374559Y0022259D01*
X0374419Y0022345D01*
X0374282Y0022435D01*
X0374146Y0022528D01*
X0374013Y0022624D01*
X0373882Y0022724D01*
X0373754Y0022826D01*
X0373628Y0022932D01*
X0373505Y0023041D01*
X0373385Y0023153D01*
X0373267Y0023267D01*
X0373153Y0023385D01*
X0373041Y0023505D01*
X0372932Y0023628D01*
X0372826Y0023754D01*
X0372724Y0023882D01*
X0372624Y0024013D01*
X0372528Y0024146D01*
X0372435Y0024282D01*
X0372345Y0024419D01*
X0372259Y0024559D01*
X0372177Y0024701D01*
X0372097Y0024845D01*
X0372022Y0024991D01*
X0371950Y0025138D01*
X0371881Y0025288D01*
X0371816Y0025439D01*
X0371755Y0025591D01*
X0371698Y0025745D01*
X0371645Y0025901D01*
X0371595Y0026057D01*
X0371549Y0026215D01*
X0371508Y0026374D01*
X0371470Y0026534D01*
X0371436Y0026694D01*
X0371406Y0026856D01*
X0371379Y0027018D01*
X0371357Y0027181D01*
X0371339Y0027344D01*
X0371325Y0027508D01*
X0371315Y0027672D01*
X0371309Y0027836D01*
X0371307Y0028000D01*
X0021307Y0028000D02*
X0021309Y0028164D01*
X0021315Y0028328D01*
X0021325Y0028492D01*
X0021339Y0028656D01*
X0021357Y0028819D01*
X0021379Y0028982D01*
X0021406Y0029144D01*
X0021436Y0029306D01*
X0021470Y0029466D01*
X0021508Y0029626D01*
X0021549Y0029785D01*
X0021595Y0029943D01*
X0021645Y0030099D01*
X0021698Y0030255D01*
X0021755Y0030409D01*
X0021816Y0030561D01*
X0021881Y0030712D01*
X0021950Y0030862D01*
X0022022Y0031009D01*
X0022097Y0031155D01*
X0022177Y0031299D01*
X0022259Y0031441D01*
X0022345Y0031581D01*
X0022435Y0031718D01*
X0022528Y0031854D01*
X0022624Y0031987D01*
X0022724Y0032118D01*
X0022826Y0032246D01*
X0022932Y0032372D01*
X0023041Y0032495D01*
X0023153Y0032615D01*
X0023267Y0032733D01*
X0023385Y0032847D01*
X0023505Y0032959D01*
X0023628Y0033068D01*
X0023754Y0033174D01*
X0023882Y0033276D01*
X0024013Y0033376D01*
X0024146Y0033472D01*
X0024282Y0033565D01*
X0024419Y0033655D01*
X0024559Y0033741D01*
X0024701Y0033823D01*
X0024845Y0033903D01*
X0024991Y0033978D01*
X0025138Y0034050D01*
X0025288Y0034119D01*
X0025439Y0034184D01*
X0025591Y0034245D01*
X0025745Y0034302D01*
X0025901Y0034355D01*
X0026057Y0034405D01*
X0026215Y0034451D01*
X0026374Y0034492D01*
X0026534Y0034530D01*
X0026694Y0034564D01*
X0026856Y0034594D01*
X0027018Y0034621D01*
X0027181Y0034643D01*
X0027344Y0034661D01*
X0027508Y0034675D01*
X0027672Y0034685D01*
X0027836Y0034691D01*
X0028000Y0034693D01*
X0028164Y0034691D01*
X0028328Y0034685D01*
X0028492Y0034675D01*
X0028656Y0034661D01*
X0028819Y0034643D01*
X0028982Y0034621D01*
X0029144Y0034594D01*
X0029306Y0034564D01*
X0029466Y0034530D01*
X0029626Y0034492D01*
X0029785Y0034451D01*
X0029943Y0034405D01*
X0030099Y0034355D01*
X0030255Y0034302D01*
X0030409Y0034245D01*
X0030561Y0034184D01*
X0030712Y0034119D01*
X0030862Y0034050D01*
X0031009Y0033978D01*
X0031155Y0033903D01*
X0031299Y0033823D01*
X0031441Y0033741D01*
X0031581Y0033655D01*
X0031718Y0033565D01*
X0031854Y0033472D01*
X0031987Y0033376D01*
X0032118Y0033276D01*
X0032246Y0033174D01*
X0032372Y0033068D01*
X0032495Y0032959D01*
X0032615Y0032847D01*
X0032733Y0032733D01*
X0032847Y0032615D01*
X0032959Y0032495D01*
X0033068Y0032372D01*
X0033174Y0032246D01*
X0033276Y0032118D01*
X0033376Y0031987D01*
X0033472Y0031854D01*
X0033565Y0031718D01*
X0033655Y0031581D01*
X0033741Y0031441D01*
X0033823Y0031299D01*
X0033903Y0031155D01*
X0033978Y0031009D01*
X0034050Y0030862D01*
X0034119Y0030712D01*
X0034184Y0030561D01*
X0034245Y0030409D01*
X0034302Y0030255D01*
X0034355Y0030099D01*
X0034405Y0029943D01*
X0034451Y0029785D01*
X0034492Y0029626D01*
X0034530Y0029466D01*
X0034564Y0029306D01*
X0034594Y0029144D01*
X0034621Y0028982D01*
X0034643Y0028819D01*
X0034661Y0028656D01*
X0034675Y0028492D01*
X0034685Y0028328D01*
X0034691Y0028164D01*
X0034693Y0028000D01*
X0034691Y0027836D01*
X0034685Y0027672D01*
X0034675Y0027508D01*
X0034661Y0027344D01*
X0034643Y0027181D01*
X0034621Y0027018D01*
X0034594Y0026856D01*
X0034564Y0026694D01*
X0034530Y0026534D01*
X0034492Y0026374D01*
X0034451Y0026215D01*
X0034405Y0026057D01*
X0034355Y0025901D01*
X0034302Y0025745D01*
X0034245Y0025591D01*
X0034184Y0025439D01*
X0034119Y0025288D01*
X0034050Y0025138D01*
X0033978Y0024991D01*
X0033903Y0024845D01*
X0033823Y0024701D01*
X0033741Y0024559D01*
X0033655Y0024419D01*
X0033565Y0024282D01*
X0033472Y0024146D01*
X0033376Y0024013D01*
X0033276Y0023882D01*
X0033174Y0023754D01*
X0033068Y0023628D01*
X0032959Y0023505D01*
X0032847Y0023385D01*
X0032733Y0023267D01*
X0032615Y0023153D01*
X0032495Y0023041D01*
X0032372Y0022932D01*
X0032246Y0022826D01*
X0032118Y0022724D01*
X0031987Y0022624D01*
X0031854Y0022528D01*
X0031718Y0022435D01*
X0031581Y0022345D01*
X0031441Y0022259D01*
X0031299Y0022177D01*
X0031155Y0022097D01*
X0031009Y0022022D01*
X0030862Y0021950D01*
X0030712Y0021881D01*
X0030561Y0021816D01*
X0030409Y0021755D01*
X0030255Y0021698D01*
X0030099Y0021645D01*
X0029943Y0021595D01*
X0029785Y0021549D01*
X0029626Y0021508D01*
X0029466Y0021470D01*
X0029306Y0021436D01*
X0029144Y0021406D01*
X0028982Y0021379D01*
X0028819Y0021357D01*
X0028656Y0021339D01*
X0028492Y0021325D01*
X0028328Y0021315D01*
X0028164Y0021309D01*
X0028000Y0021307D01*
X0027836Y0021309D01*
X0027672Y0021315D01*
X0027508Y0021325D01*
X0027344Y0021339D01*
X0027181Y0021357D01*
X0027018Y0021379D01*
X0026856Y0021406D01*
X0026694Y0021436D01*
X0026534Y0021470D01*
X0026374Y0021508D01*
X0026215Y0021549D01*
X0026057Y0021595D01*
X0025901Y0021645D01*
X0025745Y0021698D01*
X0025591Y0021755D01*
X0025439Y0021816D01*
X0025288Y0021881D01*
X0025138Y0021950D01*
X0024991Y0022022D01*
X0024845Y0022097D01*
X0024701Y0022177D01*
X0024559Y0022259D01*
X0024419Y0022345D01*
X0024282Y0022435D01*
X0024146Y0022528D01*
X0024013Y0022624D01*
X0023882Y0022724D01*
X0023754Y0022826D01*
X0023628Y0022932D01*
X0023505Y0023041D01*
X0023385Y0023153D01*
X0023267Y0023267D01*
X0023153Y0023385D01*
X0023041Y0023505D01*
X0022932Y0023628D01*
X0022826Y0023754D01*
X0022724Y0023882D01*
X0022624Y0024013D01*
X0022528Y0024146D01*
X0022435Y0024282D01*
X0022345Y0024419D01*
X0022259Y0024559D01*
X0022177Y0024701D01*
X0022097Y0024845D01*
X0022022Y0024991D01*
X0021950Y0025138D01*
X0021881Y0025288D01*
X0021816Y0025439D01*
X0021755Y0025591D01*
X0021698Y0025745D01*
X0021645Y0025901D01*
X0021595Y0026057D01*
X0021549Y0026215D01*
X0021508Y0026374D01*
X0021470Y0026534D01*
X0021436Y0026694D01*
X0021406Y0026856D01*
X0021379Y0027018D01*
X0021357Y0027181D01*
X0021339Y0027344D01*
X0021325Y0027508D01*
X0021315Y0027672D01*
X0021309Y0027836D01*
X0021307Y0028000D01*
X0021307Y0183000D02*
X0021309Y0183164D01*
X0021315Y0183328D01*
X0021325Y0183492D01*
X0021339Y0183656D01*
X0021357Y0183819D01*
X0021379Y0183982D01*
X0021406Y0184144D01*
X0021436Y0184306D01*
X0021470Y0184466D01*
X0021508Y0184626D01*
X0021549Y0184785D01*
X0021595Y0184943D01*
X0021645Y0185099D01*
X0021698Y0185255D01*
X0021755Y0185409D01*
X0021816Y0185561D01*
X0021881Y0185712D01*
X0021950Y0185862D01*
X0022022Y0186009D01*
X0022097Y0186155D01*
X0022177Y0186299D01*
X0022259Y0186441D01*
X0022345Y0186581D01*
X0022435Y0186718D01*
X0022528Y0186854D01*
X0022624Y0186987D01*
X0022724Y0187118D01*
X0022826Y0187246D01*
X0022932Y0187372D01*
X0023041Y0187495D01*
X0023153Y0187615D01*
X0023267Y0187733D01*
X0023385Y0187847D01*
X0023505Y0187959D01*
X0023628Y0188068D01*
X0023754Y0188174D01*
X0023882Y0188276D01*
X0024013Y0188376D01*
X0024146Y0188472D01*
X0024282Y0188565D01*
X0024419Y0188655D01*
X0024559Y0188741D01*
X0024701Y0188823D01*
X0024845Y0188903D01*
X0024991Y0188978D01*
X0025138Y0189050D01*
X0025288Y0189119D01*
X0025439Y0189184D01*
X0025591Y0189245D01*
X0025745Y0189302D01*
X0025901Y0189355D01*
X0026057Y0189405D01*
X0026215Y0189451D01*
X0026374Y0189492D01*
X0026534Y0189530D01*
X0026694Y0189564D01*
X0026856Y0189594D01*
X0027018Y0189621D01*
X0027181Y0189643D01*
X0027344Y0189661D01*
X0027508Y0189675D01*
X0027672Y0189685D01*
X0027836Y0189691D01*
X0028000Y0189693D01*
X0028164Y0189691D01*
X0028328Y0189685D01*
X0028492Y0189675D01*
X0028656Y0189661D01*
X0028819Y0189643D01*
X0028982Y0189621D01*
X0029144Y0189594D01*
X0029306Y0189564D01*
X0029466Y0189530D01*
X0029626Y0189492D01*
X0029785Y0189451D01*
X0029943Y0189405D01*
X0030099Y0189355D01*
X0030255Y0189302D01*
X0030409Y0189245D01*
X0030561Y0189184D01*
X0030712Y0189119D01*
X0030862Y0189050D01*
X0031009Y0188978D01*
X0031155Y0188903D01*
X0031299Y0188823D01*
X0031441Y0188741D01*
X0031581Y0188655D01*
X0031718Y0188565D01*
X0031854Y0188472D01*
X0031987Y0188376D01*
X0032118Y0188276D01*
X0032246Y0188174D01*
X0032372Y0188068D01*
X0032495Y0187959D01*
X0032615Y0187847D01*
X0032733Y0187733D01*
X0032847Y0187615D01*
X0032959Y0187495D01*
X0033068Y0187372D01*
X0033174Y0187246D01*
X0033276Y0187118D01*
X0033376Y0186987D01*
X0033472Y0186854D01*
X0033565Y0186718D01*
X0033655Y0186581D01*
X0033741Y0186441D01*
X0033823Y0186299D01*
X0033903Y0186155D01*
X0033978Y0186009D01*
X0034050Y0185862D01*
X0034119Y0185712D01*
X0034184Y0185561D01*
X0034245Y0185409D01*
X0034302Y0185255D01*
X0034355Y0185099D01*
X0034405Y0184943D01*
X0034451Y0184785D01*
X0034492Y0184626D01*
X0034530Y0184466D01*
X0034564Y0184306D01*
X0034594Y0184144D01*
X0034621Y0183982D01*
X0034643Y0183819D01*
X0034661Y0183656D01*
X0034675Y0183492D01*
X0034685Y0183328D01*
X0034691Y0183164D01*
X0034693Y0183000D01*
X0034691Y0182836D01*
X0034685Y0182672D01*
X0034675Y0182508D01*
X0034661Y0182344D01*
X0034643Y0182181D01*
X0034621Y0182018D01*
X0034594Y0181856D01*
X0034564Y0181694D01*
X0034530Y0181534D01*
X0034492Y0181374D01*
X0034451Y0181215D01*
X0034405Y0181057D01*
X0034355Y0180901D01*
X0034302Y0180745D01*
X0034245Y0180591D01*
X0034184Y0180439D01*
X0034119Y0180288D01*
X0034050Y0180138D01*
X0033978Y0179991D01*
X0033903Y0179845D01*
X0033823Y0179701D01*
X0033741Y0179559D01*
X0033655Y0179419D01*
X0033565Y0179282D01*
X0033472Y0179146D01*
X0033376Y0179013D01*
X0033276Y0178882D01*
X0033174Y0178754D01*
X0033068Y0178628D01*
X0032959Y0178505D01*
X0032847Y0178385D01*
X0032733Y0178267D01*
X0032615Y0178153D01*
X0032495Y0178041D01*
X0032372Y0177932D01*
X0032246Y0177826D01*
X0032118Y0177724D01*
X0031987Y0177624D01*
X0031854Y0177528D01*
X0031718Y0177435D01*
X0031581Y0177345D01*
X0031441Y0177259D01*
X0031299Y0177177D01*
X0031155Y0177097D01*
X0031009Y0177022D01*
X0030862Y0176950D01*
X0030712Y0176881D01*
X0030561Y0176816D01*
X0030409Y0176755D01*
X0030255Y0176698D01*
X0030099Y0176645D01*
X0029943Y0176595D01*
X0029785Y0176549D01*
X0029626Y0176508D01*
X0029466Y0176470D01*
X0029306Y0176436D01*
X0029144Y0176406D01*
X0028982Y0176379D01*
X0028819Y0176357D01*
X0028656Y0176339D01*
X0028492Y0176325D01*
X0028328Y0176315D01*
X0028164Y0176309D01*
X0028000Y0176307D01*
X0027836Y0176309D01*
X0027672Y0176315D01*
X0027508Y0176325D01*
X0027344Y0176339D01*
X0027181Y0176357D01*
X0027018Y0176379D01*
X0026856Y0176406D01*
X0026694Y0176436D01*
X0026534Y0176470D01*
X0026374Y0176508D01*
X0026215Y0176549D01*
X0026057Y0176595D01*
X0025901Y0176645D01*
X0025745Y0176698D01*
X0025591Y0176755D01*
X0025439Y0176816D01*
X0025288Y0176881D01*
X0025138Y0176950D01*
X0024991Y0177022D01*
X0024845Y0177097D01*
X0024701Y0177177D01*
X0024559Y0177259D01*
X0024419Y0177345D01*
X0024282Y0177435D01*
X0024146Y0177528D01*
X0024013Y0177624D01*
X0023882Y0177724D01*
X0023754Y0177826D01*
X0023628Y0177932D01*
X0023505Y0178041D01*
X0023385Y0178153D01*
X0023267Y0178267D01*
X0023153Y0178385D01*
X0023041Y0178505D01*
X0022932Y0178628D01*
X0022826Y0178754D01*
X0022724Y0178882D01*
X0022624Y0179013D01*
X0022528Y0179146D01*
X0022435Y0179282D01*
X0022345Y0179419D01*
X0022259Y0179559D01*
X0022177Y0179701D01*
X0022097Y0179845D01*
X0022022Y0179991D01*
X0021950Y0180138D01*
X0021881Y0180288D01*
X0021816Y0180439D01*
X0021755Y0180591D01*
X0021698Y0180745D01*
X0021645Y0180901D01*
X0021595Y0181057D01*
X0021549Y0181215D01*
X0021508Y0181374D01*
X0021470Y0181534D01*
X0021436Y0181694D01*
X0021406Y0181856D01*
X0021379Y0182018D01*
X0021357Y0182181D01*
X0021339Y0182344D01*
X0021325Y0182508D01*
X0021315Y0182672D01*
X0021309Y0182836D01*
X0021307Y0183000D01*
M02*
